<svg width="956" height="158" viewBox="0 0 956 158" fill="none" xmlns="http://www.w3.org/2000/svg">
<path opacity="0.12" d="M267.107 146.465C282.506 146.465 293.911 132.603 293.911 116.914C293.911 101.226 282.506 87.3631 267.107 87.3631C251.708 87.3631 240.303 101.226 240.303 116.914C240.303 132.603 251.708 146.465 267.107 146.465Z" stroke="white" stroke-width="10.8108"/>
<path opacity="0.12" d="M416.111 141.56C432.455 141.56 444.627 126.833 444.627 110.077C444.627 93.3219 432.455 78.5946 416.111 78.5946C399.767 78.5946 387.595 93.3219 387.595 110.077C387.595 126.833 399.767 141.56 416.111 141.56Z" stroke="white" stroke-width="10.8108"/>
<path opacity="0.12" d="M573.201 64.6967C588.6 64.6967 600.005 50.8342 600.005 35.1457C600.005 19.4571 588.6 5.59459 573.201 5.59459C557.802 5.59459 546.396 19.4571 546.396 35.1457C546.396 50.8342 557.802 64.6967 573.201 64.6967Z" stroke="white" stroke-width="10.8108"/>
<path opacity="0.12" d="M630.526 152.568C645.925 152.568 657.33 138.705 657.33 123.017C657.33 107.328 645.925 93.4657 630.526 93.4657C615.127 93.4657 603.721 107.328 603.721 123.017C603.721 138.705 615.127 152.568 630.526 152.568Z" stroke="white" stroke-width="10.8108"/>
<path opacity="0.12" d="M734.36 89.1049C749.758 89.1049 761.164 75.2424 761.164 59.5539C761.164 43.8653 749.758 30.0028 734.36 30.0028C718.961 30.0028 707.555 43.8653 707.555 59.5539C707.555 75.2424 718.961 89.1049 734.36 89.1049Z" stroke="white" stroke-width="10.8108"/>
<path opacity="0.12" d="M843.602 136.703C859 136.703 870.406 122.84 870.406 107.152C870.406 91.463 859 77.6005 843.602 77.6005C828.203 77.6005 816.797 91.463 816.797 107.152C816.797 122.84 828.203 136.703 843.602 136.703Z" stroke="white" stroke-width="10.8108"/>
<path opacity="0.12" d="M923.64 72.019C939.039 72.019 950.445 58.1565 950.445 42.4679C950.445 26.7794 939.039 12.9169 923.64 12.9169C908.241 12.9169 896.836 26.7794 896.836 42.4679C896.836 58.1565 908.241 72.019 923.64 72.019Z" stroke="white" stroke-width="10.8108"/>
<path opacity="0.12" d="M34.111 106.393C50.4552 106.393 62.6273 91.6657 62.6273 74.9103C62.6273 58.1549 50.4552 43.4276 34.111 43.4276C17.7667 43.4276 5.59459 58.1549 5.59459 74.9103C5.59459 91.6657 17.7667 106.393 34.111 106.393Z" stroke="white" stroke-width="10.8108"/>
<path opacity="0.12" d="M161.74 68.56C178.084 68.56 190.257 53.8327 190.257 37.0773C190.257 20.3219 178.084 5.59459 161.74 5.59459C145.396 5.59459 133.224 20.3219 133.224 37.0773C133.224 53.8327 145.396 68.56 161.74 68.56Z" stroke="white" stroke-width="10.8108"/>
</svg>
