<svg width="1920" height="1763" viewBox="0 0 1920 1763" fill="none" xmlns="http://www.w3.org/2000/svg">
<mask id="mask0" mask-type="alpha" maskUnits="userSpaceOnUse" x="0" y="0" width="1920" height="1763">
<rect width="1920" height="1762.04" fill="#C4C4C4"/>
</mask>
<g mask="url(#mask0)">
<g opacity="0.9">
<g opacity="0.83">
<path opacity="0.83" d="M28.565 29.4377C33.0082 29.4377 36.6101 25.8358 36.6101 21.3927C36.6101 16.9495 33.0082 13.3477 28.565 13.3477C24.1219 13.3477 20.52 16.9495 20.52 21.3927C20.52 25.8358 24.1219 29.4377 28.565 29.4377Z" fill="#FF9800"/>
<path opacity="0.83" d="M75.8266 29.4377C80.2697 29.4377 83.8716 25.8358 83.8716 21.3927C83.8716 16.9495 80.2697 13.3477 75.8266 13.3477C71.3834 13.3477 67.7815 16.9495 67.7815 21.3927C67.7815 25.8358 71.3834 29.4377 75.8266 29.4377Z" fill="#FF9800"/>
<path opacity="0.83" d="M123.095 29.4377C127.538 29.4377 131.14 25.8358 131.14 21.3927C131.14 16.9495 127.538 13.3477 123.095 13.3477C118.652 13.3477 115.05 16.9495 115.05 21.3927C115.05 25.8358 118.652 29.4377 123.095 29.4377Z" fill="#FF9800"/>
<path opacity="0.83" d="M170.352 29.4377C174.795 29.4377 178.397 25.8358 178.397 21.3927C178.397 16.9495 174.795 13.3477 170.352 13.3477C165.909 13.3477 162.307 16.9495 162.307 21.3927C162.307 25.8358 165.909 29.4377 170.352 29.4377Z" fill="#FF9800"/>
<path opacity="0.83" d="M217.616 29.4377C222.059 29.4377 225.661 25.8358 225.661 21.3927C225.661 16.9495 222.059 13.3477 217.616 13.3477C213.173 13.3477 209.571 16.9495 209.571 21.3927C209.571 25.8358 213.173 29.4377 217.616 29.4377Z" fill="#FF9800"/>
<path opacity="0.83" d="M264.885 29.4377C269.328 29.4377 272.93 25.8358 272.93 21.3927C272.93 16.9495 269.328 13.3477 264.885 13.3477C260.441 13.3477 256.84 16.9495 256.84 21.3927C256.84 25.8358 260.441 29.4377 264.885 29.4377Z" fill="#FF9800"/>
<path opacity="0.83" d="M312.152 29.4377C316.596 29.4377 320.198 25.8358 320.198 21.3927C320.198 16.9495 316.596 13.3477 312.152 13.3477C307.709 13.3477 304.107 16.9495 304.107 21.3927C304.107 25.8358 307.709 29.4377 312.152 29.4377Z" fill="#FF9800"/>
<path opacity="0.83" d="M359.419 29.4377C363.862 29.4377 367.464 25.8358 367.464 21.3927C367.464 16.9495 363.862 13.3477 359.419 13.3477C354.975 13.3477 351.374 16.9495 351.374 21.3927C351.374 25.8358 354.975 29.4377 359.419 29.4377Z" fill="#FF9800"/>
<path opacity="0.83" d="M406.674 29.4377C411.117 29.4377 414.719 25.8358 414.719 21.3927C414.719 16.9495 411.117 13.3477 406.674 13.3477C402.231 13.3477 398.629 16.9495 398.629 21.3927C398.629 25.8358 402.231 29.4377 406.674 29.4377Z" fill="#FF9800"/>
<path opacity="0.83" d="M453.94 29.4377C458.383 29.4377 461.985 25.8358 461.985 21.3927C461.985 16.9495 458.383 13.3477 453.94 13.3477C449.497 13.3477 445.895 16.9495 445.895 21.3927C445.895 25.8358 449.497 29.4377 453.94 29.4377Z" fill="#FF9800"/>
<path opacity="0.83" d="M501.21 29.4377C505.653 29.4377 509.255 25.8358 509.255 21.3927C509.255 16.9495 505.653 13.3477 501.21 13.3477C496.767 13.3477 493.165 16.9495 493.165 21.3927C493.165 25.8358 496.767 29.4377 501.21 29.4377Z" fill="#FF9800"/>
<path opacity="0.83" d="M28.565 68.6662C33.0082 68.6662 36.6101 65.0644 36.6101 60.6212C36.6101 56.1781 33.0082 52.5762 28.565 52.5762C24.1219 52.5762 20.52 56.1781 20.52 60.6212C20.52 65.0644 24.1219 68.6662 28.565 68.6662Z" fill="#FF9800"/>
<path opacity="0.83" d="M75.8266 68.6662C80.2697 68.6662 83.8716 65.0644 83.8716 60.6212C83.8716 56.1781 80.2697 52.5762 75.8266 52.5762C71.3834 52.5762 67.7815 56.1781 67.7815 60.6212C67.7815 65.0644 71.3834 68.6662 75.8266 68.6662Z" fill="#FF9800"/>
<path opacity="0.83" d="M123.095 68.6662C127.538 68.6662 131.14 65.0644 131.14 60.6212C131.14 56.1781 127.538 52.5762 123.095 52.5762C118.652 52.5762 115.05 56.1781 115.05 60.6212C115.05 65.0644 118.652 68.6662 123.095 68.6662Z" fill="#FF9800"/>
<path opacity="0.83" d="M170.352 68.6662C174.795 68.6662 178.397 65.0644 178.397 60.6212C178.397 56.1781 174.795 52.5762 170.352 52.5762C165.909 52.5762 162.307 56.1781 162.307 60.6212C162.307 65.0644 165.909 68.6662 170.352 68.6662Z" fill="#FF9800"/>
<path opacity="0.83" d="M217.616 68.6662C222.059 68.6662 225.661 65.0644 225.661 60.6212C225.661 56.1781 222.059 52.5762 217.616 52.5762C213.173 52.5762 209.571 56.1781 209.571 60.6212C209.571 65.0644 213.173 68.6662 217.616 68.6662Z" fill="#FF9800"/>
<path opacity="0.83" d="M264.885 68.6662C269.328 68.6662 272.93 65.0644 272.93 60.6212C272.93 56.1781 269.328 52.5762 264.885 52.5762C260.441 52.5762 256.84 56.1781 256.84 60.6212C256.84 65.0644 260.441 68.6662 264.885 68.6662Z" fill="#FF9800"/>
<path opacity="0.83" d="M312.152 68.6662C316.596 68.6662 320.198 65.0644 320.198 60.6212C320.198 56.1781 316.596 52.5762 312.152 52.5762C307.709 52.5762 304.107 56.1781 304.107 60.6212C304.107 65.0644 307.709 68.6662 312.152 68.6662Z" fill="#FF9800"/>
<path opacity="0.83" d="M359.419 68.6662C363.862 68.6662 367.464 65.0644 367.464 60.6212C367.464 56.1781 363.862 52.5762 359.419 52.5762C354.975 52.5762 351.374 56.1781 351.374 60.6212C351.374 65.0644 354.975 68.6662 359.419 68.6662Z" fill="#FF9800"/>
<path opacity="0.83" d="M406.674 68.6662C411.117 68.6662 414.719 65.0644 414.719 60.6212C414.719 56.1781 411.117 52.5762 406.674 52.5762C402.231 52.5762 398.629 56.1781 398.629 60.6212C398.629 65.0644 402.231 68.6662 406.674 68.6662Z" fill="#FF9800"/>
<path opacity="0.83" d="M453.94 68.6662C458.383 68.6662 461.985 65.0644 461.985 60.6212C461.985 56.1781 458.383 52.5762 453.94 52.5762C449.497 52.5762 445.895 56.1781 445.895 60.6212C445.895 65.0644 449.497 68.6662 453.94 68.6662Z" fill="#FF9800"/>
<path opacity="0.83" d="M501.21 68.6662C505.653 68.6662 509.255 65.0644 509.255 60.6212C509.255 56.1781 505.653 52.5762 501.21 52.5762C496.767 52.5762 493.165 56.1781 493.165 60.6212C493.165 65.0644 496.767 68.6662 501.21 68.6662Z" fill="#FF9800"/>
<path opacity="0.83" d="M28.565 108.887C33.0082 108.887 36.6101 105.285 36.6101 100.842C36.6101 96.3988 33.0082 92.7969 28.565 92.7969C24.1219 92.7969 20.52 96.3988 20.52 100.842C20.52 105.285 24.1219 108.887 28.565 108.887Z" fill="#FF9800"/>
<path opacity="0.83" d="M75.8266 108.887C80.2697 108.887 83.8716 105.285 83.8716 100.842C83.8716 96.3988 80.2697 92.7969 75.8266 92.7969C71.3834 92.7969 67.7815 96.3988 67.7815 100.842C67.7815 105.285 71.3834 108.887 75.8266 108.887Z" fill="#FF9800"/>
<path opacity="0.83" d="M123.095 108.887C127.538 108.887 131.14 105.285 131.14 100.842C131.14 96.3988 127.538 92.7969 123.095 92.7969C118.652 92.7969 115.05 96.3988 115.05 100.842C115.05 105.285 118.652 108.887 123.095 108.887Z" fill="#FF9800"/>
<path opacity="0.83" d="M170.352 108.887C174.795 108.887 178.397 105.285 178.397 100.842C178.397 96.3988 174.795 92.7969 170.352 92.7969C165.909 92.7969 162.307 96.3988 162.307 100.842C162.307 105.285 165.909 108.887 170.352 108.887Z" fill="#FF9800"/>
<path opacity="0.83" d="M217.616 108.887C222.059 108.887 225.661 105.285 225.661 100.842C225.661 96.3988 222.059 92.7969 217.616 92.7969C213.173 92.7969 209.571 96.3988 209.571 100.842C209.571 105.285 213.173 108.887 217.616 108.887Z" fill="#FF9800"/>
<path opacity="0.83" d="M264.885 108.887C269.328 108.887 272.93 105.285 272.93 100.842C272.93 96.3988 269.328 92.7969 264.885 92.7969C260.441 92.7969 256.84 96.3988 256.84 100.842C256.84 105.285 260.441 108.887 264.885 108.887Z" fill="#FF9800"/>
<path opacity="0.83" d="M312.152 108.887C316.596 108.887 320.198 105.285 320.198 100.842C320.198 96.3988 316.596 92.7969 312.152 92.7969C307.709 92.7969 304.107 96.3988 304.107 100.842C304.107 105.285 307.709 108.887 312.152 108.887Z" fill="#FF9800"/>
<path opacity="0.83" d="M359.419 108.887C363.862 108.887 367.464 105.285 367.464 100.842C367.464 96.3988 363.862 92.7969 359.419 92.7969C354.975 92.7969 351.374 96.3988 351.374 100.842C351.374 105.285 354.975 108.887 359.419 108.887Z" fill="#FF9800"/>
<path opacity="0.83" d="M406.674 108.887C411.117 108.887 414.719 105.285 414.719 100.842C414.719 96.3988 411.117 92.7969 406.674 92.7969C402.231 92.7969 398.629 96.3988 398.629 100.842C398.629 105.285 402.231 108.887 406.674 108.887Z" fill="#FF9800"/>
<path opacity="0.83" d="M453.94 108.887C458.383 108.887 461.985 105.285 461.985 100.842C461.985 96.3988 458.383 92.7969 453.94 92.7969C449.497 92.7969 445.895 96.3988 445.895 100.842C445.895 105.285 449.497 108.887 453.94 108.887Z" fill="#FF9800"/>
<path opacity="0.83" d="M501.21 108.887C505.653 108.887 509.255 105.285 509.255 100.842C509.255 96.3988 505.653 92.7969 501.21 92.7969C496.767 92.7969 493.165 96.3988 493.165 100.842C493.165 105.285 496.767 108.887 501.21 108.887Z" fill="#FF9800"/>
<path opacity="0.83" d="M28.565 148.115C33.0082 148.115 36.6101 144.514 36.6101 140.07C36.6101 135.627 33.0082 132.025 28.565 132.025C24.1219 132.025 20.52 135.627 20.52 140.07C20.52 144.514 24.1219 148.115 28.565 148.115Z" fill="#FF9800"/>
<path opacity="0.83" d="M75.8266 148.115C80.2697 148.115 83.8716 144.514 83.8716 140.07C83.8716 135.627 80.2697 132.025 75.8266 132.025C71.3834 132.025 67.7815 135.627 67.7815 140.07C67.7815 144.514 71.3834 148.115 75.8266 148.115Z" fill="#FF9800"/>
<path opacity="0.83" d="M123.095 148.115C127.538 148.115 131.14 144.514 131.14 140.07C131.14 135.627 127.538 132.025 123.095 132.025C118.652 132.025 115.05 135.627 115.05 140.07C115.05 144.514 118.652 148.115 123.095 148.115Z" fill="#FF9800"/>
<path opacity="0.83" d="M170.352 148.115C174.795 148.115 178.397 144.514 178.397 140.07C178.397 135.627 174.795 132.025 170.352 132.025C165.909 132.025 162.307 135.627 162.307 140.07C162.307 144.514 165.909 148.115 170.352 148.115Z" fill="#FF9800"/>
<path opacity="0.83" d="M217.616 148.115C222.059 148.115 225.661 144.514 225.661 140.07C225.661 135.627 222.059 132.025 217.616 132.025C213.173 132.025 209.571 135.627 209.571 140.07C209.571 144.514 213.173 148.115 217.616 148.115Z" fill="#FF9800"/>
<path opacity="0.83" d="M264.885 148.115C269.328 148.115 272.93 144.514 272.93 140.07C272.93 135.627 269.328 132.025 264.885 132.025C260.441 132.025 256.84 135.627 256.84 140.07C256.84 144.514 260.441 148.115 264.885 148.115Z" fill="#FF9800"/>
<path opacity="0.83" d="M312.152 148.115C316.596 148.115 320.198 144.514 320.198 140.07C320.198 135.627 316.596 132.025 312.152 132.025C307.709 132.025 304.107 135.627 304.107 140.07C304.107 144.514 307.709 148.115 312.152 148.115Z" fill="#FF9800"/>
<path opacity="0.83" d="M359.419 148.115C363.862 148.115 367.464 144.514 367.464 140.07C367.464 135.627 363.862 132.025 359.419 132.025C354.975 132.025 351.374 135.627 351.374 140.07C351.374 144.514 354.975 148.115 359.419 148.115Z" fill="#FF9800"/>
<path opacity="0.83" d="M406.674 148.115C411.117 148.115 414.719 144.514 414.719 140.07C414.719 135.627 411.117 132.025 406.674 132.025C402.231 132.025 398.629 135.627 398.629 140.07C398.629 144.514 402.231 148.115 406.674 148.115Z" fill="#FF9800"/>
<path opacity="0.83" d="M453.94 148.115C458.383 148.115 461.985 144.514 461.985 140.07C461.985 135.627 458.383 132.025 453.94 132.025C449.497 132.025 445.895 135.627 445.895 140.07C445.895 144.514 449.497 148.115 453.94 148.115Z" fill="#FF9800"/>
<path opacity="0.83" d="M501.21 148.115C505.653 148.115 509.255 144.514 509.255 140.07C509.255 135.627 505.653 132.025 501.21 132.025C496.767 132.025 493.165 135.627 493.165 140.07C493.165 144.514 496.767 148.115 501.21 148.115Z" fill="#FF9800"/>
<path opacity="0.83" d="M28.565 187.313C33.0082 187.313 36.6101 183.711 36.6101 179.268C36.6101 174.825 33.0082 171.223 28.565 171.223C24.1219 171.223 20.52 174.825 20.52 179.268C20.52 183.711 24.1219 187.313 28.565 187.313Z" fill="#FF9800"/>
<path opacity="0.83" d="M75.8266 187.313C80.2697 187.313 83.8716 183.711 83.8716 179.268C83.8716 174.825 80.2697 171.223 75.8266 171.223C71.3834 171.223 67.7815 174.825 67.7815 179.268C67.7815 183.711 71.3834 187.313 75.8266 187.313Z" fill="#FF9800"/>
<path opacity="0.83" d="M123.095 187.313C127.538 187.313 131.14 183.711 131.14 179.268C131.14 174.825 127.538 171.223 123.095 171.223C118.652 171.223 115.05 174.825 115.05 179.268C115.05 183.711 118.652 187.313 123.095 187.313Z" fill="#FF9800"/>
<path opacity="0.83" d="M170.352 187.313C174.795 187.313 178.397 183.711 178.397 179.268C178.397 174.825 174.795 171.223 170.352 171.223C165.909 171.223 162.307 174.825 162.307 179.268C162.307 183.711 165.909 187.313 170.352 187.313Z" fill="#FF9800"/>
<path opacity="0.83" d="M217.616 187.313C222.059 187.313 225.661 183.711 225.661 179.268C225.661 174.825 222.059 171.223 217.616 171.223C213.173 171.223 209.571 174.825 209.571 179.268C209.571 183.711 213.173 187.313 217.616 187.313Z" fill="#FF9800"/>
<path opacity="0.83" d="M264.885 187.313C269.328 187.313 272.93 183.711 272.93 179.268C272.93 174.825 269.328 171.223 264.885 171.223C260.441 171.223 256.84 174.825 256.84 179.268C256.84 183.711 260.441 187.313 264.885 187.313Z" fill="#FF9800"/>
<path opacity="0.83" d="M312.152 187.313C316.596 187.313 320.198 183.711 320.198 179.268C320.198 174.825 316.596 171.223 312.152 171.223C307.709 171.223 304.107 174.825 304.107 179.268C304.107 183.711 307.709 187.313 312.152 187.313Z" fill="#FF9800"/>
<path opacity="0.83" d="M359.419 187.313C363.862 187.313 367.464 183.711 367.464 179.268C367.464 174.825 363.862 171.223 359.419 171.223C354.975 171.223 351.374 174.825 351.374 179.268C351.374 183.711 354.975 187.313 359.419 187.313Z" fill="#FF9800"/>
<path opacity="0.83" d="M406.674 187.313C411.117 187.313 414.719 183.711 414.719 179.268C414.719 174.825 411.117 171.223 406.674 171.223C402.231 171.223 398.629 174.825 398.629 179.268C398.629 183.711 402.231 187.313 406.674 187.313Z" fill="#FF9800"/>
<path opacity="0.83" d="M453.94 187.313C458.383 187.313 461.985 183.711 461.985 179.268C461.985 174.825 458.383 171.223 453.94 171.223C449.497 171.223 445.895 174.825 445.895 179.268C445.895 183.711 449.497 187.313 453.94 187.313Z" fill="#FF9800"/>
<path opacity="0.83" d="M501.21 187.313C505.653 187.313 509.255 183.711 509.255 179.268C509.255 174.825 505.653 171.223 501.21 171.223C496.767 171.223 493.165 174.825 493.165 179.268C493.165 183.711 496.767 187.313 501.21 187.313Z" fill="#FF9800"/>
<path opacity="0.83" d="M28.565 226.537C33.0082 226.537 36.6101 222.935 36.6101 218.492C36.6101 214.049 33.0082 210.447 28.565 210.447C24.1219 210.447 20.52 214.049 20.52 218.492C20.52 222.935 24.1219 226.537 28.565 226.537Z" fill="#FF9800"/>
<path opacity="0.83" d="M75.8266 226.537C80.2697 226.537 83.8716 222.935 83.8716 218.492C83.8716 214.049 80.2697 210.447 75.8266 210.447C71.3834 210.447 67.7815 214.049 67.7815 218.492C67.7815 222.935 71.3834 226.537 75.8266 226.537Z" fill="#FF9800"/>
<path opacity="0.83" d="M123.095 226.537C127.538 226.537 131.14 222.935 131.14 218.492C131.14 214.049 127.538 210.447 123.095 210.447C118.652 210.447 115.05 214.049 115.05 218.492C115.05 222.935 118.652 226.537 123.095 226.537Z" fill="#FF9800"/>
<path opacity="0.83" d="M170.352 226.537C174.795 226.537 178.397 222.935 178.397 218.492C178.397 214.049 174.795 210.447 170.352 210.447C165.909 210.447 162.307 214.049 162.307 218.492C162.307 222.935 165.909 226.537 170.352 226.537Z" fill="#FF9800"/>
<path opacity="0.83" d="M217.616 226.537C222.059 226.537 225.661 222.935 225.661 218.492C225.661 214.049 222.059 210.447 217.616 210.447C213.173 210.447 209.571 214.049 209.571 218.492C209.571 222.935 213.173 226.537 217.616 226.537Z" fill="#FF9800"/>
<path opacity="0.83" d="M264.885 226.537C269.328 226.537 272.93 222.935 272.93 218.492C272.93 214.049 269.328 210.447 264.885 210.447C260.441 210.447 256.84 214.049 256.84 218.492C256.84 222.935 260.441 226.537 264.885 226.537Z" fill="#FF9800"/>
<path opacity="0.83" d="M312.152 226.537C316.596 226.537 320.198 222.935 320.198 218.492C320.198 214.049 316.596 210.447 312.152 210.447C307.709 210.447 304.107 214.049 304.107 218.492C304.107 222.935 307.709 226.537 312.152 226.537Z" fill="#FF9800"/>
<path opacity="0.83" d="M359.419 226.537C363.862 226.537 367.464 222.935 367.464 218.492C367.464 214.049 363.862 210.447 359.419 210.447C354.975 210.447 351.374 214.049 351.374 218.492C351.374 222.935 354.975 226.537 359.419 226.537Z" fill="#FF9800"/>
<path opacity="0.83" d="M406.674 226.537C411.117 226.537 414.719 222.935 414.719 218.492C414.719 214.049 411.117 210.447 406.674 210.447C402.231 210.447 398.629 214.049 398.629 218.492C398.629 222.935 402.231 226.537 406.674 226.537Z" fill="#FF9800"/>
<path opacity="0.83" d="M453.94 226.537C458.383 226.537 461.985 222.935 461.985 218.492C461.985 214.049 458.383 210.447 453.94 210.447C449.497 210.447 445.895 214.049 445.895 218.492C445.895 222.935 449.497 226.537 453.94 226.537Z" fill="#FF9800"/>
<path opacity="0.83" d="M501.21 226.537C505.653 226.537 509.255 222.935 509.255 218.492C509.255 214.049 505.653 210.447 501.21 210.447C496.767 210.447 493.165 214.049 493.165 218.492C493.165 222.935 496.767 226.537 501.21 226.537Z" fill="#FF9800"/>
<path opacity="0.83" d="M28.565 265.756C33.0082 265.756 36.6101 262.154 36.6101 257.711C36.6101 253.268 33.0082 249.666 28.565 249.666C24.1219 249.666 20.52 253.268 20.52 257.711C20.52 262.154 24.1219 265.756 28.565 265.756Z" fill="#FF9800"/>
<path opacity="0.83" d="M75.8266 265.756C80.2697 265.756 83.8716 262.154 83.8716 257.711C83.8716 253.268 80.2697 249.666 75.8266 249.666C71.3834 249.666 67.7815 253.268 67.7815 257.711C67.7815 262.154 71.3834 265.756 75.8266 265.756Z" fill="#FF9800"/>
<path opacity="0.83" d="M123.095 265.756C127.538 265.756 131.14 262.154 131.14 257.711C131.14 253.268 127.538 249.666 123.095 249.666C118.652 249.666 115.05 253.268 115.05 257.711C115.05 262.154 118.652 265.756 123.095 265.756Z" fill="#FF9800"/>
<path opacity="0.83" d="M170.352 265.756C174.795 265.756 178.397 262.154 178.397 257.711C178.397 253.268 174.795 249.666 170.352 249.666C165.909 249.666 162.307 253.268 162.307 257.711C162.307 262.154 165.909 265.756 170.352 265.756Z" fill="#FF9800"/>
<path opacity="0.83" d="M217.616 265.756C222.059 265.756 225.661 262.154 225.661 257.711C225.661 253.268 222.059 249.666 217.616 249.666C213.173 249.666 209.571 253.268 209.571 257.711C209.571 262.154 213.173 265.756 217.616 265.756Z" fill="#FF9800"/>
<path opacity="0.83" d="M264.885 265.756C269.328 265.756 272.93 262.154 272.93 257.711C272.93 253.268 269.328 249.666 264.885 249.666C260.441 249.666 256.84 253.268 256.84 257.711C256.84 262.154 260.441 265.756 264.885 265.756Z" fill="#FF9800"/>
<path opacity="0.83" d="M312.152 265.756C316.596 265.756 320.198 262.154 320.198 257.711C320.198 253.268 316.596 249.666 312.152 249.666C307.709 249.666 304.107 253.268 304.107 257.711C304.107 262.154 307.709 265.756 312.152 265.756Z" fill="#FF9800"/>
<path opacity="0.83" d="M359.419 265.756C363.862 265.756 367.464 262.154 367.464 257.711C367.464 253.268 363.862 249.666 359.419 249.666C354.975 249.666 351.374 253.268 351.374 257.711C351.374 262.154 354.975 265.756 359.419 265.756Z" fill="#FF9800"/>
<path opacity="0.83" d="M406.674 265.756C411.117 265.756 414.719 262.154 414.719 257.711C414.719 253.268 411.117 249.666 406.674 249.666C402.231 249.666 398.629 253.268 398.629 257.711C398.629 262.154 402.231 265.756 406.674 265.756Z" fill="#FF9800"/>
<path opacity="0.83" d="M453.94 265.756C458.383 265.756 461.985 262.154 461.985 257.711C461.985 253.268 458.383 249.666 453.94 249.666C449.497 249.666 445.895 253.268 445.895 257.711C445.895 262.154 449.497 265.756 453.94 265.756Z" fill="#FF9800"/>
<path opacity="0.83" d="M501.21 265.756C505.653 265.756 509.255 262.154 509.255 257.711C509.255 253.268 505.653 249.666 501.21 249.666C496.767 249.666 493.165 253.268 493.165 257.711C493.165 262.154 496.767 265.756 501.21 265.756Z" fill="#FF9800"/>
<path opacity="0.83" d="M28.565 304.988C33.0082 304.988 36.6101 301.387 36.6101 296.943C36.6101 292.5 33.0082 288.898 28.565 288.898C24.1219 288.898 20.52 292.5 20.52 296.943C20.52 301.387 24.1219 304.988 28.565 304.988Z" fill="#FF9800"/>
<path opacity="0.83" d="M75.8266 304.988C80.2697 304.988 83.8716 301.387 83.8716 296.943C83.8716 292.5 80.2697 288.898 75.8266 288.898C71.3834 288.898 67.7815 292.5 67.7815 296.943C67.7815 301.387 71.3834 304.988 75.8266 304.988Z" fill="#FF9800"/>
<path opacity="0.83" d="M123.095 304.988C127.538 304.988 131.14 301.387 131.14 296.943C131.14 292.5 127.538 288.898 123.095 288.898C118.652 288.898 115.05 292.5 115.05 296.943C115.05 301.387 118.652 304.988 123.095 304.988Z" fill="#FF9800"/>
<path opacity="0.83" d="M170.352 304.988C174.795 304.988 178.397 301.387 178.397 296.943C178.397 292.5 174.795 288.898 170.352 288.898C165.909 288.898 162.307 292.5 162.307 296.943C162.307 301.387 165.909 304.988 170.352 304.988Z" fill="#FF9800"/>
<path opacity="0.83" d="M217.616 304.988C222.059 304.988 225.661 301.387 225.661 296.943C225.661 292.5 222.059 288.898 217.616 288.898C213.173 288.898 209.571 292.5 209.571 296.943C209.571 301.387 213.173 304.988 217.616 304.988Z" fill="#FF9800"/>
<path opacity="0.83" d="M264.885 304.988C269.328 304.988 272.93 301.387 272.93 296.943C272.93 292.5 269.328 288.898 264.885 288.898C260.441 288.898 256.84 292.5 256.84 296.943C256.84 301.387 260.441 304.988 264.885 304.988Z" fill="#FF9800"/>
<path opacity="0.83" d="M312.152 304.988C316.596 304.988 320.198 301.387 320.198 296.943C320.198 292.5 316.596 288.898 312.152 288.898C307.709 288.898 304.107 292.5 304.107 296.943C304.107 301.387 307.709 304.988 312.152 304.988Z" fill="#FF9800"/>
<path opacity="0.83" d="M359.419 304.988C363.862 304.988 367.464 301.387 367.464 296.943C367.464 292.5 363.862 288.898 359.419 288.898C354.975 288.898 351.374 292.5 351.374 296.943C351.374 301.387 354.975 304.988 359.419 304.988Z" fill="#FF9800"/>
<path opacity="0.83" d="M406.674 304.988C411.117 304.988 414.719 301.387 414.719 296.943C414.719 292.5 411.117 288.898 406.674 288.898C402.231 288.898 398.629 292.5 398.629 296.943C398.629 301.387 402.231 304.988 406.674 304.988Z" fill="#FF9800"/>
<path opacity="0.83" d="M453.94 304.988C458.383 304.988 461.985 301.387 461.985 296.943C461.985 292.5 458.383 288.898 453.94 288.898C449.497 288.898 445.895 292.5 445.895 296.943C445.895 301.387 449.497 304.988 453.94 304.988Z" fill="#FF9800"/>
<path opacity="0.83" d="M501.21 304.988C505.653 304.988 509.255 301.387 509.255 296.943C509.255 292.5 505.653 288.898 501.21 288.898C496.767 288.898 493.165 292.5 493.165 296.943C493.165 301.387 496.767 304.988 501.21 304.988Z" fill="#FF9800"/>
<path opacity="0.83" d="M28.565 344.207C33.0082 344.207 36.6101 340.605 36.6101 336.162C36.6101 331.719 33.0082 328.117 28.565 328.117C24.1219 328.117 20.52 331.719 20.52 336.162C20.52 340.605 24.1219 344.207 28.565 344.207Z" fill="#FF9800"/>
<path opacity="0.83" d="M75.8266 344.207C80.2697 344.207 83.8716 340.605 83.8716 336.162C83.8716 331.719 80.2697 328.117 75.8266 328.117C71.3834 328.117 67.7815 331.719 67.7815 336.162C67.7815 340.605 71.3834 344.207 75.8266 344.207Z" fill="#FF9800"/>
<path opacity="0.83" d="M123.095 344.207C127.538 344.207 131.14 340.605 131.14 336.162C131.14 331.719 127.538 328.117 123.095 328.117C118.652 328.117 115.05 331.719 115.05 336.162C115.05 340.605 118.652 344.207 123.095 344.207Z" fill="#FF9800"/>
<path opacity="0.83" d="M170.352 344.207C174.795 344.207 178.397 340.605 178.397 336.162C178.397 331.719 174.795 328.117 170.352 328.117C165.909 328.117 162.307 331.719 162.307 336.162C162.307 340.605 165.909 344.207 170.352 344.207Z" fill="#FF9800"/>
<path opacity="0.83" d="M217.616 344.207C222.059 344.207 225.661 340.605 225.661 336.162C225.661 331.719 222.059 328.117 217.616 328.117C213.173 328.117 209.571 331.719 209.571 336.162C209.571 340.605 213.173 344.207 217.616 344.207Z" fill="#FF9800"/>
<path opacity="0.83" d="M264.885 344.207C269.328 344.207 272.93 340.605 272.93 336.162C272.93 331.719 269.328 328.117 264.885 328.117C260.441 328.117 256.84 331.719 256.84 336.162C256.84 340.605 260.441 344.207 264.885 344.207Z" fill="#FF9800"/>
<path opacity="0.83" d="M312.152 344.207C316.596 344.207 320.198 340.605 320.198 336.162C320.198 331.719 316.596 328.117 312.152 328.117C307.709 328.117 304.107 331.719 304.107 336.162C304.107 340.605 307.709 344.207 312.152 344.207Z" fill="#FF9800"/>
<path opacity="0.83" d="M359.419 344.207C363.862 344.207 367.464 340.605 367.464 336.162C367.464 331.719 363.862 328.117 359.419 328.117C354.975 328.117 351.374 331.719 351.374 336.162C351.374 340.605 354.975 344.207 359.419 344.207Z" fill="#FF9800"/>
<path opacity="0.83" d="M406.674 344.207C411.117 344.207 414.719 340.605 414.719 336.162C414.719 331.719 411.117 328.117 406.674 328.117C402.231 328.117 398.629 331.719 398.629 336.162C398.629 340.605 402.231 344.207 406.674 344.207Z" fill="#FF9800"/>
<path opacity="0.83" d="M453.94 344.207C458.383 344.207 461.985 340.605 461.985 336.162C461.985 331.719 458.383 328.117 453.94 328.117C449.497 328.117 445.895 331.719 445.895 336.162C445.895 340.605 449.497 344.207 453.94 344.207Z" fill="#FF9800"/>
<path opacity="0.83" d="M501.21 344.207C505.653 344.207 509.255 340.605 509.255 336.162C509.255 331.719 505.653 328.117 501.21 328.117C496.767 328.117 493.165 331.719 493.165 336.162C493.165 340.605 496.767 344.207 501.21 344.207Z" fill="#FF9800"/>
<path opacity="0.83" d="M28.565 384.434C33.0082 384.434 36.6101 380.832 36.6101 376.389C36.6101 371.946 33.0082 368.344 28.565 368.344C24.1219 368.344 20.52 371.946 20.52 376.389C20.52 380.832 24.1219 384.434 28.565 384.434Z" fill="#FF9800"/>
<path opacity="0.83" d="M75.8266 384.434C80.2697 384.434 83.8716 380.832 83.8716 376.389C83.8716 371.946 80.2697 368.344 75.8266 368.344C71.3834 368.344 67.7815 371.946 67.7815 376.389C67.7815 380.832 71.3834 384.434 75.8266 384.434Z" fill="#FF9800"/>
<path opacity="0.83" d="M123.095 384.434C127.538 384.434 131.14 380.832 131.14 376.389C131.14 371.946 127.538 368.344 123.095 368.344C118.652 368.344 115.05 371.946 115.05 376.389C115.05 380.832 118.652 384.434 123.095 384.434Z" fill="#FF9800"/>
<path opacity="0.83" d="M170.352 384.434C174.795 384.434 178.397 380.832 178.397 376.389C178.397 371.946 174.795 368.344 170.352 368.344C165.909 368.344 162.307 371.946 162.307 376.389C162.307 380.832 165.909 384.434 170.352 384.434Z" fill="#FF9800"/>
<path opacity="0.83" d="M217.616 384.434C222.059 384.434 225.661 380.832 225.661 376.389C225.661 371.946 222.059 368.344 217.616 368.344C213.173 368.344 209.571 371.946 209.571 376.389C209.571 380.832 213.173 384.434 217.616 384.434Z" fill="#FF9800"/>
<path opacity="0.83" d="M264.885 384.434C269.328 384.434 272.93 380.832 272.93 376.389C272.93 371.946 269.328 368.344 264.885 368.344C260.441 368.344 256.84 371.946 256.84 376.389C256.84 380.832 260.441 384.434 264.885 384.434Z" fill="#FF9800"/>
<path opacity="0.83" d="M312.152 384.434C316.596 384.434 320.198 380.832 320.198 376.389C320.198 371.946 316.596 368.344 312.152 368.344C307.709 368.344 304.107 371.946 304.107 376.389C304.107 380.832 307.709 384.434 312.152 384.434Z" fill="#FF9800"/>
<path opacity="0.83" d="M359.419 384.434C363.862 384.434 367.464 380.832 367.464 376.389C367.464 371.946 363.862 368.344 359.419 368.344C354.975 368.344 351.374 371.946 351.374 376.389C351.374 380.832 354.975 384.434 359.419 384.434Z" fill="#FF9800"/>
<path opacity="0.83" d="M406.674 384.434C411.117 384.434 414.719 380.832 414.719 376.389C414.719 371.946 411.117 368.344 406.674 368.344C402.231 368.344 398.629 371.946 398.629 376.389C398.629 380.832 402.231 384.434 406.674 384.434Z" fill="#FF9800"/>
<path opacity="0.83" d="M453.94 384.434C458.383 384.434 461.985 380.832 461.985 376.389C461.985 371.946 458.383 368.344 453.94 368.344C449.497 368.344 445.895 371.946 445.895 376.389C445.895 380.832 449.497 384.434 453.94 384.434Z" fill="#FF9800"/>
<path opacity="0.83" d="M501.21 384.434C505.653 384.434 509.255 380.832 509.255 376.389C509.255 371.946 505.653 368.344 501.21 368.344C496.767 368.344 493.165 371.946 493.165 376.389C493.165 380.832 496.767 384.434 501.21 384.434Z" fill="#FF9800"/>
<path opacity="0.83" d="M28.565 423.639C33.0082 423.639 36.6101 420.037 36.6101 415.594C36.6101 411.151 33.0082 407.549 28.565 407.549C24.1219 407.549 20.52 411.151 20.52 415.594C20.52 420.037 24.1219 423.639 28.565 423.639Z" fill="#FF9800"/>
<path opacity="0.83" d="M75.8266 423.639C80.2697 423.639 83.8716 420.037 83.8716 415.594C83.8716 411.151 80.2697 407.549 75.8266 407.549C71.3834 407.549 67.7815 411.151 67.7815 415.594C67.7815 420.037 71.3834 423.639 75.8266 423.639Z" fill="#FF9800"/>
<path opacity="0.83" d="M123.095 423.639C127.538 423.639 131.14 420.037 131.14 415.594C131.14 411.151 127.538 407.549 123.095 407.549C118.652 407.549 115.05 411.151 115.05 415.594C115.05 420.037 118.652 423.639 123.095 423.639Z" fill="#FF9800"/>
<path opacity="0.83" d="M170.352 423.639C174.795 423.639 178.397 420.037 178.397 415.594C178.397 411.151 174.795 407.549 170.352 407.549C165.909 407.549 162.307 411.151 162.307 415.594C162.307 420.037 165.909 423.639 170.352 423.639Z" fill="#FF9800"/>
<path opacity="0.83" d="M217.616 423.639C222.059 423.639 225.661 420.037 225.661 415.594C225.661 411.151 222.059 407.549 217.616 407.549C213.173 407.549 209.571 411.151 209.571 415.594C209.571 420.037 213.173 423.639 217.616 423.639Z" fill="#FF9800"/>
<path opacity="0.83" d="M264.885 423.639C269.328 423.639 272.93 420.037 272.93 415.594C272.93 411.151 269.328 407.549 264.885 407.549C260.441 407.549 256.84 411.151 256.84 415.594C256.84 420.037 260.441 423.639 264.885 423.639Z" fill="#FF9800"/>
<path opacity="0.83" d="M312.152 423.639C316.596 423.639 320.198 420.037 320.198 415.594C320.198 411.151 316.596 407.549 312.152 407.549C307.709 407.549 304.107 411.151 304.107 415.594C304.107 420.037 307.709 423.639 312.152 423.639Z" fill="#FF9800"/>
<path opacity="0.83" d="M359.419 423.639C363.862 423.639 367.464 420.037 367.464 415.594C367.464 411.151 363.862 407.549 359.419 407.549C354.975 407.549 351.374 411.151 351.374 415.594C351.374 420.037 354.975 423.639 359.419 423.639Z" fill="#FF9800"/>
<path opacity="0.83" d="M406.674 423.639C411.117 423.639 414.719 420.037 414.719 415.594C414.719 411.151 411.117 407.549 406.674 407.549C402.231 407.549 398.629 411.151 398.629 415.594C398.629 420.037 402.231 423.639 406.674 423.639Z" fill="#FF9800"/>
<path opacity="0.83" d="M453.94 423.639C458.383 423.639 461.985 420.037 461.985 415.594C461.985 411.151 458.383 407.549 453.94 407.549C449.497 407.549 445.895 411.151 445.895 415.594C445.895 420.037 449.497 423.639 453.94 423.639Z" fill="#FF9800"/>
<path opacity="0.83" d="M501.21 423.639C505.653 423.639 509.255 420.037 509.255 415.594C509.255 411.151 505.653 407.549 501.21 407.549C496.767 407.549 493.165 411.151 493.165 415.594C493.165 420.037 496.767 423.639 501.21 423.639Z" fill="#FF9800"/>
<path opacity="0.83" d="M28.565 462.86C33.0082 462.86 36.6101 459.258 36.6101 454.815C36.6101 450.371 33.0082 446.77 28.565 446.77C24.1219 446.77 20.52 450.371 20.52 454.815C20.52 459.258 24.1219 462.86 28.565 462.86Z" fill="#FF9800"/>
<path opacity="0.83" d="M75.8266 462.86C80.2697 462.86 83.8716 459.258 83.8716 454.815C83.8716 450.371 80.2697 446.77 75.8266 446.77C71.3834 446.77 67.7815 450.371 67.7815 454.815C67.7815 459.258 71.3834 462.86 75.8266 462.86Z" fill="#FF9800"/>
<path opacity="0.83" d="M123.095 462.86C127.538 462.86 131.14 459.258 131.14 454.815C131.14 450.371 127.538 446.77 123.095 446.77C118.652 446.77 115.05 450.371 115.05 454.815C115.05 459.258 118.652 462.86 123.095 462.86Z" fill="#FF9800"/>
<path opacity="0.83" d="M170.352 462.86C174.795 462.86 178.397 459.258 178.397 454.815C178.397 450.371 174.795 446.77 170.352 446.77C165.909 446.77 162.307 450.371 162.307 454.815C162.307 459.258 165.909 462.86 170.352 462.86Z" fill="#FF9800"/>
<path opacity="0.83" d="M217.616 462.86C222.059 462.86 225.661 459.258 225.661 454.815C225.661 450.371 222.059 446.77 217.616 446.77C213.173 446.77 209.571 450.371 209.571 454.815C209.571 459.258 213.173 462.86 217.616 462.86Z" fill="#FF9800"/>
<path opacity="0.83" d="M264.885 462.86C269.328 462.86 272.93 459.258 272.93 454.815C272.93 450.371 269.328 446.77 264.885 446.77C260.441 446.77 256.84 450.371 256.84 454.815C256.84 459.258 260.441 462.86 264.885 462.86Z" fill="#FF9800"/>
<path opacity="0.83" d="M312.152 462.86C316.596 462.86 320.198 459.258 320.198 454.815C320.198 450.371 316.596 446.77 312.152 446.77C307.709 446.77 304.107 450.371 304.107 454.815C304.107 459.258 307.709 462.86 312.152 462.86Z" fill="#FF9800"/>
<path opacity="0.83" d="M359.419 462.86C363.862 462.86 367.464 459.258 367.464 454.815C367.464 450.371 363.862 446.77 359.419 446.77C354.975 446.77 351.374 450.371 351.374 454.815C351.374 459.258 354.975 462.86 359.419 462.86Z" fill="#FF9800"/>
<path opacity="0.83" d="M406.674 462.86C411.117 462.86 414.719 459.258 414.719 454.815C414.719 450.371 411.117 446.77 406.674 446.77C402.231 446.77 398.629 450.371 398.629 454.815C398.629 459.258 402.231 462.86 406.674 462.86Z" fill="#FF9800"/>
<path opacity="0.83" d="M453.94 462.86C458.383 462.86 461.985 459.258 461.985 454.815C461.985 450.371 458.383 446.77 453.94 446.77C449.497 446.77 445.895 450.371 445.895 454.815C445.895 459.258 449.497 462.86 453.94 462.86Z" fill="#FF9800"/>
<path opacity="0.83" d="M501.21 462.86C505.653 462.86 509.255 459.258 509.255 454.815C509.255 450.371 505.653 446.77 501.21 446.77C496.767 446.77 493.165 450.371 493.165 454.815C493.165 459.258 496.767 462.86 501.21 462.86Z" fill="#FF9800"/>
<path opacity="0.83" d="M28.565 502.092C33.0082 502.092 36.6101 498.49 36.6101 494.047C36.6101 489.604 33.0082 486.002 28.565 486.002C24.1219 486.002 20.52 489.604 20.52 494.047C20.52 498.49 24.1219 502.092 28.565 502.092Z" fill="#FF9800"/>
<path opacity="0.83" d="M75.8266 502.092C80.2697 502.092 83.8716 498.49 83.8716 494.047C83.8716 489.604 80.2697 486.002 75.8266 486.002C71.3834 486.002 67.7815 489.604 67.7815 494.047C67.7815 498.49 71.3834 502.092 75.8266 502.092Z" fill="#FF9800"/>
<path opacity="0.83" d="M123.095 502.092C127.538 502.092 131.14 498.49 131.14 494.047C131.14 489.604 127.538 486.002 123.095 486.002C118.652 486.002 115.05 489.604 115.05 494.047C115.05 498.49 118.652 502.092 123.095 502.092Z" fill="#FF9800"/>
<path opacity="0.83" d="M170.352 502.092C174.795 502.092 178.397 498.49 178.397 494.047C178.397 489.604 174.795 486.002 170.352 486.002C165.909 486.002 162.307 489.604 162.307 494.047C162.307 498.49 165.909 502.092 170.352 502.092Z" fill="#FF9800"/>
<path opacity="0.83" d="M217.616 502.092C222.059 502.092 225.661 498.49 225.661 494.047C225.661 489.604 222.059 486.002 217.616 486.002C213.173 486.002 209.571 489.604 209.571 494.047C209.571 498.49 213.173 502.092 217.616 502.092Z" fill="#FF9800"/>
<path opacity="0.83" d="M264.885 502.092C269.328 502.092 272.93 498.49 272.93 494.047C272.93 489.604 269.328 486.002 264.885 486.002C260.441 486.002 256.84 489.604 256.84 494.047C256.84 498.49 260.441 502.092 264.885 502.092Z" fill="#FF9800"/>
<path opacity="0.83" d="M312.152 502.092C316.596 502.092 320.198 498.49 320.198 494.047C320.198 489.604 316.596 486.002 312.152 486.002C307.709 486.002 304.107 489.604 304.107 494.047C304.107 498.49 307.709 502.092 312.152 502.092Z" fill="#FF9800"/>
<path opacity="0.83" d="M359.419 502.092C363.862 502.092 367.464 498.49 367.464 494.047C367.464 489.604 363.862 486.002 359.419 486.002C354.975 486.002 351.374 489.604 351.374 494.047C351.374 498.49 354.975 502.092 359.419 502.092Z" fill="#FF9800"/>
<path opacity="0.83" d="M406.674 502.092C411.117 502.092 414.719 498.49 414.719 494.047C414.719 489.604 411.117 486.002 406.674 486.002C402.231 486.002 398.629 489.604 398.629 494.047C398.629 498.49 402.231 502.092 406.674 502.092Z" fill="#FF9800"/>
<path opacity="0.83" d="M453.94 502.092C458.383 502.092 461.985 498.49 461.985 494.047C461.985 489.604 458.383 486.002 453.94 486.002C449.497 486.002 445.895 489.604 445.895 494.047C445.895 498.49 449.497 502.092 453.94 502.092Z" fill="#FF9800"/>
<path opacity="0.83" d="M501.21 502.092C505.653 502.092 509.255 498.49 509.255 494.047C509.255 489.604 505.653 486.002 501.21 486.002C496.767 486.002 493.165 489.604 493.165 494.047C493.165 498.49 496.767 502.092 501.21 502.092Z" fill="#FF9800"/>
<path opacity="0.83" d="M28.565 541.307C33.0082 541.307 36.6101 537.705 36.6101 533.262C36.6101 528.819 33.0082 525.217 28.565 525.217C24.1219 525.217 20.52 528.819 20.52 533.262C20.52 537.705 24.1219 541.307 28.565 541.307Z" fill="#FF9800"/>
<path opacity="0.83" d="M75.8266 541.307C80.2697 541.307 83.8716 537.705 83.8716 533.262C83.8716 528.819 80.2697 525.217 75.8266 525.217C71.3834 525.217 67.7815 528.819 67.7815 533.262C67.7815 537.705 71.3834 541.307 75.8266 541.307Z" fill="#FF9800"/>
<path opacity="0.83" d="M123.095 541.307C127.538 541.307 131.14 537.705 131.14 533.262C131.14 528.819 127.538 525.217 123.095 525.217C118.652 525.217 115.05 528.819 115.05 533.262C115.05 537.705 118.652 541.307 123.095 541.307Z" fill="#FF9800"/>
<path opacity="0.83" d="M170.352 541.307C174.795 541.307 178.397 537.705 178.397 533.262C178.397 528.819 174.795 525.217 170.352 525.217C165.909 525.217 162.307 528.819 162.307 533.262C162.307 537.705 165.909 541.307 170.352 541.307Z" fill="#FF9800"/>
<path opacity="0.83" d="M217.616 541.307C222.059 541.307 225.661 537.705 225.661 533.262C225.661 528.819 222.059 525.217 217.616 525.217C213.173 525.217 209.571 528.819 209.571 533.262C209.571 537.705 213.173 541.307 217.616 541.307Z" fill="#FF9800"/>
<path opacity="0.83" d="M264.885 541.307C269.328 541.307 272.93 537.705 272.93 533.262C272.93 528.819 269.328 525.217 264.885 525.217C260.441 525.217 256.84 528.819 256.84 533.262C256.84 537.705 260.441 541.307 264.885 541.307Z" fill="#FF9800"/>
<path opacity="0.83" d="M312.152 541.307C316.596 541.307 320.198 537.705 320.198 533.262C320.198 528.819 316.596 525.217 312.152 525.217C307.709 525.217 304.107 528.819 304.107 533.262C304.107 537.705 307.709 541.307 312.152 541.307Z" fill="#FF9800"/>
<path opacity="0.83" d="M359.419 541.307C363.862 541.307 367.464 537.705 367.464 533.262C367.464 528.819 363.862 525.217 359.419 525.217C354.975 525.217 351.374 528.819 351.374 533.262C351.374 537.705 354.975 541.307 359.419 541.307Z" fill="#FF9800"/>
<path opacity="0.83" d="M406.674 541.307C411.117 541.307 414.719 537.705 414.719 533.262C414.719 528.819 411.117 525.217 406.674 525.217C402.231 525.217 398.629 528.819 398.629 533.262C398.629 537.705 402.231 541.307 406.674 541.307Z" fill="#FF9800"/>
<path opacity="0.83" d="M453.94 541.307C458.383 541.307 461.985 537.705 461.985 533.262C461.985 528.819 458.383 525.217 453.94 525.217C449.497 525.217 445.895 528.819 445.895 533.262C445.895 537.705 449.497 541.307 453.94 541.307Z" fill="#FF9800"/>
<path opacity="0.83" d="M501.21 541.307C505.653 541.307 509.255 537.705 509.255 533.262C509.255 528.819 505.653 525.217 501.21 525.217C496.767 525.217 493.165 528.819 493.165 533.262C493.165 537.705 496.767 541.307 501.21 541.307Z" fill="#FF9800"/>
</g>
</g>
<g opacity="0.9">
<g opacity="0.83">
<path opacity="0.83" d="M1618.8 610.114C1623.24 610.114 1626.84 606.512 1626.84 602.069C1626.84 597.625 1623.24 594.023 1618.8 594.023C1614.36 594.023 1610.75 597.625 1610.75 602.069C1610.75 606.512 1614.36 610.114 1618.8 610.114Z" fill="#FF9800"/>
<path opacity="0.83" d="M1666.07 610.114C1670.51 610.114 1674.11 606.512 1674.11 602.069C1674.11 597.625 1670.51 594.023 1666.07 594.023C1661.62 594.023 1658.02 597.625 1658.02 602.069C1658.02 606.512 1661.62 610.114 1666.07 610.114Z" fill="#FF9800"/>
<path opacity="0.83" d="M1713.34 610.114C1717.78 610.114 1721.38 606.512 1721.38 602.069C1721.38 597.625 1717.78 594.023 1713.34 594.023C1708.89 594.023 1705.29 597.625 1705.29 602.069C1705.29 606.512 1708.89 610.114 1713.34 610.114Z" fill="#FF9800"/>
<path opacity="0.83" d="M1760.59 610.114C1765.03 610.114 1768.63 606.512 1768.63 602.069C1768.63 597.625 1765.03 594.023 1760.59 594.023C1756.15 594.023 1752.54 597.625 1752.54 602.069C1752.54 606.512 1756.15 610.114 1760.59 610.114Z" fill="#FF9800"/>
<path opacity="0.83" d="M1807.86 610.114C1812.3 610.114 1815.9 606.512 1815.9 602.069C1815.9 597.625 1812.3 594.023 1807.86 594.023C1803.41 594.023 1799.81 597.625 1799.81 602.069C1799.81 606.512 1803.41 610.114 1807.86 610.114Z" fill="#FF9800"/>
<path opacity="0.83" d="M1855.12 610.114C1859.57 610.114 1863.17 606.512 1863.17 602.069C1863.17 597.625 1859.57 594.023 1855.12 594.023C1850.68 594.023 1847.08 597.625 1847.08 602.069C1847.08 606.512 1850.68 610.114 1855.12 610.114Z" fill="#FF9800"/>
<path opacity="0.83" d="M1902.39 610.114C1906.83 610.114 1910.43 606.512 1910.43 602.069C1910.43 597.625 1906.83 594.023 1902.39 594.023C1897.94 594.023 1894.34 597.625 1894.34 602.069C1894.34 606.512 1897.94 610.114 1902.39 610.114Z" fill="#FF9800"/>
<path opacity="0.83" d="M1618.8 650.338C1623.24 650.338 1626.84 646.736 1626.84 642.293C1626.84 637.85 1623.24 634.248 1618.8 634.248C1614.36 634.248 1610.75 637.85 1610.75 642.293C1610.75 646.736 1614.36 650.338 1618.8 650.338Z" fill="#FF9800"/>
<path opacity="0.83" d="M1666.07 650.338C1670.51 650.338 1674.11 646.736 1674.11 642.293C1674.11 637.85 1670.51 634.248 1666.07 634.248C1661.62 634.248 1658.02 637.85 1658.02 642.293C1658.02 646.736 1661.62 650.338 1666.07 650.338Z" fill="#FF9800"/>
<path opacity="0.83" d="M1713.34 650.338C1717.78 650.338 1721.38 646.736 1721.38 642.293C1721.38 637.85 1717.78 634.248 1713.34 634.248C1708.89 634.248 1705.29 637.85 1705.29 642.293C1705.29 646.736 1708.89 650.338 1713.34 650.338Z" fill="#FF9800"/>
<path opacity="0.83" d="M1760.59 650.338C1765.03 650.338 1768.63 646.736 1768.63 642.293C1768.63 637.85 1765.03 634.248 1760.59 634.248C1756.15 634.248 1752.54 637.85 1752.54 642.293C1752.54 646.736 1756.15 650.338 1760.59 650.338Z" fill="#FF9800"/>
<path opacity="0.83" d="M1807.86 650.338C1812.3 650.338 1815.9 646.736 1815.9 642.293C1815.9 637.85 1812.3 634.248 1807.86 634.248C1803.41 634.248 1799.81 637.85 1799.81 642.293C1799.81 646.736 1803.41 650.338 1807.86 650.338Z" fill="#FF9800"/>
<path opacity="0.83" d="M1855.12 650.338C1859.57 650.338 1863.17 646.736 1863.17 642.293C1863.17 637.85 1859.57 634.248 1855.12 634.248C1850.68 634.248 1847.08 637.85 1847.08 642.293C1847.08 646.736 1850.68 650.338 1855.12 650.338Z" fill="#FF9800"/>
<path opacity="0.83" d="M1902.39 650.338C1906.83 650.338 1910.43 646.736 1910.43 642.293C1910.43 637.85 1906.83 634.248 1902.39 634.248C1897.94 634.248 1894.34 637.85 1894.34 642.293C1894.34 646.736 1897.94 650.338 1902.39 650.338Z" fill="#FF9800"/>
<path opacity="0.83" d="M1618.8 689.561C1623.24 689.561 1626.84 685.959 1626.84 681.516C1626.84 677.073 1623.24 673.471 1618.8 673.471C1614.36 673.471 1610.75 677.073 1610.75 681.516C1610.75 685.959 1614.36 689.561 1618.8 689.561Z" fill="#FF9800"/>
<path opacity="0.83" d="M1666.07 689.561C1670.51 689.561 1674.11 685.959 1674.11 681.516C1674.11 677.073 1670.51 673.471 1666.07 673.471C1661.62 673.471 1658.02 677.073 1658.02 681.516C1658.02 685.959 1661.62 689.561 1666.07 689.561Z" fill="#FF9800"/>
<path opacity="0.83" d="M1713.34 689.561C1717.78 689.561 1721.38 685.959 1721.38 681.516C1721.38 677.073 1717.78 673.471 1713.34 673.471C1708.89 673.471 1705.29 677.073 1705.29 681.516C1705.29 685.959 1708.89 689.561 1713.34 689.561Z" fill="#FF9800"/>
<path opacity="0.83" d="M1760.59 689.561C1765.03 689.561 1768.63 685.959 1768.63 681.516C1768.63 677.073 1765.03 673.471 1760.59 673.471C1756.15 673.471 1752.54 677.073 1752.54 681.516C1752.54 685.959 1756.15 689.561 1760.59 689.561Z" fill="#FF9800"/>
<path opacity="0.83" d="M1807.86 689.561C1812.3 689.561 1815.9 685.959 1815.9 681.516C1815.9 677.073 1812.3 673.471 1807.86 673.471C1803.41 673.471 1799.81 677.073 1799.81 681.516C1799.81 685.959 1803.41 689.561 1807.86 689.561Z" fill="#FF9800"/>
<path opacity="0.83" d="M1855.12 689.561C1859.57 689.561 1863.17 685.959 1863.17 681.516C1863.17 677.073 1859.57 673.471 1855.12 673.471C1850.68 673.471 1847.08 677.073 1847.08 681.516C1847.08 685.959 1850.68 689.561 1855.12 689.561Z" fill="#FF9800"/>
<path opacity="0.83" d="M1902.39 689.561C1906.83 689.561 1910.43 685.959 1910.43 681.516C1910.43 677.073 1906.83 673.471 1902.39 673.471C1897.94 673.471 1894.34 677.073 1894.34 681.516C1894.34 685.959 1897.94 689.561 1902.39 689.561Z" fill="#FF9800"/>
<path opacity="0.83" d="M1618.8 728.789C1623.24 728.789 1626.84 725.187 1626.84 720.744C1626.84 716.301 1623.24 712.699 1618.8 712.699C1614.36 712.699 1610.75 716.301 1610.75 720.744C1610.75 725.187 1614.36 728.789 1618.8 728.789Z" fill="#FF9800"/>
<path opacity="0.83" d="M1666.07 728.789C1670.51 728.789 1674.11 725.187 1674.11 720.744C1674.11 716.301 1670.51 712.699 1666.07 712.699C1661.62 712.699 1658.02 716.301 1658.02 720.744C1658.02 725.187 1661.62 728.789 1666.07 728.789Z" fill="#FF9800"/>
<path opacity="0.83" d="M1713.34 728.789C1717.78 728.789 1721.38 725.187 1721.38 720.744C1721.38 716.301 1717.78 712.699 1713.34 712.699C1708.89 712.699 1705.29 716.301 1705.29 720.744C1705.29 725.187 1708.89 728.789 1713.34 728.789Z" fill="#FF9800"/>
<path opacity="0.83" d="M1760.59 728.789C1765.03 728.789 1768.63 725.187 1768.63 720.744C1768.63 716.301 1765.03 712.699 1760.59 712.699C1756.15 712.699 1752.54 716.301 1752.54 720.744C1752.54 725.187 1756.15 728.789 1760.59 728.789Z" fill="#FF9800"/>
<path opacity="0.83" d="M1807.86 728.789C1812.3 728.789 1815.9 725.187 1815.9 720.744C1815.9 716.301 1812.3 712.699 1807.86 712.699C1803.41 712.699 1799.81 716.301 1799.81 720.744C1799.81 725.187 1803.41 728.789 1807.86 728.789Z" fill="#FF9800"/>
<path opacity="0.83" d="M1855.12 728.789C1859.57 728.789 1863.17 725.187 1863.17 720.744C1863.17 716.301 1859.57 712.699 1855.12 712.699C1850.68 712.699 1847.08 716.301 1847.08 720.744C1847.08 725.187 1850.68 728.789 1855.12 728.789Z" fill="#FF9800"/>
<path opacity="0.83" d="M1902.39 728.789C1906.83 728.789 1910.43 725.187 1910.43 720.744C1910.43 716.301 1906.83 712.699 1902.39 712.699C1897.94 712.699 1894.34 716.301 1894.34 720.744C1894.34 725.187 1897.94 728.789 1902.39 728.789Z" fill="#FF9800"/>
<path opacity="0.83" d="M1618.8 767.988C1623.24 767.988 1626.84 764.387 1626.84 759.943C1626.84 755.5 1623.24 751.898 1618.8 751.898C1614.36 751.898 1610.75 755.5 1610.75 759.943C1610.75 764.387 1614.36 767.988 1618.8 767.988Z" fill="#FF9800"/>
<path opacity="0.83" d="M1666.07 767.988C1670.51 767.988 1674.11 764.387 1674.11 759.943C1674.11 755.5 1670.51 751.898 1666.07 751.898C1661.62 751.898 1658.02 755.5 1658.02 759.943C1658.02 764.387 1661.62 767.988 1666.07 767.988Z" fill="#FF9800"/>
<path opacity="0.83" d="M1713.34 767.988C1717.78 767.988 1721.38 764.387 1721.38 759.943C1721.38 755.5 1717.78 751.898 1713.34 751.898C1708.89 751.898 1705.29 755.5 1705.29 759.943C1705.29 764.387 1708.89 767.988 1713.34 767.988Z" fill="#FF9800"/>
<path opacity="0.83" d="M1760.59 767.988C1765.03 767.988 1768.63 764.387 1768.63 759.943C1768.63 755.5 1765.03 751.898 1760.59 751.898C1756.15 751.898 1752.54 755.5 1752.54 759.943C1752.54 764.387 1756.15 767.988 1760.59 767.988Z" fill="#FF9800"/>
<path opacity="0.83" d="M1807.86 767.988C1812.3 767.988 1815.9 764.387 1815.9 759.943C1815.9 755.5 1812.3 751.898 1807.86 751.898C1803.41 751.898 1799.81 755.5 1799.81 759.943C1799.81 764.387 1803.41 767.988 1807.86 767.988Z" fill="#FF9800"/>
<path opacity="0.83" d="M1855.12 767.988C1859.57 767.988 1863.17 764.387 1863.17 759.943C1863.17 755.5 1859.57 751.898 1855.12 751.898C1850.68 751.898 1847.08 755.5 1847.08 759.943C1847.08 764.387 1850.68 767.988 1855.12 767.988Z" fill="#FF9800"/>
<path opacity="0.83" d="M1902.39 767.988C1906.83 767.988 1910.43 764.387 1910.43 759.943C1910.43 755.5 1906.83 751.898 1902.39 751.898C1897.94 751.898 1894.34 755.5 1894.34 759.943C1894.34 764.387 1897.94 767.988 1902.39 767.988Z" fill="#FF9800"/>
<path opacity="0.83" d="M1618.8 807.213C1623.24 807.213 1626.84 803.611 1626.84 799.168C1626.84 794.725 1623.24 791.123 1618.8 791.123C1614.36 791.123 1610.75 794.725 1610.75 799.168C1610.75 803.611 1614.36 807.213 1618.8 807.213Z" fill="#FF9800"/>
<path opacity="0.83" d="M1666.07 807.213C1670.51 807.213 1674.11 803.611 1674.11 799.168C1674.11 794.725 1670.51 791.123 1666.07 791.123C1661.62 791.123 1658.02 794.725 1658.02 799.168C1658.02 803.611 1661.62 807.213 1666.07 807.213Z" fill="#FF9800"/>
<path opacity="0.83" d="M1713.34 807.213C1717.78 807.213 1721.38 803.611 1721.38 799.168C1721.38 794.725 1717.78 791.123 1713.34 791.123C1708.89 791.123 1705.29 794.725 1705.29 799.168C1705.29 803.611 1708.89 807.213 1713.34 807.213Z" fill="#FF9800"/>
<path opacity="0.83" d="M1760.59 807.213C1765.03 807.213 1768.63 803.611 1768.63 799.168C1768.63 794.725 1765.03 791.123 1760.59 791.123C1756.15 791.123 1752.54 794.725 1752.54 799.168C1752.54 803.611 1756.15 807.213 1760.59 807.213Z" fill="#FF9800"/>
<path opacity="0.83" d="M1807.86 807.213C1812.3 807.213 1815.9 803.611 1815.9 799.168C1815.9 794.725 1812.3 791.123 1807.86 791.123C1803.41 791.123 1799.81 794.725 1799.81 799.168C1799.81 803.611 1803.41 807.213 1807.86 807.213Z" fill="#FF9800"/>
<path opacity="0.83" d="M1855.12 807.213C1859.57 807.213 1863.17 803.611 1863.17 799.168C1863.17 794.725 1859.57 791.123 1855.12 791.123C1850.68 791.123 1847.08 794.725 1847.08 799.168C1847.08 803.611 1850.68 807.213 1855.12 807.213Z" fill="#FF9800"/>
<path opacity="0.83" d="M1902.39 807.213C1906.83 807.213 1910.43 803.611 1910.43 799.168C1910.43 794.725 1906.83 791.123 1902.39 791.123C1897.94 791.123 1894.34 794.725 1894.34 799.168C1894.34 803.611 1897.94 807.213 1902.39 807.213Z" fill="#FF9800"/>
<path opacity="0.83" d="M1618.8 846.432C1623.24 846.432 1626.84 842.83 1626.84 838.387C1626.84 833.944 1623.24 830.342 1618.8 830.342C1614.36 830.342 1610.75 833.944 1610.75 838.387C1610.75 842.83 1614.36 846.432 1618.8 846.432Z" fill="#FF9800"/>
<path opacity="0.83" d="M1666.07 846.432C1670.51 846.432 1674.11 842.83 1674.11 838.387C1674.11 833.944 1670.51 830.342 1666.07 830.342C1661.62 830.342 1658.02 833.944 1658.02 838.387C1658.02 842.83 1661.62 846.432 1666.07 846.432Z" fill="#FF9800"/>
<path opacity="0.83" d="M1713.34 846.432C1717.78 846.432 1721.38 842.83 1721.38 838.387C1721.38 833.944 1717.78 830.342 1713.34 830.342C1708.89 830.342 1705.29 833.944 1705.29 838.387C1705.29 842.83 1708.89 846.432 1713.34 846.432Z" fill="#FF9800"/>
<path opacity="0.83" d="M1760.59 846.432C1765.03 846.432 1768.63 842.83 1768.63 838.387C1768.63 833.944 1765.03 830.342 1760.59 830.342C1756.15 830.342 1752.54 833.944 1752.54 838.387C1752.54 842.83 1756.15 846.432 1760.59 846.432Z" fill="#FF9800"/>
<path opacity="0.83" d="M1807.86 846.432C1812.3 846.432 1815.9 842.83 1815.9 838.387C1815.9 833.944 1812.3 830.342 1807.86 830.342C1803.41 830.342 1799.81 833.944 1799.81 838.387C1799.81 842.83 1803.41 846.432 1807.86 846.432Z" fill="#FF9800"/>
<path opacity="0.83" d="M1855.12 846.432C1859.57 846.432 1863.17 842.83 1863.17 838.387C1863.17 833.944 1859.57 830.342 1855.12 830.342C1850.68 830.342 1847.08 833.944 1847.08 838.387C1847.08 842.83 1850.68 846.432 1855.12 846.432Z" fill="#FF9800"/>
<path opacity="0.83" d="M1902.39 846.432C1906.83 846.432 1910.43 842.83 1910.43 838.387C1910.43 833.944 1906.83 830.342 1902.39 830.342C1897.94 830.342 1894.34 833.944 1894.34 838.387C1894.34 842.83 1897.94 846.432 1902.39 846.432Z" fill="#FF9800"/>
<path opacity="0.83" d="M1618.8 885.664C1623.24 885.664 1626.84 882.062 1626.84 877.619C1626.84 873.176 1623.24 869.574 1618.8 869.574C1614.36 869.574 1610.75 873.176 1610.75 877.619C1610.75 882.062 1614.36 885.664 1618.8 885.664Z" fill="#FF9800"/>
<path opacity="0.83" d="M1666.07 885.664C1670.51 885.664 1674.11 882.062 1674.11 877.619C1674.11 873.176 1670.51 869.574 1666.07 869.574C1661.62 869.574 1658.02 873.176 1658.02 877.619C1658.02 882.062 1661.62 885.664 1666.07 885.664Z" fill="#FF9800"/>
<path opacity="0.83" d="M1713.34 885.664C1717.78 885.664 1721.38 882.062 1721.38 877.619C1721.38 873.176 1717.78 869.574 1713.34 869.574C1708.89 869.574 1705.29 873.176 1705.29 877.619C1705.29 882.062 1708.89 885.664 1713.34 885.664Z" fill="#FF9800"/>
<path opacity="0.83" d="M1760.59 885.664C1765.03 885.664 1768.63 882.062 1768.63 877.619C1768.63 873.176 1765.03 869.574 1760.59 869.574C1756.15 869.574 1752.54 873.176 1752.54 877.619C1752.54 882.062 1756.15 885.664 1760.59 885.664Z" fill="#FF9800"/>
<path opacity="0.83" d="M1807.86 885.664C1812.3 885.664 1815.9 882.062 1815.9 877.619C1815.9 873.176 1812.3 869.574 1807.86 869.574C1803.41 869.574 1799.81 873.176 1799.81 877.619C1799.81 882.062 1803.41 885.664 1807.86 885.664Z" fill="#FF9800"/>
<path opacity="0.83" d="M1855.12 885.664C1859.57 885.664 1863.17 882.062 1863.17 877.619C1863.17 873.176 1859.57 869.574 1855.12 869.574C1850.68 869.574 1847.08 873.176 1847.08 877.619C1847.08 882.062 1850.68 885.664 1855.12 885.664Z" fill="#FF9800"/>
<path opacity="0.83" d="M1902.39 885.664C1906.83 885.664 1910.43 882.062 1910.43 877.619C1910.43 873.176 1906.83 869.574 1902.39 869.574C1897.94 869.574 1894.34 873.176 1894.34 877.619C1894.34 882.062 1897.94 885.664 1902.39 885.664Z" fill="#FF9800"/>
<path opacity="0.83" d="M1618.8 925.889C1623.24 925.889 1626.84 922.287 1626.84 917.844C1626.84 913.401 1623.24 909.799 1618.8 909.799C1614.36 909.799 1610.75 913.401 1610.75 917.844C1610.75 922.287 1614.36 925.889 1618.8 925.889Z" fill="#FF9800"/>
<path opacity="0.83" d="M1666.07 925.889C1670.51 925.889 1674.11 922.287 1674.11 917.844C1674.11 913.401 1670.51 909.799 1666.07 909.799C1661.62 909.799 1658.02 913.401 1658.02 917.844C1658.02 922.287 1661.62 925.889 1666.07 925.889Z" fill="#FF9800"/>
<path opacity="0.83" d="M1713.34 925.889C1717.78 925.889 1721.38 922.287 1721.38 917.844C1721.38 913.401 1717.78 909.799 1713.34 909.799C1708.89 909.799 1705.29 913.401 1705.29 917.844C1705.29 922.287 1708.89 925.889 1713.34 925.889Z" fill="#FF9800"/>
<path opacity="0.83" d="M1760.59 925.889C1765.03 925.889 1768.63 922.287 1768.63 917.844C1768.63 913.401 1765.03 909.799 1760.59 909.799C1756.15 909.799 1752.54 913.401 1752.54 917.844C1752.54 922.287 1756.15 925.889 1760.59 925.889Z" fill="#FF9800"/>
<path opacity="0.83" d="M1807.86 925.889C1812.3 925.889 1815.9 922.287 1815.9 917.844C1815.9 913.401 1812.3 909.799 1807.86 909.799C1803.41 909.799 1799.81 913.401 1799.81 917.844C1799.81 922.287 1803.41 925.889 1807.86 925.889Z" fill="#FF9800"/>
<path opacity="0.83" d="M1855.12 925.889C1859.57 925.889 1863.17 922.287 1863.17 917.844C1863.17 913.401 1859.57 909.799 1855.12 909.799C1850.68 909.799 1847.08 913.401 1847.08 917.844C1847.08 922.287 1850.68 925.889 1855.12 925.889Z" fill="#FF9800"/>
<path opacity="0.83" d="M1902.39 925.889C1906.83 925.889 1910.43 922.287 1910.43 917.844C1910.43 913.401 1906.83 909.799 1902.39 909.799C1897.94 909.799 1894.34 913.401 1894.34 917.844C1894.34 922.287 1897.94 925.889 1902.39 925.889Z" fill="#FF9800"/>
<path opacity="0.83" d="M1618.8 965.108C1623.24 965.108 1626.84 961.506 1626.84 957.063C1626.84 952.619 1623.24 949.018 1618.8 949.018C1614.36 949.018 1610.75 952.619 1610.75 957.063C1610.75 961.506 1614.36 965.108 1618.8 965.108Z" fill="#FF9800"/>
<path opacity="0.83" d="M1666.07 965.108C1670.51 965.108 1674.11 961.506 1674.11 957.063C1674.11 952.619 1670.51 949.018 1666.07 949.018C1661.62 949.018 1658.02 952.619 1658.02 957.063C1658.02 961.506 1661.62 965.108 1666.07 965.108Z" fill="#FF9800"/>
<path opacity="0.83" d="M1713.34 965.108C1717.78 965.108 1721.38 961.506 1721.38 957.063C1721.38 952.619 1717.78 949.018 1713.34 949.018C1708.89 949.018 1705.29 952.619 1705.29 957.063C1705.29 961.506 1708.89 965.108 1713.34 965.108Z" fill="#FF9800"/>
<path opacity="0.83" d="M1760.59 965.108C1765.03 965.108 1768.63 961.506 1768.63 957.063C1768.63 952.619 1765.03 949.018 1760.59 949.018C1756.15 949.018 1752.54 952.619 1752.54 957.063C1752.54 961.506 1756.15 965.108 1760.59 965.108Z" fill="#FF9800"/>
<path opacity="0.83" d="M1807.86 965.108C1812.3 965.108 1815.9 961.506 1815.9 957.063C1815.9 952.619 1812.3 949.018 1807.86 949.018C1803.41 949.018 1799.81 952.619 1799.81 957.063C1799.81 961.506 1803.41 965.108 1807.86 965.108Z" fill="#FF9800"/>
<path opacity="0.83" d="M1855.12 965.108C1859.57 965.108 1863.17 961.506 1863.17 957.063C1863.17 952.619 1859.57 949.018 1855.12 949.018C1850.68 949.018 1847.08 952.619 1847.08 957.063C1847.08 961.506 1850.68 965.108 1855.12 965.108Z" fill="#FF9800"/>
<path opacity="0.83" d="M1902.39 965.108C1906.83 965.108 1910.43 961.506 1910.43 957.063C1910.43 952.619 1906.83 949.018 1902.39 949.018C1897.94 949.018 1894.34 952.619 1894.34 957.063C1894.34 961.506 1897.94 965.108 1902.39 965.108Z" fill="#FF9800"/>
<path opacity="0.83" d="M1618.8 1004.31C1623.24 1004.31 1626.84 1000.71 1626.84 996.27C1626.84 991.827 1623.24 988.225 1618.8 988.225C1614.36 988.225 1610.75 991.827 1610.75 996.27C1610.75 1000.71 1614.36 1004.31 1618.8 1004.31Z" fill="#FF9800"/>
<path opacity="0.83" d="M1666.07 1004.31C1670.51 1004.31 1674.11 1000.71 1674.11 996.27C1674.11 991.827 1670.51 988.225 1666.07 988.225C1661.62 988.225 1658.02 991.827 1658.02 996.27C1658.02 1000.71 1661.62 1004.31 1666.07 1004.31Z" fill="#FF9800"/>
<path opacity="0.83" d="M1713.34 1004.31C1717.78 1004.31 1721.38 1000.71 1721.38 996.27C1721.38 991.827 1717.78 988.225 1713.34 988.225C1708.89 988.225 1705.29 991.827 1705.29 996.27C1705.29 1000.71 1708.89 1004.31 1713.34 1004.31Z" fill="#FF9800"/>
<path opacity="0.83" d="M1760.59 1004.31C1765.03 1004.31 1768.63 1000.71 1768.63 996.27C1768.63 991.827 1765.03 988.225 1760.59 988.225C1756.15 988.225 1752.54 991.827 1752.54 996.27C1752.54 1000.71 1756.15 1004.31 1760.59 1004.31Z" fill="#FF9800"/>
<path opacity="0.83" d="M1807.86 1004.31C1812.3 1004.31 1815.9 1000.71 1815.9 996.27C1815.9 991.827 1812.3 988.225 1807.86 988.225C1803.41 988.225 1799.81 991.827 1799.81 996.27C1799.81 1000.71 1803.41 1004.31 1807.86 1004.31Z" fill="#FF9800"/>
<path opacity="0.83" d="M1855.12 1004.31C1859.57 1004.31 1863.17 1000.71 1863.17 996.27C1863.17 991.827 1859.57 988.225 1855.12 988.225C1850.68 988.225 1847.08 991.827 1847.08 996.27C1847.08 1000.71 1850.68 1004.31 1855.12 1004.31Z" fill="#FF9800"/>
<path opacity="0.83" d="M1902.39 1004.31C1906.83 1004.31 1910.43 1000.71 1910.43 996.27C1910.43 991.827 1906.83 988.225 1902.39 988.225C1897.94 988.225 1894.34 991.827 1894.34 996.27C1894.34 1000.71 1897.94 1004.31 1902.39 1004.31Z" fill="#FF9800"/>
<path opacity="0.83" d="M1618.8 1043.54C1623.24 1043.54 1626.84 1039.93 1626.84 1035.49C1626.84 1031.05 1623.24 1027.45 1618.8 1027.45C1614.36 1027.45 1610.75 1031.05 1610.75 1035.49C1610.75 1039.93 1614.36 1043.54 1618.8 1043.54Z" fill="#FF9800"/>
<path opacity="0.83" d="M1666.07 1043.54C1670.51 1043.54 1674.11 1039.93 1674.11 1035.49C1674.11 1031.05 1670.51 1027.45 1666.07 1027.45C1661.62 1027.45 1658.02 1031.05 1658.02 1035.49C1658.02 1039.93 1661.62 1043.54 1666.07 1043.54Z" fill="#FF9800"/>
<path opacity="0.83" d="M1713.34 1043.54C1717.78 1043.54 1721.38 1039.93 1721.38 1035.49C1721.38 1031.05 1717.78 1027.45 1713.34 1027.45C1708.89 1027.45 1705.29 1031.05 1705.29 1035.49C1705.29 1039.93 1708.89 1043.54 1713.34 1043.54Z" fill="#FF9800"/>
<path opacity="0.83" d="M1760.59 1043.54C1765.03 1043.54 1768.63 1039.93 1768.63 1035.49C1768.63 1031.05 1765.03 1027.45 1760.59 1027.45C1756.15 1027.45 1752.54 1031.05 1752.54 1035.49C1752.54 1039.93 1756.15 1043.54 1760.59 1043.54Z" fill="#FF9800"/>
<path opacity="0.83" d="M1807.86 1043.54C1812.3 1043.54 1815.9 1039.93 1815.9 1035.49C1815.9 1031.05 1812.3 1027.45 1807.86 1027.45C1803.41 1027.45 1799.81 1031.05 1799.81 1035.49C1799.81 1039.93 1803.41 1043.54 1807.86 1043.54Z" fill="#FF9800"/>
<path opacity="0.83" d="M1855.12 1043.54C1859.57 1043.54 1863.17 1039.93 1863.17 1035.49C1863.17 1031.05 1859.57 1027.45 1855.12 1027.45C1850.68 1027.45 1847.08 1031.05 1847.08 1035.49C1847.08 1039.93 1850.68 1043.54 1855.12 1043.54Z" fill="#FF9800"/>
<path opacity="0.83" d="M1902.39 1043.54C1906.83 1043.54 1910.43 1039.93 1910.43 1035.49C1910.43 1031.05 1906.83 1027.45 1902.39 1027.45C1897.94 1027.45 1894.34 1031.05 1894.34 1035.49C1894.34 1039.93 1897.94 1043.54 1902.39 1043.54Z" fill="#FF9800"/>
<path opacity="0.83" d="M1618.8 1082.77C1623.24 1082.77 1626.84 1079.16 1626.84 1074.72C1626.84 1070.28 1623.24 1066.68 1618.8 1066.68C1614.36 1066.68 1610.75 1070.28 1610.75 1074.72C1610.75 1079.16 1614.36 1082.77 1618.8 1082.77Z" fill="#FF9800"/>
<path opacity="0.83" d="M1666.07 1082.77C1670.51 1082.77 1674.11 1079.16 1674.11 1074.72C1674.11 1070.28 1670.51 1066.68 1666.07 1066.68C1661.62 1066.68 1658.02 1070.28 1658.02 1074.72C1658.02 1079.16 1661.62 1082.77 1666.07 1082.77Z" fill="#FF9800"/>
<path opacity="0.83" d="M1713.34 1082.77C1717.78 1082.77 1721.38 1079.16 1721.38 1074.72C1721.38 1070.28 1717.78 1066.68 1713.34 1066.68C1708.89 1066.68 1705.29 1070.28 1705.29 1074.72C1705.29 1079.16 1708.89 1082.77 1713.34 1082.77Z" fill="#FF9800"/>
<path opacity="0.83" d="M1760.59 1082.77C1765.03 1082.77 1768.63 1079.16 1768.63 1074.72C1768.63 1070.28 1765.03 1066.68 1760.59 1066.68C1756.15 1066.68 1752.54 1070.28 1752.54 1074.72C1752.54 1079.16 1756.15 1082.77 1760.59 1082.77Z" fill="#FF9800"/>
<path opacity="0.83" d="M1807.86 1082.77C1812.3 1082.77 1815.9 1079.16 1815.9 1074.72C1815.9 1070.28 1812.3 1066.68 1807.86 1066.68C1803.41 1066.68 1799.81 1070.28 1799.81 1074.72C1799.81 1079.16 1803.41 1082.77 1807.86 1082.77Z" fill="#FF9800"/>
<path opacity="0.83" d="M1855.12 1082.77C1859.57 1082.77 1863.17 1079.16 1863.17 1074.72C1863.17 1070.28 1859.57 1066.68 1855.12 1066.68C1850.68 1066.68 1847.08 1070.28 1847.08 1074.72C1847.08 1079.16 1850.68 1082.77 1855.12 1082.77Z" fill="#FF9800"/>
<path opacity="0.83" d="M1902.39 1082.77C1906.83 1082.77 1910.43 1079.16 1910.43 1074.72C1910.43 1070.28 1906.83 1066.68 1902.39 1066.68C1897.94 1066.68 1894.34 1070.28 1894.34 1074.72C1894.34 1079.16 1897.94 1082.77 1902.39 1082.77Z" fill="#FF9800"/>
<path opacity="0.83" d="M1618.8 1121.98C1623.24 1121.98 1626.84 1118.38 1626.84 1113.94C1626.84 1109.49 1623.24 1105.89 1618.8 1105.89C1614.36 1105.89 1610.75 1109.49 1610.75 1113.94C1610.75 1118.38 1614.36 1121.98 1618.8 1121.98Z" fill="#FF9800"/>
<path opacity="0.83" d="M1666.07 1121.98C1670.51 1121.98 1674.11 1118.38 1674.11 1113.94C1674.11 1109.49 1670.51 1105.89 1666.07 1105.89C1661.62 1105.89 1658.02 1109.49 1658.02 1113.94C1658.02 1118.38 1661.62 1121.98 1666.07 1121.98Z" fill="#FF9800"/>
<path opacity="0.83" d="M1713.34 1121.98C1717.78 1121.98 1721.38 1118.38 1721.38 1113.94C1721.38 1109.49 1717.78 1105.89 1713.34 1105.89C1708.89 1105.89 1705.29 1109.49 1705.29 1113.94C1705.29 1118.38 1708.89 1121.98 1713.34 1121.98Z" fill="#FF9800"/>
<path opacity="0.83" d="M1760.59 1121.98C1765.03 1121.98 1768.63 1118.38 1768.63 1113.94C1768.63 1109.49 1765.03 1105.89 1760.59 1105.89C1756.15 1105.89 1752.54 1109.49 1752.54 1113.94C1752.54 1118.38 1756.15 1121.98 1760.59 1121.98Z" fill="#FF9800"/>
<path opacity="0.83" d="M1807.86 1121.98C1812.3 1121.98 1815.9 1118.38 1815.9 1113.94C1815.9 1109.49 1812.3 1105.89 1807.86 1105.89C1803.41 1105.89 1799.81 1109.49 1799.81 1113.94C1799.81 1118.38 1803.41 1121.98 1807.86 1121.98Z" fill="#FF9800"/>
<path opacity="0.83" d="M1855.12 1121.98C1859.57 1121.98 1863.17 1118.38 1863.17 1113.94C1863.17 1109.49 1859.57 1105.89 1855.12 1105.89C1850.68 1105.89 1847.08 1109.49 1847.08 1113.94C1847.08 1118.38 1850.68 1121.98 1855.12 1121.98Z" fill="#FF9800"/>
<path opacity="0.83" d="M1902.39 1121.98C1906.83 1121.98 1910.43 1118.38 1910.43 1113.94C1910.43 1109.49 1906.83 1105.89 1902.39 1105.89C1897.94 1105.89 1894.34 1109.49 1894.34 1113.94C1894.34 1118.38 1897.94 1121.98 1902.39 1121.98Z" fill="#FF9800"/>
</g>
</g>
<g opacity="0.9">
<g opacity="0.83">
<path opacity="0.83" d="M16.8932 1390.1C21.3363 1390.1 24.9382 1386.5 24.9382 1382.06C24.9382 1377.61 21.3363 1374.01 16.8932 1374.01C12.45 1374.01 8.84814 1377.61 8.84814 1382.06C8.84814 1386.5 12.45 1390.1 16.8932 1390.1Z" fill="#FF9800"/>
<path opacity="0.83" d="M64.1615 1390.1C68.6046 1390.1 72.2065 1386.5 72.2065 1382.06C72.2065 1377.61 68.6046 1374.01 64.1615 1374.01C59.7183 1374.01 56.1165 1377.61 56.1165 1382.06C56.1165 1386.5 59.7183 1390.1 64.1615 1390.1Z" fill="#FF9800"/>
<path opacity="0.83" d="M111.423 1390.1C115.866 1390.1 119.468 1386.5 119.468 1382.06C119.468 1377.61 115.866 1374.01 111.423 1374.01C106.98 1374.01 103.378 1377.61 103.378 1382.06C103.378 1386.5 106.98 1390.1 111.423 1390.1Z" fill="#FF9800"/>
<path opacity="0.83" d="M158.689 1390.1C163.132 1390.1 166.734 1386.5 166.734 1382.06C166.734 1377.61 163.132 1374.01 158.689 1374.01C154.246 1374.01 150.644 1377.61 150.644 1382.06C150.644 1386.5 154.246 1390.1 158.689 1390.1Z" fill="#FF9800"/>
<path opacity="0.83" d="M205.949 1390.1C210.392 1390.1 213.994 1386.5 213.994 1382.06C213.994 1377.61 210.392 1374.01 205.949 1374.01C201.505 1374.01 197.904 1377.61 197.904 1382.06C197.904 1386.5 201.505 1390.1 205.949 1390.1Z" fill="#FF9800"/>
<path opacity="0.83" d="M253.213 1390.1C257.656 1390.1 261.258 1386.5 261.258 1382.06C261.258 1377.61 257.656 1374.01 253.213 1374.01C248.77 1374.01 245.168 1377.61 245.168 1382.06C245.168 1386.5 248.77 1390.1 253.213 1390.1Z" fill="#FF9800"/>
<path opacity="0.83" d="M299.479 1390.1C303.922 1390.1 307.524 1386.5 307.524 1382.06C307.524 1377.61 303.922 1374.01 299.479 1374.01C295.036 1374.01 291.434 1377.61 291.434 1382.06C291.434 1386.5 295.036 1390.1 299.479 1390.1Z" fill="#FF9800"/>
<path opacity="0.83" d="M346.737 1390.1C351.18 1390.1 354.782 1386.5 354.782 1382.06C354.782 1377.61 351.18 1374.01 346.737 1374.01C342.294 1374.01 338.692 1377.61 338.692 1382.06C338.692 1386.5 342.294 1390.1 346.737 1390.1Z" fill="#FF9800"/>
<path opacity="0.83" d="M394 1390.1C398.443 1390.1 402.045 1386.5 402.045 1382.06C402.045 1377.61 398.443 1374.01 394 1374.01C389.557 1374.01 385.955 1377.61 385.955 1382.06C385.955 1386.5 389.557 1390.1 394 1390.1Z" fill="#FF9800"/>
<path opacity="0.83" d="M441.269 1390.1C445.712 1390.1 449.314 1386.5 449.314 1382.06C449.314 1377.61 445.712 1374.01 441.269 1374.01C436.826 1374.01 433.224 1377.61 433.224 1382.06C433.224 1386.5 436.826 1390.1 441.269 1390.1Z" fill="#FF9800"/>
<path opacity="0.83" d="M488.537 1390.1C492.98 1390.1 496.582 1386.5 496.582 1382.06C496.582 1377.61 492.98 1374.01 488.537 1374.01C484.094 1374.01 480.492 1377.61 480.492 1382.06C480.492 1386.5 484.094 1390.1 488.537 1390.1Z" fill="#FF9800"/>
<path opacity="0.83" d="M535.803 1390.1C540.246 1390.1 543.848 1386.5 543.848 1382.06C543.848 1377.61 540.246 1374.01 535.803 1374.01C531.359 1374.01 527.758 1377.61 527.758 1382.06C527.758 1386.5 531.359 1390.1 535.803 1390.1Z" fill="#FF9800"/>
<path opacity="0.83" d="M16.8932 1429.33C21.3363 1429.33 24.9382 1425.73 24.9382 1421.29C24.9382 1416.84 21.3363 1413.24 16.8932 1413.24C12.45 1413.24 8.84814 1416.84 8.84814 1421.29C8.84814 1425.73 12.45 1429.33 16.8932 1429.33Z" fill="#FF9800"/>
<path opacity="0.83" d="M64.1615 1429.33C68.6046 1429.33 72.2065 1425.73 72.2065 1421.29C72.2065 1416.84 68.6046 1413.24 64.1615 1413.24C59.7183 1413.24 56.1165 1416.84 56.1165 1421.29C56.1165 1425.73 59.7183 1429.33 64.1615 1429.33Z" fill="#FF9800"/>
<path opacity="0.83" d="M111.423 1429.33C115.866 1429.33 119.468 1425.73 119.468 1421.29C119.468 1416.84 115.866 1413.24 111.423 1413.24C106.98 1413.24 103.378 1416.84 103.378 1421.29C103.378 1425.73 106.98 1429.33 111.423 1429.33Z" fill="#FF9800"/>
<path opacity="0.83" d="M158.689 1429.33C163.132 1429.33 166.734 1425.73 166.734 1421.29C166.734 1416.84 163.132 1413.24 158.689 1413.24C154.246 1413.24 150.644 1416.84 150.644 1421.29C150.644 1425.73 154.246 1429.33 158.689 1429.33Z" fill="#FF9800"/>
<path opacity="0.83" d="M205.949 1429.33C210.392 1429.33 213.994 1425.73 213.994 1421.29C213.994 1416.84 210.392 1413.24 205.949 1413.24C201.505 1413.24 197.904 1416.84 197.904 1421.29C197.904 1425.73 201.505 1429.33 205.949 1429.33Z" fill="#FF9800"/>
<path opacity="0.83" d="M253.213 1429.33C257.656 1429.33 261.258 1425.73 261.258 1421.29C261.258 1416.84 257.656 1413.24 253.213 1413.24C248.77 1413.24 245.168 1416.84 245.168 1421.29C245.168 1425.73 248.77 1429.33 253.213 1429.33Z" fill="#FF9800"/>
<path opacity="0.83" d="M299.479 1429.33C303.922 1429.33 307.524 1425.73 307.524 1421.29C307.524 1416.84 303.922 1413.24 299.479 1413.24C295.036 1413.24 291.434 1416.84 291.434 1421.29C291.434 1425.73 295.036 1429.33 299.479 1429.33Z" fill="#FF9800"/>
<path opacity="0.83" d="M346.737 1429.33C351.18 1429.33 354.782 1425.73 354.782 1421.29C354.782 1416.84 351.18 1413.24 346.737 1413.24C342.294 1413.24 338.692 1416.84 338.692 1421.29C338.692 1425.73 342.294 1429.33 346.737 1429.33Z" fill="#FF9800"/>
<path opacity="0.83" d="M394 1429.33C398.443 1429.33 402.045 1425.73 402.045 1421.29C402.045 1416.84 398.443 1413.24 394 1413.24C389.557 1413.24 385.955 1416.84 385.955 1421.29C385.955 1425.73 389.557 1429.33 394 1429.33Z" fill="#FF9800"/>
<path opacity="0.83" d="M441.269 1429.33C445.712 1429.33 449.314 1425.73 449.314 1421.29C449.314 1416.84 445.712 1413.24 441.269 1413.24C436.826 1413.24 433.224 1416.84 433.224 1421.29C433.224 1425.73 436.826 1429.33 441.269 1429.33Z" fill="#FF9800"/>
<path opacity="0.83" d="M488.537 1429.33C492.98 1429.33 496.582 1425.73 496.582 1421.29C496.582 1416.84 492.98 1413.24 488.537 1413.24C484.094 1413.24 480.492 1416.84 480.492 1421.29C480.492 1425.73 484.094 1429.33 488.537 1429.33Z" fill="#FF9800"/>
<path opacity="0.83" d="M535.803 1429.33C540.246 1429.33 543.848 1425.73 543.848 1421.29C543.848 1416.84 540.246 1413.24 535.803 1413.24C531.359 1413.24 527.758 1416.84 527.758 1421.29C527.758 1425.73 531.359 1429.33 535.803 1429.33Z" fill="#FF9800"/>
<path opacity="0.83" d="M16.8932 1468.55C21.3363 1468.55 24.9382 1464.95 24.9382 1460.5C24.9382 1456.06 21.3363 1452.46 16.8932 1452.46C12.45 1452.46 8.84814 1456.06 8.84814 1460.5C8.84814 1464.95 12.45 1468.55 16.8932 1468.55Z" fill="#FF9800"/>
<path opacity="0.83" d="M64.1615 1468.55C68.6046 1468.55 72.2065 1464.95 72.2065 1460.5C72.2065 1456.06 68.6046 1452.46 64.1615 1452.46C59.7183 1452.46 56.1165 1456.06 56.1165 1460.5C56.1165 1464.95 59.7183 1468.55 64.1615 1468.55Z" fill="#FF9800"/>
<path opacity="0.83" d="M111.423 1468.55C115.866 1468.55 119.468 1464.95 119.468 1460.5C119.468 1456.06 115.866 1452.46 111.423 1452.46C106.98 1452.46 103.378 1456.06 103.378 1460.5C103.378 1464.95 106.98 1468.55 111.423 1468.55Z" fill="#FF9800"/>
<path opacity="0.83" d="M158.689 1468.55C163.132 1468.55 166.734 1464.95 166.734 1460.5C166.734 1456.06 163.132 1452.46 158.689 1452.46C154.246 1452.46 150.644 1456.06 150.644 1460.5C150.644 1464.95 154.246 1468.55 158.689 1468.55Z" fill="#FF9800"/>
<path opacity="0.83" d="M205.949 1468.55C210.392 1468.55 213.994 1464.95 213.994 1460.5C213.994 1456.06 210.392 1452.46 205.949 1452.46C201.505 1452.46 197.904 1456.06 197.904 1460.5C197.904 1464.95 201.505 1468.55 205.949 1468.55Z" fill="#FF9800"/>
<path opacity="0.83" d="M253.213 1468.55C257.656 1468.55 261.258 1464.95 261.258 1460.5C261.258 1456.06 257.656 1452.46 253.213 1452.46C248.77 1452.46 245.168 1456.06 245.168 1460.5C245.168 1464.95 248.77 1468.55 253.213 1468.55Z" fill="#FF9800"/>
<path opacity="0.83" d="M299.479 1468.55C303.922 1468.55 307.524 1464.95 307.524 1460.5C307.524 1456.06 303.922 1452.46 299.479 1452.46C295.036 1452.46 291.434 1456.06 291.434 1460.5C291.434 1464.95 295.036 1468.55 299.479 1468.55Z" fill="#FF9800"/>
<path opacity="0.83" d="M346.737 1468.55C351.18 1468.55 354.782 1464.95 354.782 1460.5C354.782 1456.06 351.18 1452.46 346.737 1452.46C342.294 1452.46 338.692 1456.06 338.692 1460.5C338.692 1464.95 342.294 1468.55 346.737 1468.55Z" fill="#FF9800"/>
<path opacity="0.83" d="M394 1468.55C398.443 1468.55 402.045 1464.95 402.045 1460.5C402.045 1456.06 398.443 1452.46 394 1452.46C389.557 1452.46 385.955 1456.06 385.955 1460.5C385.955 1464.95 389.557 1468.55 394 1468.55Z" fill="#FF9800"/>
<path opacity="0.83" d="M441.269 1468.55C445.712 1468.55 449.314 1464.95 449.314 1460.5C449.314 1456.06 445.712 1452.46 441.269 1452.46C436.826 1452.46 433.224 1456.06 433.224 1460.5C433.224 1464.95 436.826 1468.55 441.269 1468.55Z" fill="#FF9800"/>
<path opacity="0.83" d="M488.537 1468.55C492.98 1468.55 496.582 1464.95 496.582 1460.5C496.582 1456.06 492.98 1452.46 488.537 1452.46C484.094 1452.46 480.492 1456.06 480.492 1460.5C480.492 1464.95 484.094 1468.55 488.537 1468.55Z" fill="#FF9800"/>
<path opacity="0.83" d="M535.803 1468.55C540.246 1468.55 543.848 1464.95 543.848 1460.5C543.848 1456.06 540.246 1452.46 535.803 1452.46C531.359 1452.46 527.758 1456.06 527.758 1460.5C527.758 1464.95 531.359 1468.55 535.803 1468.55Z" fill="#FF9800"/>
<path opacity="0.83" d="M16.8932 1507.75C21.3363 1507.75 24.9382 1504.15 24.9382 1499.71C24.9382 1495.27 21.3363 1491.66 16.8932 1491.66C12.45 1491.66 8.84814 1495.27 8.84814 1499.71C8.84814 1504.15 12.45 1507.75 16.8932 1507.75Z" fill="#FF9800"/>
<path opacity="0.83" d="M64.1615 1507.75C68.6046 1507.75 72.2065 1504.15 72.2065 1499.71C72.2065 1495.27 68.6046 1491.66 64.1615 1491.66C59.7183 1491.66 56.1165 1495.27 56.1165 1499.71C56.1165 1504.15 59.7183 1507.75 64.1615 1507.75Z" fill="#FF9800"/>
<path opacity="0.83" d="M111.423 1507.75C115.866 1507.75 119.468 1504.15 119.468 1499.71C119.468 1495.27 115.866 1491.66 111.423 1491.66C106.98 1491.66 103.378 1495.27 103.378 1499.71C103.378 1504.15 106.98 1507.75 111.423 1507.75Z" fill="#FF9800"/>
<path opacity="0.83" d="M158.689 1507.75C163.132 1507.75 166.734 1504.15 166.734 1499.71C166.734 1495.27 163.132 1491.66 158.689 1491.66C154.246 1491.66 150.644 1495.27 150.644 1499.71C150.644 1504.15 154.246 1507.75 158.689 1507.75Z" fill="#FF9800"/>
<path opacity="0.83" d="M205.949 1507.75C210.392 1507.75 213.994 1504.15 213.994 1499.71C213.994 1495.27 210.392 1491.66 205.949 1491.66C201.505 1491.66 197.904 1495.27 197.904 1499.71C197.904 1504.15 201.505 1507.75 205.949 1507.75Z" fill="#FF9800"/>
<path opacity="0.83" d="M253.213 1507.75C257.656 1507.75 261.258 1504.15 261.258 1499.71C261.258 1495.27 257.656 1491.66 253.213 1491.66C248.77 1491.66 245.168 1495.27 245.168 1499.71C245.168 1504.15 248.77 1507.75 253.213 1507.75Z" fill="#FF9800"/>
<path opacity="0.83" d="M299.479 1507.75C303.922 1507.75 307.524 1504.15 307.524 1499.71C307.524 1495.27 303.922 1491.66 299.479 1491.66C295.036 1491.66 291.434 1495.27 291.434 1499.71C291.434 1504.15 295.036 1507.75 299.479 1507.75Z" fill="#FF9800"/>
<path opacity="0.83" d="M346.737 1507.75C351.18 1507.75 354.782 1504.15 354.782 1499.71C354.782 1495.27 351.18 1491.66 346.737 1491.66C342.294 1491.66 338.692 1495.27 338.692 1499.71C338.692 1504.15 342.294 1507.75 346.737 1507.75Z" fill="#FF9800"/>
<path opacity="0.83" d="M394 1507.75C398.443 1507.75 402.045 1504.15 402.045 1499.71C402.045 1495.27 398.443 1491.66 394 1491.66C389.557 1491.66 385.955 1495.27 385.955 1499.71C385.955 1504.15 389.557 1507.75 394 1507.75Z" fill="#FF9800"/>
<path opacity="0.83" d="M441.269 1507.75C445.712 1507.75 449.314 1504.15 449.314 1499.71C449.314 1495.27 445.712 1491.66 441.269 1491.66C436.826 1491.66 433.224 1495.27 433.224 1499.71C433.224 1504.15 436.826 1507.75 441.269 1507.75Z" fill="#FF9800"/>
<path opacity="0.83" d="M488.537 1507.75C492.98 1507.75 496.582 1504.15 496.582 1499.71C496.582 1495.27 492.98 1491.66 488.537 1491.66C484.094 1491.66 480.492 1495.27 480.492 1499.71C480.492 1504.15 484.094 1507.75 488.537 1507.75Z" fill="#FF9800"/>
<path opacity="0.83" d="M535.803 1507.75C540.246 1507.75 543.848 1504.15 543.848 1499.71C543.848 1495.27 540.246 1491.66 535.803 1491.66C531.359 1491.66 527.758 1495.27 527.758 1499.71C527.758 1504.15 531.359 1507.75 535.803 1507.75Z" fill="#FF9800"/>
<path opacity="0.83" d="M16.8932 1546.98C21.3363 1546.98 24.9382 1543.38 24.9382 1538.94C24.9382 1534.49 21.3363 1530.89 16.8932 1530.89C12.45 1530.89 8.84814 1534.49 8.84814 1538.94C8.84814 1543.38 12.45 1546.98 16.8932 1546.98Z" fill="#FF9800"/>
<path opacity="0.83" d="M64.1615 1546.98C68.6046 1546.98 72.2065 1543.38 72.2065 1538.94C72.2065 1534.49 68.6046 1530.89 64.1615 1530.89C59.7183 1530.89 56.1165 1534.49 56.1165 1538.94C56.1165 1543.38 59.7183 1546.98 64.1615 1546.98Z" fill="#FF9800"/>
<path opacity="0.83" d="M111.423 1546.98C115.866 1546.98 119.468 1543.38 119.468 1538.94C119.468 1534.49 115.866 1530.89 111.423 1530.89C106.98 1530.89 103.378 1534.49 103.378 1538.94C103.378 1543.38 106.98 1546.98 111.423 1546.98Z" fill="#FF9800"/>
<path opacity="0.83" d="M158.689 1546.98C163.132 1546.98 166.734 1543.38 166.734 1538.94C166.734 1534.49 163.132 1530.89 158.689 1530.89C154.246 1530.89 150.644 1534.49 150.644 1538.94C150.644 1543.38 154.246 1546.98 158.689 1546.98Z" fill="#FF9800"/>
<path opacity="0.83" d="M205.949 1546.98C210.392 1546.98 213.994 1543.38 213.994 1538.94C213.994 1534.49 210.392 1530.89 205.949 1530.89C201.505 1530.89 197.904 1534.49 197.904 1538.94C197.904 1543.38 201.505 1546.98 205.949 1546.98Z" fill="#FF9800"/>
<path opacity="0.83" d="M253.213 1546.98C257.656 1546.98 261.258 1543.38 261.258 1538.94C261.258 1534.49 257.656 1530.89 253.213 1530.89C248.77 1530.89 245.168 1534.49 245.168 1538.94C245.168 1543.38 248.77 1546.98 253.213 1546.98Z" fill="#FF9800"/>
<path opacity="0.83" d="M299.479 1546.98C303.922 1546.98 307.524 1543.38 307.524 1538.94C307.524 1534.49 303.922 1530.89 299.479 1530.89C295.036 1530.89 291.434 1534.49 291.434 1538.94C291.434 1543.38 295.036 1546.98 299.479 1546.98Z" fill="#FF9800"/>
<path opacity="0.83" d="M346.737 1546.98C351.18 1546.98 354.782 1543.38 354.782 1538.94C354.782 1534.49 351.18 1530.89 346.737 1530.89C342.294 1530.89 338.692 1534.49 338.692 1538.94C338.692 1543.38 342.294 1546.98 346.737 1546.98Z" fill="#FF9800"/>
<path opacity="0.83" d="M394 1546.98C398.443 1546.98 402.045 1543.38 402.045 1538.94C402.045 1534.49 398.443 1530.89 394 1530.89C389.557 1530.89 385.955 1534.49 385.955 1538.94C385.955 1543.38 389.557 1546.98 394 1546.98Z" fill="#FF9800"/>
<path opacity="0.83" d="M441.269 1546.98C445.712 1546.98 449.314 1543.38 449.314 1538.94C449.314 1534.49 445.712 1530.89 441.269 1530.89C436.826 1530.89 433.224 1534.49 433.224 1538.94C433.224 1543.38 436.826 1546.98 441.269 1546.98Z" fill="#FF9800"/>
<path opacity="0.83" d="M488.537 1546.98C492.98 1546.98 496.582 1543.38 496.582 1538.94C496.582 1534.49 492.98 1530.89 488.537 1530.89C484.094 1530.89 480.492 1534.49 480.492 1538.94C480.492 1543.38 484.094 1546.98 488.537 1546.98Z" fill="#FF9800"/>
<path opacity="0.83" d="M535.803 1546.98C540.246 1546.98 543.848 1543.38 543.848 1538.94C543.848 1534.49 540.246 1530.89 535.803 1530.89C531.359 1530.89 527.758 1534.49 527.758 1538.94C527.758 1543.38 531.359 1546.98 535.803 1546.98Z" fill="#FF9800"/>
<path opacity="0.83" d="M16.8932 1587.2C21.3363 1587.2 24.9382 1583.6 24.9382 1579.16C24.9382 1574.71 21.3363 1571.11 16.8932 1571.11C12.45 1571.11 8.84814 1574.71 8.84814 1579.16C8.84814 1583.6 12.45 1587.2 16.8932 1587.2Z" fill="#FF9800"/>
<path opacity="0.83" d="M64.1615 1587.2C68.6046 1587.2 72.2065 1583.6 72.2065 1579.16C72.2065 1574.71 68.6046 1571.11 64.1615 1571.11C59.7183 1571.11 56.1165 1574.71 56.1165 1579.16C56.1165 1583.6 59.7183 1587.2 64.1615 1587.2Z" fill="#FF9800"/>
<path opacity="0.83" d="M111.423 1587.2C115.866 1587.2 119.468 1583.6 119.468 1579.16C119.468 1574.71 115.866 1571.11 111.423 1571.11C106.98 1571.11 103.378 1574.71 103.378 1579.16C103.378 1583.6 106.98 1587.2 111.423 1587.2Z" fill="#FF9800"/>
<path opacity="0.83" d="M158.689 1587.2C163.132 1587.2 166.734 1583.6 166.734 1579.16C166.734 1574.71 163.132 1571.11 158.689 1571.11C154.246 1571.11 150.644 1574.71 150.644 1579.16C150.644 1583.6 154.246 1587.2 158.689 1587.2Z" fill="#FF9800"/>
<path opacity="0.83" d="M205.949 1587.2C210.392 1587.2 213.994 1583.6 213.994 1579.16C213.994 1574.71 210.392 1571.11 205.949 1571.11C201.505 1571.11 197.904 1574.71 197.904 1579.16C197.904 1583.6 201.505 1587.2 205.949 1587.2Z" fill="#FF9800"/>
<path opacity="0.83" d="M253.213 1587.2C257.656 1587.2 261.258 1583.6 261.258 1579.16C261.258 1574.71 257.656 1571.11 253.213 1571.11C248.77 1571.11 245.168 1574.71 245.168 1579.16C245.168 1583.6 248.77 1587.2 253.213 1587.2Z" fill="#FF9800"/>
<path opacity="0.83" d="M299.479 1587.2C303.922 1587.2 307.524 1583.6 307.524 1579.16C307.524 1574.71 303.922 1571.11 299.479 1571.11C295.036 1571.11 291.434 1574.71 291.434 1579.16C291.434 1583.6 295.036 1587.2 299.479 1587.2Z" fill="#FF9800"/>
<path opacity="0.83" d="M346.737 1587.2C351.18 1587.2 354.782 1583.6 354.782 1579.16C354.782 1574.71 351.18 1571.11 346.737 1571.11C342.294 1571.11 338.692 1574.71 338.692 1579.16C338.692 1583.6 342.294 1587.2 346.737 1587.2Z" fill="#FF9800"/>
<path opacity="0.83" d="M394 1587.2C398.443 1587.2 402.045 1583.6 402.045 1579.16C402.045 1574.71 398.443 1571.11 394 1571.11C389.557 1571.11 385.955 1574.71 385.955 1579.16C385.955 1583.6 389.557 1587.2 394 1587.2Z" fill="#FF9800"/>
<path opacity="0.83" d="M441.269 1587.2C445.712 1587.2 449.314 1583.6 449.314 1579.16C449.314 1574.71 445.712 1571.11 441.269 1571.11C436.826 1571.11 433.224 1574.71 433.224 1579.16C433.224 1583.6 436.826 1587.2 441.269 1587.2Z" fill="#FF9800"/>
<path opacity="0.83" d="M488.537 1587.2C492.98 1587.2 496.582 1583.6 496.582 1579.16C496.582 1574.71 492.98 1571.11 488.537 1571.11C484.094 1571.11 480.492 1574.71 480.492 1579.16C480.492 1583.6 484.094 1587.2 488.537 1587.2Z" fill="#FF9800"/>
<path opacity="0.83" d="M535.803 1587.2C540.246 1587.2 543.848 1583.6 543.848 1579.16C543.848 1574.71 540.246 1571.11 535.803 1571.11C531.359 1571.11 527.758 1574.71 527.758 1579.16C527.758 1583.6 531.359 1587.2 535.803 1587.2Z" fill="#FF9800"/>
<path opacity="0.83" d="M16.8932 1626.42C21.3363 1626.42 24.9382 1622.82 24.9382 1618.38C24.9382 1613.93 21.3363 1610.33 16.8932 1610.33C12.45 1610.33 8.84814 1613.93 8.84814 1618.38C8.84814 1622.82 12.45 1626.42 16.8932 1626.42Z" fill="#FF9800"/>
<path opacity="0.83" d="M64.1615 1626.42C68.6046 1626.42 72.2065 1622.82 72.2065 1618.38C72.2065 1613.93 68.6046 1610.33 64.1615 1610.33C59.7183 1610.33 56.1165 1613.93 56.1165 1618.38C56.1165 1622.82 59.7183 1626.42 64.1615 1626.42Z" fill="#FF9800"/>
<path opacity="0.83" d="M111.423 1626.42C115.866 1626.42 119.468 1622.82 119.468 1618.38C119.468 1613.93 115.866 1610.33 111.423 1610.33C106.98 1610.33 103.378 1613.93 103.378 1618.38C103.378 1622.82 106.98 1626.42 111.423 1626.42Z" fill="#FF9800"/>
<path opacity="0.83" d="M158.689 1626.42C163.132 1626.42 166.734 1622.82 166.734 1618.38C166.734 1613.93 163.132 1610.33 158.689 1610.33C154.246 1610.33 150.644 1613.93 150.644 1618.38C150.644 1622.82 154.246 1626.42 158.689 1626.42Z" fill="#FF9800"/>
<path opacity="0.83" d="M205.949 1626.42C210.392 1626.42 213.994 1622.82 213.994 1618.38C213.994 1613.93 210.392 1610.33 205.949 1610.33C201.505 1610.33 197.904 1613.93 197.904 1618.38C197.904 1622.82 201.505 1626.42 205.949 1626.42Z" fill="#FF9800"/>
<path opacity="0.83" d="M253.213 1626.42C257.656 1626.42 261.258 1622.82 261.258 1618.38C261.258 1613.93 257.656 1610.33 253.213 1610.33C248.77 1610.33 245.168 1613.93 245.168 1618.38C245.168 1622.82 248.77 1626.42 253.213 1626.42Z" fill="#FF9800"/>
<path opacity="0.83" d="M299.479 1626.42C303.922 1626.42 307.524 1622.82 307.524 1618.38C307.524 1613.93 303.922 1610.33 299.479 1610.33C295.036 1610.33 291.434 1613.93 291.434 1618.38C291.434 1622.82 295.036 1626.42 299.479 1626.42Z" fill="#FF9800"/>
<path opacity="0.83" d="M346.737 1626.42C351.18 1626.42 354.782 1622.82 354.782 1618.38C354.782 1613.93 351.18 1610.33 346.737 1610.33C342.294 1610.33 338.692 1613.93 338.692 1618.38C338.692 1622.82 342.294 1626.42 346.737 1626.42Z" fill="#FF9800"/>
<path opacity="0.83" d="M394 1626.42C398.443 1626.42 402.045 1622.82 402.045 1618.38C402.045 1613.93 398.443 1610.33 394 1610.33C389.557 1610.33 385.955 1613.93 385.955 1618.38C385.955 1622.82 389.557 1626.42 394 1626.42Z" fill="#FF9800"/>
<path opacity="0.83" d="M441.269 1626.42C445.712 1626.42 449.314 1622.82 449.314 1618.38C449.314 1613.93 445.712 1610.33 441.269 1610.33C436.826 1610.33 433.224 1613.93 433.224 1618.38C433.224 1622.82 436.826 1626.42 441.269 1626.42Z" fill="#FF9800"/>
<path opacity="0.83" d="M488.537 1626.42C492.98 1626.42 496.582 1622.82 496.582 1618.38C496.582 1613.93 492.98 1610.33 488.537 1610.33C484.094 1610.33 480.492 1613.93 480.492 1618.38C480.492 1622.82 484.094 1626.42 488.537 1626.42Z" fill="#FF9800"/>
<path opacity="0.83" d="M535.803 1626.42C540.246 1626.42 543.848 1622.82 543.848 1618.38C543.848 1613.93 540.246 1610.33 535.803 1610.33C531.359 1610.33 527.758 1613.93 527.758 1618.38C527.758 1622.82 531.359 1626.42 535.803 1626.42Z" fill="#FF9800"/>
<path opacity="0.83" d="M16.8932 1665.65C21.3363 1665.65 24.9382 1662.05 24.9382 1657.61C24.9382 1653.16 21.3363 1649.56 16.8932 1649.56C12.45 1649.56 8.84814 1653.16 8.84814 1657.61C8.84814 1662.05 12.45 1665.65 16.8932 1665.65Z" fill="#FF9800"/>
<path opacity="0.83" d="M64.1615 1665.65C68.6046 1665.65 72.2065 1662.05 72.2065 1657.61C72.2065 1653.16 68.6046 1649.56 64.1615 1649.56C59.7183 1649.56 56.1165 1653.16 56.1165 1657.61C56.1165 1662.05 59.7183 1665.65 64.1615 1665.65Z" fill="#FF9800"/>
<path opacity="0.83" d="M111.423 1665.65C115.866 1665.65 119.468 1662.05 119.468 1657.61C119.468 1653.16 115.866 1649.56 111.423 1649.56C106.98 1649.56 103.378 1653.16 103.378 1657.61C103.378 1662.05 106.98 1665.65 111.423 1665.65Z" fill="#FF9800"/>
<path opacity="0.83" d="M158.689 1665.65C163.132 1665.65 166.734 1662.05 166.734 1657.61C166.734 1653.16 163.132 1649.56 158.689 1649.56C154.246 1649.56 150.644 1653.16 150.644 1657.61C150.644 1662.05 154.246 1665.65 158.689 1665.65Z" fill="#FF9800"/>
<path opacity="0.83" d="M205.949 1665.65C210.392 1665.65 213.994 1662.05 213.994 1657.61C213.994 1653.16 210.392 1649.56 205.949 1649.56C201.505 1649.56 197.904 1653.16 197.904 1657.61C197.904 1662.05 201.505 1665.65 205.949 1665.65Z" fill="#FF9800"/>
<path opacity="0.83" d="M253.213 1665.65C257.656 1665.65 261.258 1662.05 261.258 1657.61C261.258 1653.16 257.656 1649.56 253.213 1649.56C248.77 1649.56 245.168 1653.16 245.168 1657.61C245.168 1662.05 248.77 1665.65 253.213 1665.65Z" fill="#FF9800"/>
<path opacity="0.83" d="M299.479 1665.65C303.922 1665.65 307.524 1662.05 307.524 1657.61C307.524 1653.16 303.922 1649.56 299.479 1649.56C295.036 1649.56 291.434 1653.16 291.434 1657.61C291.434 1662.05 295.036 1665.65 299.479 1665.65Z" fill="#FF9800"/>
<path opacity="0.83" d="M346.737 1665.65C351.18 1665.65 354.782 1662.05 354.782 1657.61C354.782 1653.16 351.18 1649.56 346.737 1649.56C342.294 1649.56 338.692 1653.16 338.692 1657.61C338.692 1662.05 342.294 1665.65 346.737 1665.65Z" fill="#FF9800"/>
<path opacity="0.83" d="M394 1665.65C398.443 1665.65 402.045 1662.05 402.045 1657.61C402.045 1653.16 398.443 1649.56 394 1649.56C389.557 1649.56 385.955 1653.16 385.955 1657.61C385.955 1662.05 389.557 1665.65 394 1665.65Z" fill="#FF9800"/>
<path opacity="0.83" d="M441.269 1665.65C445.712 1665.65 449.314 1662.05 449.314 1657.61C449.314 1653.16 445.712 1649.56 441.269 1649.56C436.826 1649.56 433.224 1653.16 433.224 1657.61C433.224 1662.05 436.826 1665.65 441.269 1665.65Z" fill="#FF9800"/>
<path opacity="0.83" d="M488.537 1665.65C492.98 1665.65 496.582 1662.05 496.582 1657.61C496.582 1653.16 492.98 1649.56 488.537 1649.56C484.094 1649.56 480.492 1653.16 480.492 1657.61C480.492 1662.05 484.094 1665.65 488.537 1665.65Z" fill="#FF9800"/>
<path opacity="0.83" d="M535.803 1665.65C540.246 1665.65 543.848 1662.05 543.848 1657.61C543.848 1653.16 540.246 1649.56 535.803 1649.56C531.359 1649.56 527.758 1653.16 527.758 1657.61C527.758 1662.05 531.359 1665.65 535.803 1665.65Z" fill="#FF9800"/>
<path opacity="0.83" d="M16.8932 1704.87C21.3363 1704.87 24.9382 1701.27 24.9382 1696.83C24.9382 1692.38 21.3363 1688.78 16.8932 1688.78C12.45 1688.78 8.84814 1692.38 8.84814 1696.83C8.84814 1701.27 12.45 1704.87 16.8932 1704.87Z" fill="#FF9800"/>
<path opacity="0.83" d="M64.1615 1704.87C68.6046 1704.87 72.2065 1701.27 72.2065 1696.83C72.2065 1692.38 68.6046 1688.78 64.1615 1688.78C59.7183 1688.78 56.1165 1692.38 56.1165 1696.83C56.1165 1701.27 59.7183 1704.87 64.1615 1704.87Z" fill="#FF9800"/>
<path opacity="0.83" d="M111.423 1704.87C115.866 1704.87 119.468 1701.27 119.468 1696.83C119.468 1692.38 115.866 1688.78 111.423 1688.78C106.98 1688.78 103.378 1692.38 103.378 1696.83C103.378 1701.27 106.98 1704.87 111.423 1704.87Z" fill="#FF9800"/>
<path opacity="0.83" d="M158.689 1704.87C163.132 1704.87 166.734 1701.27 166.734 1696.83C166.734 1692.38 163.132 1688.78 158.689 1688.78C154.246 1688.78 150.644 1692.38 150.644 1696.83C150.644 1701.27 154.246 1704.87 158.689 1704.87Z" fill="#FF9800"/>
<path opacity="0.83" d="M205.949 1704.87C210.392 1704.87 213.994 1701.27 213.994 1696.83C213.994 1692.38 210.392 1688.78 205.949 1688.78C201.505 1688.78 197.904 1692.38 197.904 1696.83C197.904 1701.27 201.505 1704.87 205.949 1704.87Z" fill="#FF9800"/>
<path opacity="0.83" d="M253.213 1704.87C257.656 1704.87 261.258 1701.27 261.258 1696.83C261.258 1692.38 257.656 1688.78 253.213 1688.78C248.77 1688.78 245.168 1692.38 245.168 1696.83C245.168 1701.27 248.77 1704.87 253.213 1704.87Z" fill="#FF9800"/>
<path opacity="0.83" d="M299.479 1704.87C303.922 1704.87 307.524 1701.27 307.524 1696.83C307.524 1692.38 303.922 1688.78 299.479 1688.78C295.036 1688.78 291.434 1692.38 291.434 1696.83C291.434 1701.27 295.036 1704.87 299.479 1704.87Z" fill="#FF9800"/>
<path opacity="0.83" d="M346.737 1704.87C351.18 1704.87 354.782 1701.27 354.782 1696.83C354.782 1692.38 351.18 1688.78 346.737 1688.78C342.294 1688.78 338.692 1692.38 338.692 1696.83C338.692 1701.27 342.294 1704.87 346.737 1704.87Z" fill="#FF9800"/>
<path opacity="0.83" d="M394 1704.87C398.443 1704.87 402.045 1701.27 402.045 1696.83C402.045 1692.38 398.443 1688.78 394 1688.78C389.557 1688.78 385.955 1692.38 385.955 1696.83C385.955 1701.27 389.557 1704.87 394 1704.87Z" fill="#FF9800"/>
<path opacity="0.83" d="M441.269 1704.87C445.712 1704.87 449.314 1701.27 449.314 1696.83C449.314 1692.38 445.712 1688.78 441.269 1688.78C436.826 1688.78 433.224 1692.38 433.224 1696.83C433.224 1701.27 436.826 1704.87 441.269 1704.87Z" fill="#FF9800"/>
<path opacity="0.83" d="M488.537 1704.87C492.98 1704.87 496.582 1701.27 496.582 1696.83C496.582 1692.38 492.98 1688.78 488.537 1688.78C484.094 1688.78 480.492 1692.38 480.492 1696.83C480.492 1701.27 484.094 1704.87 488.537 1704.87Z" fill="#FF9800"/>
<path opacity="0.83" d="M535.803 1704.87C540.246 1704.87 543.848 1701.27 543.848 1696.83C543.848 1692.38 540.246 1688.78 535.803 1688.78C531.359 1688.78 527.758 1692.38 527.758 1696.83C527.758 1701.27 531.359 1704.87 535.803 1704.87Z" fill="#FF9800"/>
<path opacity="0.83" d="M16.8932 1744.08C21.3363 1744.08 24.9382 1740.48 24.9382 1736.04C24.9382 1731.59 21.3363 1727.99 16.8932 1727.99C12.45 1727.99 8.84814 1731.59 8.84814 1736.04C8.84814 1740.48 12.45 1744.08 16.8932 1744.08Z" fill="#FF9800"/>
<path opacity="0.83" d="M64.1615 1744.08C68.6046 1744.08 72.2065 1740.48 72.2065 1736.04C72.2065 1731.59 68.6046 1727.99 64.1615 1727.99C59.7183 1727.99 56.1165 1731.59 56.1165 1736.04C56.1165 1740.48 59.7183 1744.08 64.1615 1744.08Z" fill="#FF9800"/>
<path opacity="0.83" d="M111.423 1744.08C115.866 1744.08 119.468 1740.48 119.468 1736.04C119.468 1731.59 115.866 1727.99 111.423 1727.99C106.98 1727.99 103.378 1731.59 103.378 1736.04C103.378 1740.48 106.98 1744.08 111.423 1744.08Z" fill="#FF9800"/>
<path opacity="0.83" d="M158.689 1744.08C163.132 1744.08 166.734 1740.48 166.734 1736.04C166.734 1731.59 163.132 1727.99 158.689 1727.99C154.246 1727.99 150.644 1731.59 150.644 1736.04C150.644 1740.48 154.246 1744.08 158.689 1744.08Z" fill="#FF9800"/>
<path opacity="0.83" d="M205.949 1744.08C210.392 1744.08 213.994 1740.48 213.994 1736.04C213.994 1731.59 210.392 1727.99 205.949 1727.99C201.505 1727.99 197.904 1731.59 197.904 1736.04C197.904 1740.48 201.505 1744.08 205.949 1744.08Z" fill="#FF9800"/>
<path opacity="0.83" d="M253.213 1744.08C257.656 1744.08 261.258 1740.48 261.258 1736.04C261.258 1731.59 257.656 1727.99 253.213 1727.99C248.77 1727.99 245.168 1731.59 245.168 1736.04C245.168 1740.48 248.77 1744.08 253.213 1744.08Z" fill="#FF9800"/>
<path opacity="0.83" d="M299.479 1744.08C303.922 1744.08 307.524 1740.48 307.524 1736.04C307.524 1731.59 303.922 1727.99 299.479 1727.99C295.036 1727.99 291.434 1731.59 291.434 1736.04C291.434 1740.48 295.036 1744.08 299.479 1744.08Z" fill="#FF9800"/>
<path opacity="0.83" d="M346.737 1744.08C351.18 1744.08 354.782 1740.48 354.782 1736.04C354.782 1731.59 351.18 1727.99 346.737 1727.99C342.294 1727.99 338.692 1731.59 338.692 1736.04C338.692 1740.48 342.294 1744.08 346.737 1744.08Z" fill="#FF9800"/>
<path opacity="0.83" d="M394 1744.08C398.443 1744.08 402.045 1740.48 402.045 1736.04C402.045 1731.59 398.443 1727.99 394 1727.99C389.557 1727.99 385.955 1731.59 385.955 1736.04C385.955 1740.48 389.557 1744.08 394 1744.08Z" fill="#FF9800"/>
<path opacity="0.83" d="M441.269 1744.08C445.712 1744.08 449.314 1740.48 449.314 1736.04C449.314 1731.59 445.712 1727.99 441.269 1727.99C436.826 1727.99 433.224 1731.59 433.224 1736.04C433.224 1740.48 436.826 1744.08 441.269 1744.08Z" fill="#FF9800"/>
<path opacity="0.83" d="M488.537 1744.08C492.98 1744.08 496.582 1740.48 496.582 1736.04C496.582 1731.59 492.98 1727.99 488.537 1727.99C484.094 1727.99 480.492 1731.59 480.492 1736.04C480.492 1740.48 484.094 1744.08 488.537 1744.08Z" fill="#FF9800"/>
<path opacity="0.83" d="M535.803 1744.08C540.246 1744.08 543.848 1740.48 543.848 1736.04C543.848 1731.59 540.246 1727.99 535.803 1727.99C531.359 1727.99 527.758 1731.59 527.758 1736.04C527.758 1740.48 531.359 1744.08 535.803 1744.08Z" fill="#FF9800"/>
</g>
</g>
</g>
</svg>
