<svg width="42" height="38" viewBox="0 0 42 38" fill="none" xmlns="http://www.w3.org/2000/svg">
<path d="M41.4 0.3C41.1 0 40.5 0 40.2 0L5.7 9C4.95 9.3 4.5 9.9 4.5 10.5V24C4.5 24.75 4.95 25.35 5.7 25.5L9 26.25V36C9 36.9 9.6 37.5 10.5 37.5H15C15.9 37.5 16.5 36.9 16.5 36V27.9L40.2 33.15H40.5C40.8 33.15 41.25 33 41.4 32.85C41.7 32.55 42 32.1 42 31.65V1.5C42 1.05 41.85 0.6 41.4 0.3ZM13.5 27.15V34.5H12V26.85L12.6 27L13.5 27.15ZM39 29.85L13.2 24L10.8 23.4L7.5 22.8V11.7L39 3.45V29.85Z" fill="#404040" fill-opacity="0.5"/>
<path d="M1.5 10.5C0.6 10.5 0 11.1 0 12V22.5C0 23.4 0.6 24 1.5 24C2.4 24 3 23.4 3 22.5V12C3 11.1 2.4 10.5 1.5 10.5Z" fill="#404040" fill-opacity="0.5"/>
</svg>
