<svg width="11" height="15" viewBox="0 0 11 15" fill="none" xmlns="http://www.w3.org/2000/svg">
<path opacity="0.5" d="M0.32 13.94V0.7C1.38667 0.513333 2.7 0.42 4.26 0.42C6.04667 0.42 7.38 0.673333 8.26 1.18C9.32667 1.75333 9.86 2.64 9.86 3.84C9.86 4.45333 9.67333 5.01333 9.3 5.52C8.92667 6.02667 8.37333 6.42 7.64 6.7V6.74C8.44 6.95333 9.08667 7.34667 9.58 7.92C10.0733 8.49333 10.32 9.2 10.32 10.04C10.32 11.2 9.85333 12.16 8.92 12.92C7.89333 13.7333 6.12667 14.14 3.62 14.14C2.32667 14.14 1.22667 14.0733 0.32 13.94ZM3.34 2.72V5.86H4.34C5.14 5.86 5.74667 5.71333 6.16 5.42C6.58667 5.11333 6.8 4.70667 6.8 4.2C6.8 3.16 6.08 2.64 4.64 2.64C4.09333 2.64 3.66 2.66667 3.34 2.72ZM3.34 8.04V11.84C3.54 11.8667 3.93333 11.88 4.52 11.88C5.28 11.88 5.9 11.72 6.38 11.4C6.87333 11.08 7.12 10.5867 7.12 9.92C7.12 9.28 6.86667 8.80667 6.36 8.5C5.85333 8.19333 5.19333 8.04 4.38 8.04H3.34Z" fill="black"/>
</svg>
