<svg width="33" height="35" viewBox="0 0 33 35" fill="none" xmlns="http://www.w3.org/2000/svg">
<g opacity="0.5">
<path d="M8.64286 0C8.21071 0 7.85714 0.357955 7.85714 0.795455V4.49431C6.71786 4.85227 5.89286 5.88636 5.89286 7.15909C5.89286 8.67045 7.15 9.94318 8.64286 9.94318C10.1357 9.94318 11.3929 8.67045 11.3929 7.15909C11.3929 5.92614 10.5679 4.85227 9.42857 4.49431V0.795455C9.42857 0.357955 9.075 0 8.64286 0ZM24.3571 0C23.925 0 23.5714 0.357955 23.5714 0.795455V4.49431C22.4321 4.85227 21.6071 5.88636 21.6071 7.15909C21.6071 8.67045 22.8643 9.94318 24.3571 9.94318C25.85 9.94318 27.1071 8.67045 27.1071 7.15909C27.1071 5.92614 26.2821 4.85227 25.1429 4.49431V0.795455C25.1429 0.357955 24.7893 0 24.3571 0ZM3.92857 1.59091C1.76786 1.59091 0 3.38068 0 5.56818V30.983C0 33.1705 1.76786 34.9602 3.92857 34.9602H29.0714C31.2321 34.9602 33 33.1705 33 30.983V5.56818C33 3.38068 31.2321 1.59091 29.0714 1.59091H26.7143C26.2821 1.59091 25.9286 1.94886 25.9286 2.38636C25.9286 2.82386 26.3214 3.18182 26.7143 3.18182H29.0714C30.4071 3.18182 31.4286 4.25568 31.4286 5.56818V11.1364H1.57143V5.56818C1.57143 4.21591 2.63214 3.18182 3.92857 3.18182H6.28571C6.71786 3.18182 7.07143 2.82386 7.07143 2.38636C7.07143 1.94886 6.67857 1.59091 6.28571 1.59091H3.92857ZM10.9214 1.59091C10.5286 1.59091 10.1357 1.98863 10.175 2.42613C10.175 2.82385 10.5679 3.22159 11 3.18182H22C22.4321 3.18182 22.7857 2.82386 22.7857 2.38636C22.7857 1.94886 22.3929 1.59091 22 1.59091H10.9214ZM8.64286 5.96591C9.31071 5.96591 9.82143 6.48295 9.82143 7.15909C9.82143 7.83523 9.31071 8.35227 8.64286 8.35227C7.975 8.35227 7.46429 7.83523 7.46429 7.15909C7.46429 6.48295 7.975 5.96591 8.64286 5.96591ZM24.3571 5.96591C25.025 5.96591 25.5357 6.48295 25.5357 7.15909C25.5357 7.83523 25.025 8.35227 24.3571 8.35227C23.6893 8.35227 23.1786 7.83523 23.1786 7.15909C23.1786 6.48295 23.6893 5.96591 24.3571 5.96591ZM1.57143 12.7273H31.4286V31.0227C31.4286 32.375 30.3679 33.4091 29.0714 33.4091H3.92857C2.59286 33.4091 1.57143 32.3352 1.57143 31.0227V12.7273ZM16.5 17.1023C16.0679 17.1023 15.7143 17.4602 15.7143 17.8977V22.6705H11C10.5679 22.6705 10.2143 23.0284 10.2143 23.4659C10.2143 23.9034 10.5679 24.2614 11 24.2614H15.7143V29.0341C15.7143 29.4716 16.0679 29.8295 16.5 29.8295C16.9321 29.8295 17.2857 29.4716 17.2857 29.0341V24.2614H22C22.4321 24.2614 22.7857 23.9034 22.7857 23.4659C22.7857 23.0284 22.4321 22.6705 22 22.6705H17.2857V17.8977C17.2857 17.4602 16.9321 17.1023 16.5 17.1023Z" fill="#404040"/>
</g>
</svg>
