<svg width="30" height="28" viewBox="0 0 30 28" fill="none" xmlns="http://www.w3.org/2000/svg">
<path d="M18.7275 10.4546C19.3802 10.4546 19.9093 9.92546 19.9093 9.27276C19.9093 8.62006 19.3802 8.09094 18.7275 8.09094C18.0748 8.09094 17.5457 8.62006 17.5457 9.27276C17.5457 9.92546 18.0748 10.4546 18.7275 10.4546Z" fill="#9F9F9F"/>
<path d="M13.9998 10.4546C14.6525 10.4546 15.1816 9.92546 15.1816 9.27276C15.1816 8.62006 14.6525 8.09094 13.9998 8.09094C13.3471 8.09094 12.818 8.62006 12.818 9.27276C12.818 9.92546 13.3471 10.4546 13.9998 10.4546Z" fill="#9F9F9F"/>
<path d="M23.4545 10.4546C24.1072 10.4546 24.6363 9.92546 24.6363 9.27276C24.6363 8.62006 24.1072 8.09094 23.4545 8.09094C22.8018 8.09094 22.2727 8.62006 22.2727 9.27276C22.2727 9.92546 22.8018 10.4546 23.4545 10.4546Z" fill="#9F9F9F"/>
<path d="M27.5907 0.9H9.86343C8.80365 0.9 7.9907 1.71295 7.9907 2.77273V15.7727C7.9907 16.8325 8.80365 17.6455 9.86343 17.6455H24.9493L28.2882 20.9844C28.3532 21.0493 28.4221 21.1021 28.5029 21.138C28.5842 21.1741 28.6722 21.1909 28.7725 21.1909H28.7742C28.8035 21.1909 28.8546 21.1909 28.9071 21.1822C28.9541 21.1743 29.0164 21.1574 29.0663 21.1148C29.1904 21.0507 29.2895 20.9684 29.358 20.8657C29.4292 20.7589 29.4634 20.6357 29.4634 20.5V2.77273C29.4634 1.71295 28.6505 0.9 27.5907 0.9ZM28.0816 18.8404L25.7114 16.4702C25.6464 16.4052 25.5775 16.3525 25.4967 16.3166C25.4154 16.2805 25.3274 16.2636 25.2271 16.2636H9.86343C9.70888 16.2636 9.58786 16.2126 9.50573 16.1304C9.4236 16.0483 9.37252 15.9273 9.37252 15.7727V2.77273C9.37252 2.61818 9.4236 2.49716 9.50573 2.41503C9.58786 2.3329 9.70888 2.28182 9.86343 2.28182H27.5907C27.7453 2.28182 27.8663 2.3329 27.9484 2.41503C28.0305 2.49716 28.0816 2.61818 28.0816 2.77273V18.8404Z" fill="#9F9F9F" stroke="#9F9F9F" stroke-width="0.2"/>
<path d="M18.1364 18.6272C17.9364 18.6272 17.7619 18.6943 17.6372 18.819C17.5126 18.9437 17.4455 19.1182 17.4455 19.3182V21.6818C17.4455 21.8363 17.3944 21.9574 17.3122 22.0395C17.2301 22.1216 17.1091 22.1727 16.9545 22.1727H4.48636C4.28734 22.1727 4.07505 22.24 3.93322 22.4494L2.28182 24.4737V8.68179C2.28182 8.52724 2.3329 8.40622 2.41503 8.32409C2.49716 8.24196 2.61818 8.19088 2.77273 8.19088H6.31818C6.51818 8.19088 6.69262 8.12377 6.8173 7.99909C6.94199 7.8744 7.00909 7.69996 7.00909 7.49997C7.00909 7.29997 6.94199 7.12553 6.8173 7.00085C6.69262 6.87616 6.51818 6.80906 6.31818 6.80906H2.77273C1.71295 6.80906 0.9 7.62201 0.9 8.68179V26.4091C0.9 26.6091 0.967102 26.7835 1.09179 26.9082C1.21648 27.0329 1.39091 27.1 1.59091 27.1C1.78988 27.1 2.00211 27.0327 2.14395 26.8234L4.82909 23.5545H16.9545C18.0143 23.5545 18.8273 22.7416 18.8273 21.6818V19.3182C18.8273 19.1182 18.7602 18.9437 18.6355 18.819C18.5108 18.6943 18.3364 18.6272 18.1364 18.6272Z" fill="#9F9F9F" stroke="#9F9F9F" stroke-width="0.2"/>
</svg>
