<svg width="11" height="21" viewBox="0 0 11 21" fill="none" xmlns="http://www.w3.org/2000/svg">
<path d="M11 10.4741C10.9999 11.0311 10.8071 11.5651 10.4639 11.9588L3.14559 20.3589C2.97681 20.5595 2.77493 20.7194 2.55171 20.8295C2.32849 20.9396 2.08842 20.9975 1.84548 20.9999C1.60255 21.0023 1.36163 20.9492 1.13679 20.8436C0.911936 20.738 0.70766 20.5821 0.535875 20.3849C0.36409 20.1877 0.228237 19.9533 0.136244 19.6952C0.0442511 19.4371 -0.00204193 19.1606 6.90773e-05 18.8817C0.00218008 18.6029 0.0526516 18.3273 0.148538 18.0711C0.244425 17.8149 0.383808 17.5832 0.558552 17.3895L7.8769 8.98944C8.13277 8.69584 8.45873 8.4959 8.81359 8.41491C9.16844 8.33392 9.53625 8.3755 9.87051 8.53441C10.2048 8.69332 10.4905 8.96241 10.6915 9.30768C10.8926 9.65294 10.9999 10.0589 11 10.4741Z" fill="#404040"/>
<path d="M11 10.4747C10.9999 10.8899 10.8925 11.2959 10.6915 11.6411C10.4904 11.9864 10.2047 12.2555 9.87047 12.4144C9.53621 12.5733 9.1684 12.6149 8.81355 12.5339C8.45869 12.4529 8.13272 12.253 7.87685 11.9594L0.558508 3.55932C0.225234 3.16325 0.0408225 2.63279 0.044991 2.08217C0.0491596 1.53156 0.241575 1.00485 0.580795 0.615488C0.920015 0.22613 1.3789 0.00527191 1.85861 0.000487328C2.33832 -0.00429726 2.80048 0.207372 3.14554 0.589906L10.4639 8.98995C10.807 9.38369 10.9999 9.91774 11 10.4747Z" fill="#404040"/>
</svg>
