<svg width="11" height="21" viewBox="0 0 11 21" fill="none" xmlns="http://www.w3.org/2000/svg">
<path d="M0 10.4741C0.000103951 11.0311 0.192931 11.5651 0.536069 11.9588L7.85441 20.3589C8.02319 20.5595 8.22507 20.7194 8.44829 20.8295C8.67151 20.9396 8.91158 20.9975 9.15452 20.9999C9.39745 21.0023 9.63837 20.9492 9.86321 20.8436C10.0881 20.738 10.2923 20.5821 10.4641 20.3849C10.6359 20.1877 10.7718 19.9533 10.8638 19.6952C10.9557 19.4371 11.002 19.1606 10.9999 18.8817C10.9978 18.6029 10.9473 18.3273 10.8515 18.0711C10.7556 17.8149 10.6162 17.5832 10.4414 17.3895L3.1231 8.98944C2.86723 8.69584 2.54127 8.4959 2.18641 8.41491C1.83156 8.33392 1.46375 8.3755 1.12949 8.53441C0.795222 8.69332 0.509508 8.96241 0.308465 9.30768C0.107422 9.65294 7.72476e-05 10.0589 0 10.4741Z" fill="#404040"/>
<path d="M4.19617e-05 10.4747C0.000119209 10.8899 0.107464 11.2959 0.308507 11.6411C0.50955 11.9864 0.795264 12.2555 1.12953 12.4144C1.46379 12.5733 1.8316 12.6149 2.18645 12.5339C2.54131 12.4529 2.86728 12.253 3.12315 11.9594L10.4415 3.55932C10.7748 3.16325 10.9592 2.63279 10.955 2.08217C10.9508 1.53156 10.7584 1.00485 10.4192 0.615488C10.08 0.22613 9.6211 0.00527191 9.14139 0.000487328C8.66168 -0.00429726 8.19952 0.207372 7.85446 0.589906L0.536111 8.98995C0.192973 9.38369 0.000145912 9.91774 4.19617e-05 10.4747Z" fill="#404040"/>
</svg>
