<svg width="109" height="24" viewBox="0 0 109 24" fill="none" xmlns="http://www.w3.org/2000/svg">
<rect width="109" height="24" rx="12" fill="#FF5B5B"/>
<path d="M32.7011 6.41411C32.6097 6.35811 32.5054 6.32637 32.3982 6.32191C32.2911 6.31744 32.1846 6.34039 32.0887 6.38858L27.7208 8.59661V5.69331C27.7208 5.52678 27.6547 5.36708 27.5369 5.24933C27.4192 5.13158 27.2594 5.06543 27.0929 5.06543H13.062C12.8954 5.06543 12.7357 5.13158 12.618 5.24933C12.5002 5.36708 12.4341 5.52678 12.4341 5.69331V18.3069C12.4341 18.4735 12.5002 18.6332 12.618 18.7509C12.7357 18.8687 12.8954 18.9348 13.062 18.9348H27.0929C27.2594 18.9348 27.4192 18.8687 27.5369 18.7509C27.6547 18.6332 27.7208 18.4735 27.7208 18.3069V15.4036L32.0887 17.6117C32.1845 17.6601 32.291 17.6832 32.3982 17.6787C32.5054 17.6743 32.6097 17.6424 32.7011 17.5862C32.7925 17.53 32.8679 17.4513 32.9202 17.3576C32.9726 17.264 33 17.1585 33 17.0512V6.94906C33 6.84179 32.9726 6.7363 32.9203 6.64265C32.8679 6.549 32.7925 6.47032 32.7011 6.41411ZM31.7442 16.0303L27.3763 13.8222C27.2806 13.7738 27.174 13.7507 27.0668 13.7552C26.9596 13.7596 26.8554 13.7915 26.764 13.8477C26.6726 13.9039 26.5971 13.9826 26.5448 14.0763C26.4925 14.1699 26.465 14.2754 26.465 14.3827V17.6791H13.6898V6.32118H26.465V9.61754C26.465 9.72483 26.4925 9.83034 26.5448 9.92399C26.5971 10.0177 26.6726 10.0963 26.764 10.1525C26.8554 10.2088 26.9596 10.2406 27.0668 10.2451C27.174 10.2495 27.2806 10.2264 27.3763 10.178L31.7442 7.96999V16.0303ZM23.0611 11.4748L18.5793 8.53927C18.4846 8.47722 18.3749 8.44194 18.2618 8.43715C18.1486 8.43237 18.0363 8.45827 17.9367 8.51211C17.8371 8.56595 17.7539 8.64572 17.6959 8.74298C17.6379 8.84024 17.6074 8.95136 17.6074 9.06459V14.9357C17.6074 15.0489 17.6379 15.16 17.6959 15.2573C17.7539 15.3545 17.8371 15.4343 17.9367 15.4881C18.0363 15.542 18.1486 15.5679 18.2618 15.5631C18.3749 15.5583 18.4846 15.523 18.5793 15.461L23.0611 12.5255C23.1483 12.4683 23.22 12.3904 23.2696 12.2987C23.3191 12.207 23.3451 12.1044 23.3451 12.0001C23.3451 11.8959 23.3191 11.7933 23.2696 11.7015C23.22 11.6098 23.1483 11.5319 23.0611 11.4748ZM18.8631 13.7737V10.2266L21.571 12.0001L18.8631 13.7737Z" fill="white"/>
<path d="M43.152 15.32C42.928 15.39 42.578 15.46 42.27 15.46C41.15 15.46 40.296 14.578 40.296 12.324C40.296 9.986 41.234 9.09 42.27 9.09C42.676 9.09 42.914 9.174 43.124 9.272L43.432 7.732C43.25 7.606 42.802 7.48 42.158 7.48C40.324 7.48 38.35 8.866 38.35 12.422C38.35 15.11 39.498 17.084 41.92 17.084C42.55 17.084 43.068 16.986 43.334 16.86L43.152 15.32ZM46.8314 7.452C44.7314 7.452 43.7094 9.678 43.7094 12.254C43.7094 14.844 44.5494 17.112 46.6914 17.112C48.4834 17.112 49.7434 15.67 49.7434 12.114C49.7434 9.958 49.0994 7.452 46.8314 7.452ZM46.7474 9.048C47.5874 9.048 47.8394 10.546 47.8394 12.198C47.8394 14.116 47.5454 15.516 46.7614 15.516C46.0194 15.516 45.6134 14.424 45.6134 12.282C45.6134 10.252 46.0194 9.048 46.7474 9.048ZM50.9116 7.564V17H52.7456V13.052H54.6636V17H56.4976V7.564H54.6636V11.344H52.7456V7.564H50.9116ZM60.7767 7.452C58.6767 7.452 57.6547 9.678 57.6547 12.254C57.6547 14.844 58.4947 17.112 60.6367 17.112C62.4287 17.112 63.6887 15.67 63.6887 12.114C63.6887 9.958 63.0447 7.452 60.7767 7.452ZM60.6927 9.048C61.5327 9.048 61.7847 10.546 61.7847 12.198C61.7847 14.116 61.4907 15.516 60.7067 15.516C59.9647 15.516 59.5587 14.424 59.5587 12.282C59.5587 10.252 59.9647 9.048 60.6927 9.048ZM64.8569 17H66.6909V13.234H66.9709C67.5729 13.234 67.8669 13.57 68.0349 14.732C68.1749 15.782 68.3849 16.734 68.5109 17H70.4289C70.2609 16.65 70.0089 15.488 69.8269 14.438C69.6449 13.416 69.3229 12.828 68.6789 12.562V12.534C69.6309 12.1 70.1349 11.19 70.1349 10.182C70.1349 9.37 69.9529 8.74 69.3789 8.222C68.7769 7.676 67.8669 7.522 66.8589 7.522C66.1589 7.522 65.4309 7.592 64.8569 7.704V17ZM66.6909 9.006C66.7889 8.964 66.9709 8.95 67.1389 8.95C67.9509 8.978 68.2729 9.538 68.2729 10.35C68.2729 11.176 67.8249 11.82 67.0269 11.82H66.6909V9.006ZM72.4141 17H74.2481V9.258H75.9281V7.564H70.7481V9.258H72.4141V17ZM79.1167 17H83.3587V15.446H80.9507V7.564H79.1167V17ZM84.435 7.564V17H86.269V7.564H84.435ZM91.2817 17L93.4377 7.564H91.4217L90.7777 11.596C90.6097 12.66 90.4557 13.794 90.3297 14.914H90.3017C90.1757 13.808 89.9797 12.66 89.8257 11.638L89.1537 7.564H87.1237L89.2237 17H91.2817ZM98.2138 11.33H96.0718V9.16H98.3398V7.564H94.2378V17H98.4938V15.404H96.0718V12.856H98.2138V11.33Z" fill="white"/>
</svg>
