<svg width="30" height="30" viewBox="0 0 30 30" fill="none" xmlns="http://www.w3.org/2000/svg">
<g opacity="0.5">
<path fill-rule="evenodd" clip-rule="evenodd" d="M15.1081 30C12.4906 30.0047 9.91843 29.3132 7.65233 27.9955L4.426 29.4341C3.17699 29.9894 1.71452 29.6725 0.803632 28.649C-0.107254 27.6256 -0.259318 26.1285 0.426987 24.9409L2.01304 22.2137C-1.21711 16.2898 -0.11133 8.92463 4.71389 4.22448C9.53912 -0.475677 16.8927 -1.35063 22.6748 2.08743C28.457 5.52548 31.2405 12.4279 29.4734 18.9464C27.7063 25.4649 21.8249 29.9904 15.1081 30ZM7.78094 25.0978C8.04069 25.0985 8.29477 25.1743 8.51296 25.316C13.7613 28.7242 20.7181 27.6156 24.6624 22.7427C28.6066 17.8698 28.2757 10.7924 23.8942 6.31332C19.5127 1.83428 12.4832 1.38743 7.57602 5.27601C2.66885 9.16458 1.45488 16.1438 4.75795 21.4774C5.01607 21.9096 5.01607 22.4498 4.75795 22.882L2.772 26.291C2.67505 26.4577 2.69654 26.6683 2.82514 26.8117C2.95373 26.9551 3.15981 26.9982 3.33457 26.9183L7.23192 25.2274C7.40387 25.146 7.59093 25.1018 7.78094 25.0978ZM13.6958 14.3476C13.6958 15.068 14.2798 15.652 15.0002 15.652C15.7206 15.652 16.3045 15.068 16.3045 14.3476C16.3045 13.6273 15.7206 13.0433 15.0002 13.0433C14.2798 13.0433 13.6958 13.6273 13.6958 14.3476ZM9.13062 15.652C8.41024 15.652 7.82627 15.068 7.82627 14.3476C7.82627 13.6273 8.41024 13.0433 9.13062 13.0433C9.85099 13.0433 10.435 13.6273 10.435 14.3476C10.435 15.068 9.85099 15.652 9.13062 15.652ZM19.5649 14.3476C19.5649 15.068 20.1489 15.652 20.8693 15.652C21.5897 15.652 22.1736 15.068 22.1736 14.3476C22.1736 13.6273 21.5897 13.0433 20.8693 13.0433C20.1489 13.0433 19.5649 13.6273 19.5649 14.3476Z" fill="black"/>
</g>
</svg>
