<svg width="18" height="18" viewBox="0 0 18 18" fill="none" xmlns="http://www.w3.org/2000/svg">
<path fill-rule="evenodd" clip-rule="evenodd" d="M18 0H13.9091C11.6497 0 9.81817 1.83156 9.81817 4.0909V8.18181H18V0ZM0 1.24844e-05V8.18182H8.18181V4.09092C8.18181 1.83157 6.35025 1.22069e-05 4.0909 1.23056e-05L0 1.24844e-05ZM0 18V9.81818H8.18181V13.9091C8.18181 16.1684 6.35025 18 4.0909 18H0ZM13.9091 18H18V9.81819H9.81817V13.9091C9.81817 16.1684 11.6497 18 13.9091 18Z" fill="white"/>
<path fill-rule="evenodd" clip-rule="evenodd" d="M16.7727 1.22727H13.9091C12.3275 1.22727 11.0454 2.50936 11.0454 4.0909V6.95454H16.7727V1.22727ZM1.22727 1.22728V6.95455H6.95454V4.09092C6.95454 2.50938 5.67244 1.22728 4.0909 1.22728H1.22727ZM0 18V9.81818H8.18181V13.9091C8.18181 16.1684 6.35025 18 4.0909 18H0ZM6.95454 11.0455H1.22727V16.7727H4.0909C5.67244 16.7727 6.95454 15.4906 6.95454 13.9091V11.0455ZM13.9091 16.7727H16.7727V11.0455H11.0454V13.9091C11.0454 15.4906 12.3275 16.7727 13.9091 16.7727ZM18 0V8.18181H9.81817V4.0909C9.81817 1.83156 11.6497 0 13.9091 0H18ZM0 1.24844e-05L4.0909 1.23056e-05C6.35025 1.22069e-05 8.18181 1.83157 8.18181 4.09092V8.18182H0V1.24844e-05ZM13.9091 18C11.6497 18 9.81817 16.1684 9.81817 13.9091V9.81819H18V18H13.9091Z" fill="#FF9800"/>
</svg>
