<svg width="58" height="67" viewBox="0 0 58 67" fill="none" xmlns="http://www.w3.org/2000/svg">
<g opacity="0.5">
<path d="M28.5215 0C20.9791 0 14.3733 3.58183 10.5774 9.55156C7.3485 14.59 6.11608 21.2283 7.54568 28.7263L4.46463 26.6488C3.89772 26.2668 3.15827 26.1713 2.51741 26.4101C1.87655 26.625 1.38358 27.1742 1.21104 27.8189C-1.69747 39.4479 0.865964 49.1189 6.41186 55.7811C11.9824 62.4194 20.4368 66.049 29.0391 66.049C36.2118 66.049 43.5324 63.3268 48.9304 58.2167C54.3037 53.1067 57.6806 45.537 56.9411 36.2243C56.8918 35.7228 56.6453 35.2214 56.251 34.8871L49.029 28.6069C50.9762 22.6372 50.0888 16.4048 47.2543 11.2708C43.6063 4.72802 36.7541 0 28.5215 0ZM28.5215 4.05941C35.1026 4.05941 40.6485 7.88003 43.6063 13.2289C45.6275 16.8824 46.4409 21.2522 45.5289 25.5743L43.8282 24.0938C43.138 23.4968 42.0042 23.4252 41.2154 23.9505L30.099 31.6395L22.9509 23.6162C21.9897 22.7805 21.1516 22.8282 20.141 23.3297L11.9331 29.2516C10.257 22.0402 11.3415 15.9989 14.1022 11.6768C17.2079 6.85324 22.3101 4.05941 28.5215 4.05941ZM23.6657 11.4619C22.9016 11.4619 22.2608 12.0588 22.2608 12.7991C22.2608 13.5632 22.9016 14.1602 23.6657 14.1602C24.4298 14.1602 25.0461 13.5632 25.0461 12.7991C25.0461 12.0588 24.4298 11.4619 23.6657 11.4619ZM33.4019 11.4619C32.6378 11.4619 31.9969 12.0588 31.9969 12.7991C31.9969 13.5632 32.6378 14.1602 33.4019 14.1602C34.166 14.1602 34.7822 13.5632 34.7822 12.7991C34.7822 12.0588 34.166 11.4619 33.4019 11.4619ZM27.0919 16.166C24.9968 16.5481 22.8524 17.145 21.053 17.5749C20.141 17.7659 19.4262 18.6255 19.4262 19.5329C19.4262 20.4403 20.141 21.3 21.053 21.5149L26.6236 22.8521C27.8313 23.1625 29.2363 22.1357 29.2116 20.894V18.1957C29.1623 16.5958 28.1271 16.0705 27.0919 16.166ZM21.0777 27.6756L28.1764 35.6751C28.8419 36.4392 30.1236 36.5825 30.9617 36.0094L42.2999 28.201L52.7755 37.2749C53.1945 45.1072 50.3846 51.1486 45.9972 55.3274C41.4373 59.6495 35.1273 62.0135 29.0391 62.0135C21.6446 62.0135 14.3979 58.8615 9.6901 53.2261C5.40127 48.116 3.13362 40.9045 4.71112 31.7112L9.02459 34.6721C9.73939 35.1497 10.7746 35.1497 11.4894 34.6244C14.6691 32.3081 17.8734 29.9919 21.0777 27.6756V27.6756Z" fill="#9F9F9F"/>
</g>
</svg>
