<svg width="30" height="30" viewBox="0 0 30 30" fill="none" xmlns="http://www.w3.org/2000/svg">
<g opacity="0.5">
<path d="M11.513 10.1453C11.513 10.5457 11.2127 10.846 10.8123 10.846H9.41073C9.01029 10.846 8.70996 10.5457 8.70996 10.1453V8.74374C8.70996 8.3433 9.01029 8.04297 9.41073 8.04297H10.8123C11.2127 8.04297 11.513 8.3433 11.513 8.74374V10.1453Z" fill="black"/>
<path d="M21.5907 10.1453C21.5907 10.5457 21.2903 10.846 20.8899 10.846H19.4884C19.0879 10.846 18.7876 10.5457 18.7876 10.1453V8.74374C18.7876 8.3433 19.0879 8.04297 19.4884 8.04297H20.8899C21.2903 8.04297 21.5907 8.3433 21.5907 8.74374V10.1453Z" fill="black"/>
<path d="M26.529 1.40153C27.697 1.40153 28.6313 2.33589 28.6313 3.50383V26.3955C28.6313 27.5635 27.697 28.4978 26.529 28.4978H3.50383C2.33589 28.4978 1.40153 27.5635 1.40153 26.3955V3.50383C1.40153 2.33589 2.33589 1.40153 3.50383 1.40153H26.529ZM26.529 0H3.50383C1.56838 0 0 1.56838 0 3.50383V26.3955C0 28.331 1.56838 29.8994 3.50383 29.8994H26.4956C28.4311 29.8994 29.9995 28.331 29.9995 26.3955V3.50383C30.0328 1.56838 28.4645 0 26.529 0Z" fill="black"/>
<path d="M15.0164 23.3924C9.74397 23.3924 7.40808 19.1544 7.30797 18.9876C7.10775 18.6539 7.24123 18.2201 7.6083 18.0198C7.94199 17.8196 8.3758 17.9531 8.57602 18.2868C8.67613 18.4537 10.645 21.9575 15.0498 21.9575C19.2877 21.9575 21.7571 18.2534 21.7905 18.2201C21.9907 17.8864 22.4245 17.8196 22.7582 18.0198C23.0919 18.2201 23.1586 18.6539 22.9584 18.9876C22.8249 19.2212 20.0219 23.3924 15.0164 23.3924Z" fill="black"/>
</g>
</svg>
