<svg width="32" height="28" viewBox="0 0 32 28" fill="none" xmlns="http://www.w3.org/2000/svg">
<path opacity="0.5" d="M29.2734 18.4643H29.2234V18.5143V24.2524C29.2234 24.9524 28.685 25.4871 27.9784 25.4871H4.02158C3.31501 25.4871 2.77662 24.9524 2.77662 24.2524V18.5143V18.4643H2.72662H1H0.95V18.5143V24.2524C0.95 25.9505 2.31089 27.3 4.02158 27.3H27.9784C29.6891 27.3 31.05 25.9505 31.05 24.2524V18.5143V18.4643H31H29.2734ZM7.33737 12.0836L15.1083 4.37452V21.1693V21.2192H15.1583H16.8849H16.9349V21.1693V4.37452L24.7058 12.0836L24.741 12.1186L24.7762 12.0836L25.9849 10.8846L26.0206 10.8491L25.9849 10.8136L16.0568 0.964504L16.0216 0.92957L15.9864 0.964504L6.05831 10.8136L6.02253 10.8491L6.05831 10.8846L7.26694 12.0836L7.30216 12.1186L7.33737 12.0836Z" fill="black" stroke="black" stroke-width="0.1"/>
</svg>
