<svg width="26" height="26" viewBox="0 0 26 26" fill="none" xmlns="http://www.w3.org/2000/svg">
<path d="M25.8348 12.4943C25.6025 12.1766 20.0682 4.71432 12.9999 4.71432C5.93157 4.71432 0.397009 12.1766 0.164989 12.494C-0.0549962 12.7955 -0.0549962 13.2043 0.164989 13.5057C0.397009 13.8235 5.93157 21.2858 12.9999 21.2858C20.0682 21.2858 25.6025 13.8234 25.8348 13.506C26.055 13.2046 26.055 12.7955 25.8348 12.4943ZM12.9999 19.5715C7.79331 19.5715 3.28388 14.6186 1.94899 12.9995C3.28215 11.3789 7.78214 6.4286 12.9999 6.4286C18.2062 6.4286 22.7153 11.3806 24.0508 13.0006C22.7176 14.6212 18.2176 19.5715 12.9999 19.5715Z" fill="#D7D7D7"/>
<path d="M12.9998 7.85706C10.1641 7.85706 7.85693 10.1642 7.85693 12.9999C7.85693 15.8357 10.1641 18.1428 12.9998 18.1428C15.8355 18.1428 18.1427 15.8357 18.1427 12.9999C18.1427 10.1642 15.8355 7.85706 12.9998 7.85706ZM12.9998 16.4285C11.1092 16.4285 9.57126 14.8905 9.57126 12.9999C9.57126 11.1094 11.1093 9.57138 12.9998 9.57138C14.8903 9.57138 16.4284 11.1094 16.4284 12.9999C16.4284 14.8905 14.8904 16.4285 12.9998 16.4285Z" fill="#D7D7D7"/>
</svg>
