<svg width="15" height="21" viewBox="0 0 15 21" fill="none" xmlns="http://www.w3.org/2000/svg">
<path d="M9.8616 10.8085C9.83897 10.8681 9.79195 10.9096 9.7483 10.935C9.70206 10.9619 9.64637 10.9787 9.59345 10.9787C9.43503 10.9787 9.27332 10.8528 9.27332 10.6592C9.27332 10.4845 9.24245 10.3575 9.19543 10.2614C9.14864 10.1657 9.08313 10.0951 9.00523 10.0368C8.85236 9.92246 8.63411 9.8811 8.49278 9.8811C8.34802 9.8811 8.1777 9.92986 8.02467 10.0163C7.87141 10.1029 7.74533 10.2217 7.67963 10.3528C7.65166 10.4086 7.61365 10.4564 7.56306 10.49C7.51185 10.5241 7.45359 10.5397 7.39212 10.5397C7.2337 10.5397 7.07199 10.4137 7.07199 10.2202V10.2138V10.2075V10.2012V10.1949V10.1885V10.1822V10.1758V10.1694V10.163V10.1566V10.1502V10.1438V10.1374V10.1309V10.1245V10.118V10.1116V10.1051V10.0986V10.0921V10.0856V10.0791V10.0726V10.0661V10.0595V10.053V10.0464V10.0399V10.0333V10.0267V10.0201V10.0135V10.0069V10.0003V9.99366V9.98703V9.98038V9.97373V9.96706V9.96039V9.95371V9.94702V9.94033V9.93362V9.92691V9.92018V9.91345V9.90671V9.89997V9.89321V9.88645V9.87967V9.87289V9.8661V9.85931V9.8525V9.84569V9.83887V9.83204V9.8252V9.81836V9.81151V9.80465V9.79778V9.7909V9.78402V9.77713V9.77023V9.76333V9.75641V9.74949V9.74256V9.73563V9.72868V9.72173V9.71478V9.70781V9.70084V9.69386V9.68687V9.67988V9.67288V9.66587V9.65885V9.65183V9.6448V9.63776V9.63072V9.62367V9.61661V9.60955V9.60248V9.5954V9.58832V9.58123V9.57413V9.56703V9.55992V9.5528V9.54568V9.53855V9.53141V9.52427V9.51712V9.50997V9.50281V9.49564V9.48847V9.48129V9.4741V9.46691V9.45971V9.45251V9.4453V9.43808V9.43086V9.42364V9.4164V9.40916V9.40192V9.39467V9.38741V9.38015V9.37288V9.36561V9.35833V9.35105V9.34376V9.33647V9.32917V9.32186V9.31455V9.30724V9.29992V9.29259V9.28526V9.27792V9.27058V9.26323V9.25588V9.24853V9.24117V9.2338V9.22643V9.21905V9.21167V9.20429V9.1969V9.1895V9.1821V9.1747V9.16729V9.15988V9.15246V9.14504V9.13761V9.13018V9.12274V9.1153V9.10786V9.10041V9.09296V9.0855V9.07804V9.07058V9.06311V9.05564V9.04816V9.04068V9.0332V9.02571V9.01822V9.01072V9.00322V8.99572V8.98821V8.9807V8.97318V8.96566V8.95814V8.95062V8.94309V8.93556V8.92802V8.92048V8.91294V8.90539V8.89785V8.89029V8.88274V8.87518V8.86762V8.86005V8.85249V8.84492V8.83734V8.82977V8.82219V8.8146V8.80702V8.79943V8.79184V8.78425V8.77665V8.76905V8.76145V8.75385V8.74624V8.73863V8.73102V8.72341V8.71579V8.70817V8.70055V8.69293V8.6853V8.67768V8.67005V8.66241V8.65478V8.64714V8.63951V8.63187V8.62422V8.61658V8.60894V8.60129V8.59364V8.58599V8.57833V8.57068V8.56302V8.55537V8.54771V8.54005V8.53238V8.52472V8.51705V8.50939V8.50172V8.49405V8.48638V8.47871V8.47103V8.46336V8.45568V8.44801V8.44033V8.43265V8.42497V8.41729V8.40961V8.40192V8.39424V8.38655V8.37887V8.37118V8.3635V8.35581V8.34812V8.34043V8.33274V8.32505V8.31736V8.30967V8.30198V8.29429V8.2866V8.27891V8.27121V8.26352V8.25583V8.24814V8.24044V8.23275V8.22506V8.21736V8.20967V8.20197V8.19428V8.18659V8.1789V8.1712V8.16351V8.15582V8.14813V8.14043V8.13274V8.12505V8.11736V8.10967V8.10198V8.09429V8.0866V8.07892V8.07123V8.06354V8.05586V8.04817V8.04049V8.03281V8.02512V8.01744V8.00976V8.00208V7.9944V7.98673V7.97905V7.97137V7.9637V7.95603V7.94836V7.94069V7.93302V7.92535V7.91768V7.91002V7.90236V7.89469V7.88703V7.87937V7.87172V7.86406V7.85641V7.84876V7.84111V7.83346V7.82581V7.81817V7.81052V7.80288V7.79524V7.78761V7.77997V7.77234V7.76471V7.75708V7.74945V7.74183V7.73421V7.72659V7.71897V7.71135V7.70374V7.69613V7.68852V7.68092V7.67332V7.66572V7.65812V7.65052V7.64293V7.63534V7.62776V7.62017V7.61259V7.60501V7.59744V7.58987V7.5823V7.57473V7.56717V7.55961V7.55205V7.5445V7.53695V7.5294V7.52186V7.51432V7.50678V7.49924V7.49171V7.48419V7.47666V7.46914V7.46163V7.45411V7.44661V7.4391V7.4316V7.4241V7.41661V7.40912V7.40163V7.39415V7.38667V7.37919V7.37172V7.36426V7.35679V7.34933V7.34188V7.33443V7.32698V7.31954V7.3121V7.30467V7.29724V7.28982V7.2824V7.27498V7.26757V7.26017V7.25276V7.24537V7.23797V7.23059V7.2232V7.21583V7.20845V7.20108V7.19372V7.18636V7.17901V7.17166V7.16431V7.15697V7.14964V7.14231V7.13499V7.12767V7.12036V7.11305V7.10575V7.09845V7.09116V7.08387V7.07659V7.06931V7.06205V7.05478V7.04752V7.04027V7.03302V7.02578V7.01854V7.01131V7.00409V6.99687V6.98966V6.98245V6.97525V6.96806V6.96087V6.95369V6.94651V6.93934V6.93217V6.92502V6.91786V6.91072V6.90358V6.89645V6.88932V6.8822V6.87509V6.86798V6.86088V6.85379V6.8467V6.83962V6.83255V6.82548V6.81842V6.81137V6.80432V6.79728V6.79025V6.78322V6.7762V6.76919V6.76218V6.75519V6.7482V6.74121V6.73424V6.72727V6.7203V6.71335V6.7064V6.69946V6.69253V6.68561V6.67869V6.67178V6.66488V6.65798V6.65109V6.64422V6.63734V6.63048V6.62362V6.61678V6.60993V6.6031V6.59628V6.58946V6.58265V6.57585V6.56906V6.56227V6.5555V6.54873V6.54197V6.53522V6.52847V6.52174V6.51501V6.50829V6.50158V6.49488V6.48819C7.07199 5.90705 6.65474 5.49055 6.07132 5.49055L9.8616 10.8085ZM9.8616 10.8085C9.95637 10.6207 10.0461 10.5059 10.1376 10.4374C10.2271 10.3705 10.326 10.3421 10.452 10.3421C10.5453 10.3421 10.7659 10.3816 10.9446 10.4995C11.0236 10.5589 11.094 10.6303 11.1454 10.7258C11.1971 10.8219 11.2325 10.9479 11.2325 11.1202C11.2325 11.3138 11.3942 11.4397 11.5526 11.4397C11.6209 11.4397 11.6839 11.4081 11.7229 11.3886C11.7251 11.3874 11.7273 11.3864 11.7293 11.3853L11.7438 11.3781L11.7553 11.3666L11.7553 11.3666C11.7555 11.3665 11.7572 11.3649 11.7614 11.3621C11.7658 11.3591 11.7718 11.3555 11.7798 11.3512C11.796 11.3426 11.8171 11.3331 11.8428 11.3229C11.8927 11.303 11.9529 11.2828 12.017 11.2615C12.1438 11.2407 12.3041 11.2211 12.4042 11.2202C12.6892 11.2622 12.9085 11.3735 13.0802 11.5472C13.2549 11.7239 13.3859 11.9709 13.4821 12.2906C13.674 12.9284 13.6762 13.8331 13.5232 14.7923C13.3706 15.7266 13.0598 16.7002 12.6728 17.5293C12.2921 18.3446 11.8431 19.0087 11.4076 19.3623H5.78805C4.72447 18.0785 3.59429 16.3606 2.39806 13.8448L1.73934 12.3339C1.54296 11.8109 1.51057 11.4879 1.5663 11.3027C1.62115 11.1204 1.74758 10.9652 2.00829 10.7812L9.8616 10.8085ZM6.04931 0.9H6.03943L6.02975 0.901932C5.88393 0.931015 5.75119 1.05167 5.75119 1.21953V3.4148C5.75119 3.50347 5.78127 3.58509 5.84111 3.64477C5.90093 3.70442 5.98264 3.73433 6.07132 3.73433C6.16 3.73433 6.24171 3.70442 6.30153 3.64477C6.36137 3.58509 6.39145 3.50347 6.39145 3.4148V1.21953C6.39145 1.13086 6.36137 1.04924 6.30153 0.989562C6.24171 0.929908 6.16 0.9 6.07132 0.9H6.04931ZM2.70194 2.4937L2.70599 2.50177L2.71142 2.50898L4.03222 4.2652C4.08478 4.3351 4.16651 4.37266 4.24387 4.38368C4.32123 4.3947 4.41019 4.38146 4.48022 4.32908C4.55028 4.27668 4.58803 4.1951 4.59911 4.11775C4.61019 4.0404 4.59687 3.95149 4.54427 3.88156L3.23197 2.13663C3.18907 2.03409 3.0813 1.97185 2.95536 1.99785C2.76874 2.00438 2.64731 2.16184 2.64731 2.31717C2.64731 2.38541 2.67908 2.44837 2.69868 2.48721C2.69981 2.48946 2.7009 2.49162 2.70194 2.4937ZM8.88445 2.11463L8.87942 2.11965L8.87514 2.12533L7.55434 3.88156C7.50174 3.95149 7.48842 4.0404 7.4995 4.11775C7.51058 4.1951 7.54833 4.27668 7.6184 4.32908C7.68843 4.38146 7.77738 4.3947 7.85474 4.38368C7.9321 4.37266 8.01383 4.3351 8.0664 4.2652L9.3872 2.50898C9.43598 2.44411 9.45766 2.36004 9.45394 2.2822C9.45053 2.21072 9.4246 2.13115 9.3621 2.07531C9.30758 1.99522 9.20103 1.9756 9.11512 1.99815C9.01623 2.00438 8.93243 2.06678 8.88445 2.11463ZM2.90477 9.9478C2.45855 9.8307 2.06272 9.99034 1.75528 10.1421H1.7265L1.70135 10.1588C1.36176 10.3846 1.07586 10.6648 0.956371 11.07C0.836925 11.475 0.912284 11.9396 1.13509 12.5173L1.13502 12.5173L1.13652 12.5208L1.79692 14.0575L1.79684 14.0575L1.79865 14.0613C3.0564 16.6799 4.24926 18.487 5.35568 19.8331L5.3553 19.8334L5.36232 19.8404C5.41287 19.8908 5.5032 19.9574 5.60904 19.9574H11.5526C11.6209 19.9574 11.6839 19.9258 11.7228 19.9062C11.7251 19.9051 11.7273 19.904 11.7293 19.903L11.7374 19.899L11.7446 19.8936C12.3359 19.4514 12.8618 18.6881 13.2805 17.7923C13.7 16.8945 14.0163 15.8539 14.1828 14.8465L14.183 14.8453C14.3379 13.8304 14.3625 12.8463 14.1135 12.0561C13.8641 11.2648 13.3334 10.6314 12.4659 10.5378L12.466 10.5373H12.4552H12.4332C12.2729 10.5373 12.0917 10.5598 11.9185 10.5814L11.9145 10.5819L11.9144 10.5812L11.9027 10.5841C11.854 10.5963 11.8119 10.6137 11.7766 10.6297C11.6962 10.3334 11.543 10.0717 11.3237 9.91863L11.3233 9.91834C11.0185 9.70793 10.69 9.63719 10.452 9.63719C10.1565 9.63719 9.92014 9.78028 9.71836 9.95989C9.6278 9.76541 9.50421 9.60046 9.34516 9.48149L9.3452 9.48144L9.34208 9.47928C9.03732 9.26888 8.70879 9.19814 8.47077 9.19814C8.20016 9.19814 7.93166 9.27663 7.69024 9.41887V9.41441V9.40838V9.40236V9.39633V9.39029V9.38426V9.37822V9.37218V9.36613V9.36009V9.35404V9.34798V9.34193V9.33587V9.32981V9.32374V9.31767V9.3116V9.30553V9.29946V9.29338V9.2873V9.28121V9.27512V9.26904V9.26294V9.25685V9.25075V9.24465V9.23855V9.23244V9.22633V9.22022V9.21411V9.208V9.20188V9.19576V9.18963V9.18351V9.17738V9.17125V9.16511V9.15898V9.15284V9.1467V9.14056V9.13441V9.12826V9.12211V9.11596V9.10981V9.10365V9.09749V9.09133V9.08517V9.079V9.07283V9.06666V9.06049V9.05431V9.04814V9.04196V9.03577V9.02959V9.02341V9.01722V9.01103V9.00484V8.99864V8.99245V8.98625V8.98005V8.97385V8.96764V8.96143V8.95523V8.94902V8.9428V8.93659V8.93038V8.92416V8.91794V8.91172V8.90549V8.89927V8.89304V8.88681V8.88058V8.87435V8.86812V8.86188V8.85564V8.84941V8.84316V8.83692V8.83068V8.82443V8.81818V8.81194V8.80569V8.79943V8.79318V8.78692V8.78067V8.77441V8.76815V8.76189V8.75562V8.74936V8.74309V8.73683V8.73056V8.72429V8.71802V8.71174V8.70547V8.69919V8.69292V8.68664V8.68036V8.67408V8.6678V8.66151V8.65523V8.64894V8.64266V8.63637V8.63008V8.62379V8.6175V8.6112V8.60491V8.59861V8.59232V8.58602V8.57972V8.57342V8.56712V8.56082V8.55452V8.54821V8.54191V8.5356V8.5293V8.52299V8.51668V8.51037V8.50406V8.49775V8.49144V8.48512V8.47881V8.4725V8.46618V8.45986V8.45355V8.44723V8.44091V8.43459V8.42827V8.42195V8.41563V8.40931V8.40299V8.39666V8.39034V8.38401V8.37769V8.37136V8.36504V8.35871V8.35238V8.34606V8.33973V8.3334V8.32707V8.32074V8.31441V8.30808V8.30175V8.29542V8.28908V8.28275V8.27642V8.27009V8.26375V8.25742V8.25108V8.24475V8.23842V8.23208V8.22575V8.21941V8.21307V8.20674V8.2004V8.19407V8.18773V8.18139V8.17506V8.16872V8.16238V8.15605V8.14971V8.14337V8.13704V8.1307V8.12436V8.11802V8.11169V8.10535V8.09901V8.09268V8.08634V8.08V8.07367V8.06733V8.06099V8.05466V8.04832V8.04198V8.03565V8.02931V8.02298V8.01664V8.01031V8.00397V7.99764V7.9913V7.98497V7.97864V7.9723V7.96597V7.95964V7.95331V7.94698V7.94064V7.93431V7.92798V7.92165V7.91532V7.909V7.90267V7.89634V7.89001V7.88369V7.87736V7.87103V7.86471V7.85838V7.85206V7.84574V7.83942V7.83309V7.82677V7.82045V7.81413V7.80781V7.80149V7.79518V7.78886V7.78254V7.77623V7.76991V7.7636V7.75729V7.75098V7.74467V7.73836V7.73205V7.72574V7.71943V7.71312V7.70682V7.70051V7.69421V7.68791V7.68161V7.67531V7.66901V7.66271V7.65641V7.65012V7.64382V7.63753V7.63123V7.62494V7.61865V7.61236V7.60607V7.59979V7.5935V7.58722V7.58093V7.57465V7.56837V7.56209V7.55581V7.54954V7.54326V7.53699V7.53071V7.52444V7.51817V7.5119V7.50564V7.49937V7.49311V7.48684V7.48058V7.47432V7.46807V7.46181V7.45555V7.4493V7.44305V7.4368V7.43055V7.4243V7.41806V7.41181V7.40557V7.39933V7.39309V7.38685V7.38062V7.37438V7.36815V7.36192V7.35569V7.34947V7.34324V7.33702V7.3308V7.32458V7.31836V7.31215V7.30593V7.29972V7.29351V7.2873V7.2811V7.2749V7.26869V7.26249V7.2563V7.2501V7.24391V7.23771V7.23152V7.22534V7.21915V7.21297V7.20679V7.20061V7.19443V7.18826V7.18208V7.17591V7.16975V7.16358V7.15742V7.15126V7.1451V7.13894V7.13279V7.12663V7.12048V7.11434V7.10819V7.10205V7.09591V7.08977V7.08363V7.0775V7.07137V7.06524V7.05912V7.053V7.04687V7.04076V7.03464V7.02853V7.02242V7.01631V7.01021V7.0041V6.998V6.99191V6.98581V6.97972V6.97363V6.96754V6.96146V6.95538V6.9493V6.94323V6.93715V6.93108V6.92502V6.91895V6.91289V6.90683V6.90078V6.89472V6.88867V6.88263V6.87658V6.87054V6.8645V6.85847V6.85244V6.84641V6.84038V6.83436V6.82834V6.82232V6.81631V6.8103V6.80429V6.79829V6.79228V6.78628V6.78029V6.7743V6.76831V6.76232V6.75634V6.75036V6.74439V6.73841V6.73244V6.72648V6.72052V6.71456V6.7086V6.70265V6.6967V6.69075V6.68481V6.67887V6.67294V6.667V6.66108V6.65515V6.64923V6.64331V6.6374V6.63148V6.62558V6.61967V6.61377V6.60787V6.60198V6.59609V6.59021V6.58432V6.57844V6.57257V6.5667V6.56083V6.55497V6.54911V6.54325V6.5374V6.53155V6.5257V6.51986V6.51403V6.50819V6.50236V6.49654V6.49071V6.4849V6.47908V6.47327V6.46747V6.46166V6.45586V6.45007V6.44561C7.71307 5.57393 6.9818 4.8515 6.07132 4.8515C5.15783 4.8515 4.43039 5.57654 4.43039 6.48819V11.794L4.16811 11.2086V11.208V11.1831L4.15637 11.161C3.77612 10.4472 3.36177 10.0677 2.90477 9.9478ZM4.87563 13.6498L4.88528 13.646L4.89394 13.6402L4.83857 13.557L4.87563 13.6498Z" fill="black" stroke="black" stroke-width="0.2"/>
</svg>
