<svg width="25" height="25" viewBox="0 0 25 25" fill="none" xmlns="http://www.w3.org/2000/svg">
<path opacity="0.5" d="M23.2563 9.78656L21.5359 9.49156C21.3567 8.90675 21.1263 8.34264 20.8447 7.8044L21.8585 6.37084C22.2886 5.76015 22.222 4.92692 21.6946 4.39903L20.1688 2.85678C19.882 2.56697 19.5031 2.40653 19.0986 2.40653C18.7812 2.40653 18.4791 2.50486 18.2231 2.69117L16.7996 3.71589C16.2466 3.4209 15.668 3.17765 15.069 2.99652L14.7822 1.27831C14.6594 0.538235 14.0296 0 13.2871 0H11.1315C10.389 0 9.75925 0.538235 9.63636 1.27831L9.33939 3.03792C8.76591 3.21906 8.2078 3.45712 7.6753 3.74694L6.26722 2.72223C6.01121 2.53591 5.70399 2.43758 5.38653 2.43758C4.98203 2.43758 4.59801 2.59802 4.31639 2.88784L2.78543 4.43009C2.26316 4.95797 2.19148 5.7912 2.62158 6.40189L3.64564 7.85616C3.36402 8.39957 3.13873 8.96368 2.96464 9.54849L1.26471 9.83831C0.532509 9.96252 0 10.5991 0 11.3495V13.5283C0 14.2787 0.532509 14.9153 1.26471 15.0395L3.0056 15.3397C3.18481 15.9193 3.42035 16.4834 3.70708 17.0217L2.69839 18.4397C2.26828 19.0504 2.33485 19.8836 2.86224 20.4115L4.38808 21.9538C4.67481 22.2436 5.05371 22.404 5.45822 22.404C5.77567 22.404 6.07777 22.3057 6.33378 22.1194L7.77258 21.0843C8.28973 21.3586 8.83248 21.5811 9.39059 21.7571L9.67733 23.496C9.80021 24.2361 10.43 24.7743 11.1724 24.7743H13.3332C14.0756 24.7743 14.7054 24.2361 14.8283 23.496L15.1202 21.7571C15.6988 21.576 16.2569 21.3431 16.7894 21.0584L18.2077 22.0831C18.4637 22.2695 18.7709 22.3678 19.0884 22.3678C19.4929 22.3678 19.8718 22.2074 20.1585 21.9175L21.6844 20.3753C22.2066 19.8474 22.2783 19.0142 21.8482 18.4035L20.8344 16.9647C21.116 16.4213 21.3516 15.8572 21.5256 15.2776L23.2461 14.9878C23.9783 14.8636 24.5108 14.227 24.5108 13.4766V11.2978C24.521 10.5473 23.9885 9.91076 23.2563 9.78656ZM23.1385 13.4766C23.1385 13.5438 23.0925 13.6008 23.0259 13.6111L20.8754 13.9734C20.604 14.02 20.3889 14.2218 20.3224 14.4858C20.1278 15.2465 19.8308 15.9763 19.4315 16.6542C19.2932 16.8923 19.3034 17.1873 19.4622 17.415L20.7269 19.216C20.7627 19.2678 20.7576 19.3454 20.7115 19.392L19.1857 20.9342C19.1498 20.9705 19.114 20.9756 19.0884 20.9756C19.0577 20.9756 19.0321 20.9653 19.0116 20.9497L17.2349 19.6714C17.0147 19.511 16.7177 19.5007 16.4822 19.6404C15.8114 20.0441 15.0895 20.3442 14.3368 20.5409C14.0705 20.6082 13.8708 20.8307 13.8299 21.0998L13.4663 23.2735C13.4561 23.3408 13.3998 23.3873 13.3332 23.3873H11.1776C11.111 23.3873 11.0547 23.3408 11.0444 23.2735L10.686 21.0998C10.6399 20.8255 10.4402 20.6082 10.1791 20.5409C9.44691 20.3494 8.74031 20.0544 8.0798 19.6714C7.97227 19.6093 7.84939 19.5783 7.73162 19.5783C7.59337 19.5783 7.45 19.6197 7.33224 19.7077L5.54014 20.9963C5.51454 21.0119 5.48894 21.0222 5.46334 21.0222C5.44286 21.0222 5.40189 21.017 5.36605 20.9808L3.84021 19.4386C3.79413 19.392 3.78901 19.3195 3.82485 19.2626L5.08444 17.4771C5.24316 17.2494 5.25341 16.9492 5.11516 16.7112C4.71578 16.0384 4.40856 15.3086 4.21399 14.5479C4.1423 14.2839 3.92725 14.0821 3.661 14.0355L1.49512 13.6629C1.42856 13.6525 1.38248 13.5956 1.38248 13.5283V11.3495C1.38248 11.2822 1.42856 11.2253 1.49512 11.2149L3.63028 10.8527C3.90165 10.8061 4.12182 10.6043 4.18839 10.3351C4.37784 9.57437 4.66969 8.83947 5.06395 8.1615C5.2022 7.92344 5.18684 7.62844 5.02811 7.4059L3.75316 5.59454C3.71732 5.54278 3.72244 5.46515 3.76852 5.41857L5.29437 3.87632C5.33021 3.8401 5.36605 3.83492 5.39165 3.83492C5.42237 3.83492 5.44798 3.84527 5.46846 3.8608L7.23495 5.13393C7.46024 5.29437 7.75722 5.30472 7.99275 5.16498C8.65839 4.76131 9.38035 4.45079 10.133 4.25412C10.3942 4.18167 10.5939 3.96431 10.6399 3.69519L11.0086 1.50602C11.0188 1.43874 11.0752 1.39216 11.1417 1.39216H13.2974C13.3639 1.39216 13.4202 1.43874 13.4305 1.50602L13.7889 3.66414C13.835 3.93843 14.0347 4.16097 14.3009 4.22825C15.0741 4.42491 15.8114 4.73026 16.4975 5.13911C16.7331 5.27884 17.0249 5.26849 17.2502 5.10805L19.0167 3.82457C19.0423 3.80905 19.0679 3.79869 19.0935 3.79869C19.114 3.79869 19.155 3.80387 19.1908 3.8401L20.7166 5.38235C20.7627 5.42893 20.7678 5.50138 20.732 5.55831L19.4673 7.35415C19.3086 7.57669 19.2983 7.87686 19.4366 8.11492C19.836 8.79289 20.1329 9.52261 20.3275 10.2834C20.3941 10.5525 20.6142 10.7543 20.8805 10.7957L23.031 11.1632C23.0976 11.1735 23.1437 11.2305 23.1437 11.2978L23.1385 13.4766Z" fill="black"/>
<path opacity="0.5" d="M12.258 7.03906C9.33944 7.03906 6.96875 9.43524 6.96875 12.3852C6.96875 15.3351 9.33944 17.7313 12.258 17.7313C15.1766 17.7313 17.5472 15.3351 17.5472 12.3852C17.5472 9.43524 15.1766 7.03906 12.258 7.03906ZM12.258 16.334C10.1024 16.334 8.35123 14.564 8.35123 12.3852C8.35123 10.2064 10.1024 8.4364 12.258 8.4364C14.4136 8.4364 16.1648 10.2064 16.1648 12.3852C16.1648 14.564 14.4136 16.334 12.258 16.334Z" fill="black"/>
</svg>
