<svg width="30" height="60" viewBox="0 0 30 60" fill="none" xmlns="http://www.w3.org/2000/svg">
<g opacity="0.5">
<g clip-path="url(#clip0)">
<path d="M31.6667 6.66699H18.3334C17.3334 6.66699 16.6667 7.11144 16.6667 7.7781C16.6667 8.44477 17.3334 8.88921 18.3334 8.88921H23L10.3334 51.1114H5.00004C4.00004 51.1114 3.33337 51.5559 3.33337 52.2225C3.33337 52.8892 4.00004 53.3337 5.00004 53.3337H18.3334C19.3334 53.3337 20 52.8892 20 52.2225C20 51.5559 19.3334 51.1114 18.3334 51.1114H13.6667L26.3334 8.88921H31.6667C32.6667 8.88921 33.3334 8.44477 33.3334 7.7781C33.3334 7.11144 32.6667 6.66699 31.6667 6.66699Z" fill="black"/>
</g>
</g>
<defs>
<clipPath id="clip0">
<rect width="30" height="60" fill="white"/>
</clipPath>
</defs>
</svg>
