<svg width="24" height="24" viewBox="0 0 24 24" fill="none" xmlns="http://www.w3.org/2000/svg">
<circle cx="12" cy="12" r="11.625" fill="#FF9800"/>
<path d="M12 0C5.3726 0 0 5.3726 0 12C0 18.6274 5.3726 24 12 24C18.6274 24 24 18.6274 24 12C23.9925 5.3757 18.6243 0.0075 12 0ZM12 23.2C5.8144 23.2 0.8 18.1856 0.8 12C0.8 5.8144 5.8144 0.8 12 0.8C18.1856 0.8 23.2 5.8144 23.2 12C23.193 18.1826 18.1826 23.193 12 23.2Z" fill="black"/>
<path d="M12 0C5.3726 0 0 5.3726 0 12C0 18.6274 5.3726 24 12 24C18.6274 24 24 18.6274 24 12C23.9925 5.3757 18.6243 0.0075 12 0ZM12 23.2C5.8144 23.2 0.8 18.1856 0.8 12C0.8 5.8144 5.8144 0.8 12 0.8C18.1856 0.8 23.2 5.8144 23.2 12C23.193 18.1826 18.1826 23.193 12 23.2Z" fill="black"/>
<path d="M12 0C5.3726 0 0 5.3726 0 12C0 18.6274 5.3726 24 12 24C18.6274 24 24 18.6274 24 12C23.9925 5.3757 18.6243 0.0075 12 0ZM12 23.2C5.8144 23.2 0.8 18.1856 0.8 12C0.8 5.8144 5.8144 0.8 12 0.8C18.1856 0.8 23.2 5.8144 23.2 12C23.193 18.1826 18.1826 23.193 12 23.2Z" fill="#FF9800"/>
<mask id="path-5-inside-1" fill="white">
<path d="M6.27578 11.3183L19.2656 5.29688L13.1961 11.3183L17.7341 12.7953L4.6875 18.7031L10.6435 12.7953L6.27578 11.3183Z"/>
</mask>
<path d="M19.2656 5.29688L26.8863 12.9783L14.715 -4.52L19.2656 5.29688ZM6.27578 11.3183L1.72516 1.50145L-22.848 12.8923L2.80969 21.5685L6.27578 11.3183ZM10.6435 12.7953L18.2635 20.4774L30.6898 8.15172L14.1096 2.54514L10.6435 12.7953ZM4.6875 18.7031L-2.93247 11.021L9.15093 28.5599L4.6875 18.7031ZM17.7341 12.7953L22.1975 22.6521L47.616 11.1419L21.0828 2.50622L17.7341 12.7953ZM13.1961 11.3183L5.57548 3.63687L-7.00856 16.1213L9.84736 21.6074L13.1961 11.3183ZM14.715 -4.52L1.72516 1.50145L10.8264 21.1352L23.8162 15.1138L14.715 -4.52ZM2.80969 21.5685L7.17746 23.0454L14.1096 2.54514L9.74186 1.06818L2.80969 21.5685ZM3.02358 5.11314L-2.93247 11.021L12.3075 26.3853L18.2635 20.4774L3.02358 5.11314ZM9.15093 28.5599L22.1975 22.6521L13.2706 2.93846L0.224065 8.8463L9.15093 28.5599ZM21.0828 2.50622L16.5449 1.02926L9.84736 21.6074L14.3853 23.0844L21.0828 2.50622ZM20.8168 18.9998L26.8863 12.9783L11.645 -2.38458L5.57548 3.63687L20.8168 18.9998Z" fill="white" mask="url(#path-5-inside-1)"/>
</svg>
