<svg width="554" height="554" viewBox="0 0 554 554" fill="none" xmlns="http://www.w3.org/2000/svg">
<circle cx="277" cy="277" r="268.344" fill="#FF9800"/>
<path d="M277 0C124.018 0 0 124.018 0 277C0 429.983 124.018 554 277 554C429.983 554 554 429.983 554 277C553.827 124.089 429.911 0.173125 277 0ZM277 535.533C134.216 535.533 18.4667 419.784 18.4667 277C18.4667 134.216 134.216 18.4667 277 18.4667C419.784 18.4667 535.533 134.216 535.533 277C535.371 419.716 419.716 535.371 277 535.533Z" fill="#FF9800"/>
<path d="M302.936 266.409L394.421 296.185L133.356 414.402L249.498 299.199L255.712 293.036L247.422 290.233L159.428 260.478L419.013 140.147L300.8 257.424L294.508 263.666L302.936 266.409Z" stroke="white" stroke-width="10.8203" stroke-linecap="round"/>
</svg>
