<svg width="30" height="27" viewBox="0 0 30 27" fill="none" xmlns="http://www.w3.org/2000/svg">
<g opacity="0.5">
<path fill-rule="evenodd" clip-rule="evenodd" d="M13.2828 25.5997C13.8223 26.021 14.4856 26.2497 15.1684 26.25C15.8792 26.2505 16.5684 26.0039 17.1192 25.552C20.5286 22.812 23.7794 19.878 26.8556 16.7644C30.775 12.5824 31.0715 6.59865 27.5137 2.8402C25.7654 1.01474 23.3507 -0.0113536 20.8311 0.000479916C18.7084 0.000152539 16.6494 0.730663 14.9965 2.07061C13.3485 0.734087 11.2963 0.0037541 9.17958 0.000479916C6.652 -0.0254767 4.2265 1.00248 2.4792 2.8402C-1.06074 6.62252 -0.782051 12.5883 3.13738 16.7644C6.00135 19.8248 10.7272 23.6191 13.2828 25.5997ZM4.19288 4.48079C5.49209 3.13157 7.28286 2.37511 9.14998 2.3868H9.1737C11.0534 2.37636 12.8547 3.1444 14.1545 4.51062C14.3791 4.7509 14.6924 4.88695 15.0202 4.88647C15.348 4.88695 15.6614 4.7509 15.8859 4.51062C17.1829 3.14742 18.9793 2.37964 20.8549 2.3868C22.7222 2.37441 24.5132 3.13099 25.812 4.48079C28.4803 7.30858 28.1957 11.8843 25.1538 15.1238C22.1382 18.1627 18.957 21.0307 15.625 23.7145C15.3651 23.9239 14.9956 23.9239 14.7356 23.7145C12.7196 22.1455 7.71503 18.1783 4.85106 15.1238C1.82106 11.8784 1.53051 7.30858 4.19288 4.48079Z" fill="black"/>
</g>
</svg>
