<svg width="30" height="30" viewBox="0 0 30 30" fill="none" xmlns="http://www.w3.org/2000/svg">
<g opacity="0.5">
<path d="M9.24436 12.3453L7.724 10.8242L1.58824 16.9084C-0.529413 19.027 -0.529413 22.4494 1.58824 24.568L5.44345 28.425C6.47513 29.4571 7.88689 30.0004 9.29866 30.0004C10.7104 30.0004 12.0679 29.4571 13.1539 28.425L19.2896 22.2864L17.7693 20.7654L11.5249 26.9039C10.276 28.1534 8.21269 28.1534 6.90952 26.9039L3.0543 23.047C1.80543 21.7975 1.80543 19.7332 3.0543 18.4295L9.24436 12.3453Z" fill="black"/>
<path d="M28.4117 13.1055C30.5294 10.9869 30.5294 7.56452 28.4117 5.44591L24.5565 1.58896C22.4389 -0.529652 19.0181 -0.529652 16.9004 1.58896L10.7646 7.72749L12.285 9.24855L18.4208 3.11001C19.6696 1.86057 21.733 1.86057 23.0362 3.11001L26.8914 6.96697C28.1402 8.2164 28.1402 10.2807 26.8914 11.5844L20.7556 17.723L22.276 19.244L28.4117 13.1055Z" fill="black"/>
<path d="M19.6015 8.87355L8.85095 19.6289L10.3867 21.1654L21.1373 10.41L19.6015 8.87355Z" fill="black"/>
</g>
</svg>
