<svg width="30" height="28" viewBox="0 0 30 28" fill="none" xmlns="http://www.w3.org/2000/svg">
<g opacity="0.5">
<path d="M1.416 8V4.91H1.404L0.66 5.264L0.51 4.58L1.548 4.1H2.298V8H1.416Z" fill="black"/>
<path d="M3.024 14.8184H0.258V14.2664L0.756 13.8164C1.22 13.4004 1.548 13.0744 1.74 12.8384C1.932 12.5984 2.03 12.3704 2.034 12.1544C2.034 11.9864 1.98 11.8504 1.872 11.7464C1.768 11.6384 1.61 11.5844 1.398 11.5844C1.13 11.5844 0.852 11.6904 0.564 11.9024L0.306 11.2544C0.654 10.9864 1.078 10.8524 1.578 10.8524C2.01 10.8524 2.346 10.9664 2.586 11.1944C2.826 11.4184 2.946 11.7104 2.946 12.0704C2.946 12.3744 2.856 12.6584 2.676 12.9224C2.496 13.1864 2.24 13.4644 1.908 13.7564L1.548 14.0564V14.0684H3.024V14.8184Z" fill="black"/>
<path d="M0.228 22.796L0.414 22.106C0.702 22.266 1.004 22.346 1.32 22.346C1.548 22.346 1.724 22.298 1.848 22.202C1.972 22.106 2.034 21.982 2.034 21.83C2.034 21.646 1.958 21.506 1.806 21.41C1.654 21.314 1.468 21.266 1.248 21.266H0.876V20.612H1.236C1.416 20.612 1.576 20.576 1.716 20.504C1.856 20.428 1.926 20.314 1.926 20.162C1.926 20.038 1.876 19.94 1.776 19.868C1.68 19.792 1.538 19.754 1.35 19.754C1.062 19.754 0.792 19.832 0.54 19.988L0.354 19.328C0.482 19.248 0.654 19.18 0.87 19.124C1.09 19.064 1.32 19.034 1.56 19.034C1.96 19.034 2.274 19.126 2.502 19.31C2.734 19.494 2.85 19.726 2.85 20.006C2.85 20.45 2.612 20.752 2.136 20.912V20.924C2.38 20.968 2.582 21.076 2.742 21.248C2.902 21.42 2.982 21.63 2.982 21.878C2.982 22.226 2.838 22.512 2.55 22.736C2.262 22.956 1.874 23.066 1.386 23.066C0.91 23.066 0.524 22.976 0.228 22.796Z" fill="black"/>
</g>
<path opacity="0.5" d="M9.29922 14.6065C8.77349 14.6065 8.31348 14.1465 8.31348 13.6208C8.31348 13.095 8.77349 12.635 9.29922 12.635H29.0142C29.5399 12.635 29.9999 13.095 29.9999 13.6208C29.9999 14.1465 29.5399 14.6065 29.0142 14.6065H9.29922ZM9.29922 22.4925C8.77349 22.4925 8.31348 22.0325 8.31348 21.5067C8.31348 20.981 8.77349 20.521 9.29922 20.521H29.0142C29.5399 20.521 29.9999 20.981 29.9999 21.5067C29.9999 22.0325 29.5399 22.4925 29.0142 22.4925H9.29922ZM9.29922 6.72052C8.77349 6.72052 8.31348 6.2605 8.31348 5.73477C8.31348 5.20904 8.77349 4.74902 9.29922 4.74902H29.0142C29.5399 4.74902 29.9999 5.20904 29.9999 5.73477C29.9999 6.2605 29.5399 6.72052 29.0142 6.72052H9.29922Z" fill="black"/>
</svg>
