<svg width="30" height="22" viewBox="0 0 30 22" fill="none" xmlns="http://www.w3.org/2000/svg">
<g opacity="0.5">
<g clip-path="url(#clip0)">
<path d="M7.22892 11.6214C6.6506 11.6214 6.14458 11.113 6.14458 10.5319C6.14458 9.95084 6.6506 9.44241 7.22892 9.44241H28.9157C29.494 9.44241 30 9.95084 30 10.5319C30 11.113 29.494 11.6214 28.9157 11.6214H7.22892ZM7.22892 20.3375C6.6506 20.3375 6.14458 19.8291 6.14458 19.248C6.14458 18.6669 6.6506 18.1585 7.22892 18.1585H28.9157C29.494 18.1585 30 18.6669 30 19.248C30 19.8291 29.494 20.3375 28.9157 20.3375H7.22892ZM7.22892 2.90536C6.6506 2.90536 6.14458 2.39692 6.14458 1.81585C6.14458 1.23478 6.6506 0.726339 7.22892 0.726339H28.9157C29.494 0.726339 30 1.23478 30 1.81585C30 2.39692 29.494 2.90536 28.9157 2.90536H7.22892ZM0 10.5319C0 9.51504 0.795181 8.71607 1.80723 8.71607C2.81928 8.71607 3.61446 9.51504 3.61446 10.5319C3.61446 11.5488 2.81928 12.3478 1.80723 12.3478C0.795181 12.3478 0 11.5488 0 10.5319ZM0 19.248C0 18.2311 0.795181 17.4321 1.80723 17.4321C2.81928 17.4321 3.61446 18.2311 3.61446 19.248C3.61446 20.2649 2.81928 21.0638 1.80723 21.0638C0.795181 21.0638 0 20.2649 0 19.248ZM0 1.81585C0 0.798973 0.795181 0 1.80723 0C2.81928 0 3.61446 0.798973 3.61446 1.81585C3.61446 2.83272 2.81928 3.63169 1.80723 3.63169C0.795181 3.63169 0 2.83272 0 1.81585Z" fill="black"/>
</g>
</g>
<defs>
<clipPath id="clip0">
<rect width="30" height="21.0638" fill="white"/>
</clipPath>
</defs>
</svg>
