<svg width="69" height="24" viewBox="0 0 69 24" fill="none" xmlns="http://www.w3.org/2000/svg">
<rect width="69" height="24" rx="12" fill="#FF5B5B"/>
<path d="M28.7011 6.41411C28.6097 6.35811 28.5054 6.32637 28.3982 6.32191C28.2911 6.31744 28.1846 6.34039 28.0887 6.38858L23.7208 8.59661V5.69331C23.7208 5.52678 23.6547 5.36708 23.5369 5.24933C23.4192 5.13158 23.2594 5.06543 23.0929 5.06543H9.06196C8.89544 5.06543 8.73573 5.13158 8.61798 5.24933C8.50023 5.36708 8.43408 5.52678 8.43408 5.69331V18.3069C8.43408 18.4735 8.50023 18.6332 8.61798 18.7509C8.73573 18.8687 8.89544 18.9348 9.06196 18.9348H23.0929C23.2594 18.9348 23.4192 18.8687 23.5369 18.7509C23.6547 18.6332 23.7208 18.4735 23.7208 18.3069V15.4036L28.0887 17.6117C28.1845 17.6601 28.291 17.6832 28.3982 17.6787C28.5054 17.6743 28.6097 17.6424 28.7011 17.5862C28.7925 17.53 28.8679 17.4513 28.9202 17.3576C28.9726 17.264 29 17.1585 29 17.0512V6.94906C29 6.84179 28.9726 6.7363 28.9203 6.64265C28.8679 6.549 28.7925 6.47032 28.7011 6.41411V6.41411ZM27.7442 16.0303L23.3763 13.8222C23.2806 13.7738 23.174 13.7507 23.0668 13.7552C22.9596 13.7596 22.8554 13.7915 22.764 13.8477C22.6726 13.9039 22.5971 13.9826 22.5448 14.0763C22.4925 14.1699 22.465 14.2754 22.465 14.3827V17.6791H9.68984V6.32119H22.465V9.61754C22.465 9.72483 22.4925 9.83034 22.5448 9.92399C22.5971 10.0177 22.6726 10.0963 22.764 10.1525C22.8554 10.2088 22.9596 10.2406 23.0668 10.2451C23.174 10.2495 23.2806 10.2264 23.3763 10.178L27.7442 7.96999V16.0303ZM19.0611 11.4748L14.5793 8.53927C14.4846 8.47722 14.3749 8.44193 14.2618 8.43715C14.1486 8.43237 14.0363 8.45827 13.9367 8.51211C13.8371 8.56595 13.7539 8.64572 13.6959 8.74298C13.6379 8.84024 13.6074 8.95136 13.6074 9.06459V14.9357C13.6074 15.0489 13.6379 15.16 13.6959 15.2573C13.7539 15.3545 13.8371 15.4343 13.9367 15.4881C14.0363 15.542 14.1486 15.5679 14.2618 15.5631C14.3749 15.5583 14.4846 15.523 14.5793 15.461L19.0611 12.5255C19.1483 12.4683 19.22 12.3904 19.2696 12.2987C19.3191 12.207 19.3451 12.1044 19.3451 12.0001C19.3451 11.8959 19.3191 11.7933 19.2696 11.7015C19.22 11.6098 19.1483 11.5319 19.0611 11.4748ZM14.8631 13.7737V10.2266L17.571 12.0001L14.8631 13.7737Z" fill="white"/>
<path d="M35.871 16H41.331V14.336H37.847V7.238H35.871V16ZM42.5106 7.238V16H44.4866V7.238H42.5106ZM50.5857 16L53.5367 7.238H51.4307L50.3127 10.982C50.0137 11.983 49.7407 13.023 49.5197 14.076H49.4807C49.2727 12.984 48.9997 11.996 48.7007 10.943L47.6347 7.238H45.4637L48.2717 16H50.5857ZM59.6823 10.683H56.4583V8.863H59.8773V7.238H54.4823V16H60.0593V14.375H56.4583V12.295H59.6823V10.683Z" fill="white"/>
</svg>
