<svg width="20" height="18" viewBox="0 0 20 18" fill="none" xmlns="http://www.w3.org/2000/svg">
<path d="M12.591 5.72638C12.591 5.90211 12.4485 6.04457 12.2728 6.04457C12.097 6.04457 11.9546 5.90211 11.9546 5.72638C11.9546 5.55066 12.097 5.4082 12.2728 5.4082C12.4485 5.4082 12.591 5.55066 12.591 5.72638Z" fill="#404040" stroke="#404040"/>
<path d="M9.318 5.72638C9.318 5.90211 9.17555 6.04457 8.99982 6.04457C8.8241 6.04457 8.68164 5.90211 8.68164 5.72638C8.68164 5.55066 8.8241 5.4082 8.99982 5.4082C9.17555 5.4082 9.318 5.55066 9.318 5.72638Z" fill="#404040" stroke="#404040"/>
<path d="M15.8634 5.72638C15.8634 5.90211 15.721 6.04457 15.5452 6.04457C15.3695 6.04457 15.2271 5.90211 15.2271 5.72638C15.2271 5.55066 15.3695 5.4082 15.5452 5.4082C15.721 5.4082 15.8634 5.55066 15.8634 5.72638Z" fill="#404040" stroke="#404040"/>
<path d="M16.6799 11.3838L16.6506 11.3545H16.6092H6.13645C5.49623 11.3545 5.00918 10.8675 5.00918 10.2273V1.22727C5.00918 0.587047 5.49623 0.1 6.13645 0.1H18.4092C19.0494 0.1 19.5365 0.587047 19.5365 1.22727V13.5C19.5365 13.5643 19.5207 13.6161 19.4919 13.6593C19.4627 13.7031 19.4162 13.7438 19.3463 13.7787L19.3318 13.786L19.3204 13.7974C19.3205 13.7972 19.3206 13.7971 19.3206 13.7972C19.3202 13.7973 19.3132 13.8019 19.2927 13.8053C19.2713 13.8089 19.2484 13.8091 19.2274 13.8091C19.1777 13.8091 19.1407 13.8009 19.1095 13.787C19.0777 13.7729 19.0467 13.7507 19.0117 13.7157L16.6799 11.3838ZM18.7476 12.5889L18.9183 12.7596V12.5182V1.22727C18.9183 1.08182 18.8694 0.95284 18.7765 0.859971C18.6836 0.767102 18.5546 0.718182 18.4092 0.718182H6.13645C5.991 0.718182 5.86202 0.767102 5.76915 0.859971C5.67628 0.95284 5.62736 1.08182 5.62736 1.22727V10.2273C5.62736 10.3727 5.67628 10.5017 5.76915 10.5946C5.86202 10.6874 5.991 10.7364 6.13645 10.7364H16.7728C16.8225 10.7364 16.8595 10.7445 16.8907 10.7584C16.9224 10.7725 16.9535 10.7948 16.9885 10.8298L18.7476 12.5889Z" fill="#404040" stroke="#404040" stroke-width="0.2"/>
<path d="M2.16385 14.955L2.16421 14.9553L2.16957 14.9473C2.22774 14.86 2.31396 14.8282 2.41364 14.8282H11.0455C11.1909 14.8282 11.3199 14.7792 11.4128 14.6864C11.5056 14.5935 11.5545 14.4645 11.5545 14.3191V12.6827C11.5545 12.5827 11.5874 12.5071 11.6378 12.4568C11.6881 12.4065 11.7636 12.3736 11.8636 12.3736C11.9636 12.3736 12.0392 12.4065 12.0895 12.4568C12.1398 12.5071 12.1727 12.5827 12.1727 12.6827V14.3191C12.1727 14.9593 11.6857 15.4463 11.0455 15.4463H2.61818H2.57091L2.54091 15.4829L0.659091 17.7738L0.658706 17.7735L0.653159 17.7818C0.594988 17.869 0.508763 17.9009 0.409091 17.9009C0.309088 17.9009 0.233524 17.868 0.183211 17.8177C0.132898 17.7674 0.1 17.6918 0.1 17.5918V5.31907C0.1 4.67884 0.587047 4.1918 1.22727 4.1918H3.68182C3.78182 4.1918 3.85739 4.22469 3.9077 4.27501C3.95801 4.32532 3.99091 4.40089 3.99091 4.50089C3.99091 4.60089 3.95801 4.67646 3.9077 4.72677C3.85739 4.77708 3.78182 4.80998 3.68182 4.80998H1.22727C1.08182 4.80998 0.95284 4.8589 0.859971 4.95177C0.767102 5.04464 0.718182 5.17362 0.718182 5.31907V16.4463V16.7271L0.895668 16.5096L2.16385 14.955Z" fill="#404040" stroke="#404040" stroke-width="0.2"/>
</svg>
