<svg width="18" height="19" viewBox="0 0 18 19" fill="none" xmlns="http://www.w3.org/2000/svg">
<path d="M4.71429 0.0078125C4.47857 0.0078125 4.28571 0.202131 4.28571 0.439631V2.44758C3.66429 2.6419 3.21429 3.20327 3.21429 3.89418C3.21429 4.71463 3.9 5.40554 4.71429 5.40554C5.52857 5.40554 6.21429 4.71463 6.21429 3.89418C6.21429 3.22486 5.76429 2.6419 5.14286 2.44758V0.439631C5.14286 0.202131 4.95 0.0078125 4.71429 0.0078125ZM13.2857 0.0078125C13.05 0.0078125 12.8571 0.202131 12.8571 0.439631V2.44758C12.2357 2.6419 11.7857 3.20327 11.7857 3.89418C11.7857 4.71463 12.4714 5.40554 13.2857 5.40554C14.1 5.40554 14.7857 4.71463 14.7857 3.89418C14.7857 3.22486 14.3357 2.6419 13.7143 2.44758V0.439631C13.7143 0.202131 13.5214 0.0078125 13.2857 0.0078125ZM2.14286 0.871449C0.964286 0.871449 0 1.84304 0 3.03054V16.8271C0 18.0146 0.964286 18.9862 2.14286 18.9862H15.8571C17.0357 18.9862 18 18.0146 18 16.8271V3.03054C18 1.84304 17.0357 0.871449 15.8571 0.871449H14.5714C14.3357 0.871449 14.1429 1.06577 14.1429 1.30327C14.1429 1.54077 14.3571 1.73509 14.5714 1.73509H15.8571C16.5857 1.73509 17.1429 2.31804 17.1429 3.03054V6.05327H0.857143V3.03054C0.857143 2.29645 1.43571 1.73509 2.14286 1.73509H3.42857C3.66429 1.73509 3.85714 1.54077 3.85714 1.30327C3.85714 1.06577 3.64286 0.871449 3.42857 0.871449H2.14286ZM5.95714 0.871449C5.74286 0.871449 5.52857 1.08735 5.55 1.32485C5.55 1.54076 5.76429 1.75668 6 1.73509H12C12.2357 1.73509 12.4286 1.54077 12.4286 1.30327C12.4286 1.06577 12.2143 0.871449 12 0.871449H5.95714ZM4.71429 3.24645C5.07857 3.24645 5.35714 3.52713 5.35714 3.89418C5.35714 4.26122 5.07857 4.5419 4.71429 4.5419C4.35 4.5419 4.07143 4.26122 4.07143 3.89418C4.07143 3.52713 4.35 3.24645 4.71429 3.24645ZM13.2857 3.24645C13.65 3.24645 13.9286 3.52713 13.9286 3.89418C13.9286 4.26122 13.65 4.5419 13.2857 4.5419C12.9214 4.5419 12.6429 4.26122 12.6429 3.89418C12.6429 3.52713 12.9214 3.24645 13.2857 3.24645ZM0.857143 6.9169H17.1429V16.8487C17.1429 17.5828 16.5643 18.1442 15.8571 18.1442H2.14286C1.41429 18.1442 0.857143 17.5612 0.857143 16.8487V6.9169ZM9 9.2919C8.76429 9.2919 8.57143 9.48622 8.57143 9.72372V12.3146H6C5.76429 12.3146 5.57143 12.5089 5.57143 12.7464C5.57143 12.9839 5.76429 13.1783 6 13.1783H8.57143V15.7692C8.57143 16.0067 8.76429 16.201 9 16.201C9.23571 16.201 9.42857 16.0067 9.42857 15.7692V13.1783H12C12.2357 13.1783 12.4286 12.9839 12.4286 12.7464C12.4286 12.5089 12.2357 12.3146 12 12.3146H9.42857V9.72372C9.42857 9.48622 9.23571 9.2919 9 9.2919Z" fill="#FF9800"/>
</svg>
