<svg width="64" height="64" viewBox="0 0 64 64" fill="none" xmlns="http://www.w3.org/2000/svg">
<path d="M32 62C48.5685 62 62 48.5685 62 32C62 15.4315 48.5685 2 32 2C15.4315 2 2 15.4315 2 32C2 48.5685 15.4315 62 32 62Z" fill="white" stroke="#FF9800" stroke-width="3" stroke-linecap="round" stroke-linejoin="round"/>
<path fill-rule="evenodd" clip-rule="evenodd" d="M43.0202 42.463L41.0432 17.819C40.9098 16.155 39.0474 15.237 37.6464 16.1445L17.1932 29.3932C15.2482 30.6531 16.3142 33.6761 18.6193 33.4373L27.5953 32.5073C30.1233 32.2454 32.5778 33.4549 33.9103 35.6191L38.9444 43.7955C40.1593 45.7686 43.2055 44.7727 43.0202 42.463ZM43.2413 17.6426C42.9743 14.3147 39.2497 12.4787 36.4475 14.2938L15.9944 27.5424C12.1043 30.0622 14.2364 36.1083 18.8466 35.6306L27.8226 34.7007C29.5079 34.526 31.1442 35.3324 32.0326 36.7752L37.0667 44.9516C39.4963 48.8978 45.5888 46.9061 45.2182 42.2867L43.2413 17.6426Z" fill="#FF9800"/>
<path fill-rule="evenodd" clip-rule="evenodd" d="M29.2441 33.1635L38.5893 14.4752L40.5615 15.4614L31.2163 34.1498L29.2441 33.1635Z" fill="#FF9800"/>
<path fill-rule="evenodd" clip-rule="evenodd" d="M19.1371 43.3467C18.0479 42.802 17.6064 41.4775 18.1511 40.3882L19.9945 36.7017L21.9668 37.688L19.1371 43.3467Z" fill="#FF9800"/>
<path fill-rule="evenodd" clip-rule="evenodd" d="M22.8915 49.4193C21.8023 48.8746 21.3608 47.5501 21.9055 46.4608L26.807 36.6588L28.7793 37.645L22.8915 49.4193Z" fill="#FF9800"/>
<path fill-rule="evenodd" clip-rule="evenodd" d="M31.7118 46.6677C30.6226 46.123 30.1811 44.7984 30.7258 43.7092L32.1718 40.8175L34.144 41.8037L31.7118 46.6677Z" fill="#FF9800"/>
</svg>
