<svg width="39" height="39" viewBox="0 0 39 39" fill="none" xmlns="http://www.w3.org/2000/svg">
<path d="M0.9 0.8375C2.1 -0.3625 4 -0.3625 5.1 0.8375L19.2 14.9375L33.3 0.8375C34.5 -0.3625 36.4 -0.3625 37.5 0.8375C38.7 2.0375 38.7 3.93751 37.5 5.03751L23.4 19.1375L37.5 33.2375C38.7 34.4375 38.7 36.3375 37.5 37.4375C36.3 38.6375 34.4 38.6375 33.3 37.4375L19.2 23.3375L5.1 37.6375C3.9 38.8375 2 38.8375 0.9 37.6375C-0.3 36.4375 -0.3 34.5375 0.9 33.4375L15 19.2375L0.9 5.13749C-0.3 3.93749 -0.3 2.0375 0.9 0.8375Z" fill="white"/>
</svg>
