<svg width="30" height="30" viewBox="0 0 30 30" fill="none" xmlns="http://www.w3.org/2000/svg">
<g opacity="0.5">
<path d="M11.352 0C11.7467 0.0402395 12.023 0.402395 12.023 0.80479V5.75425C19.9559 5.95544 25.6787 9.25508 28.3625 13.8424C31.1252 18.5906 30.4542 24.6668 25.876 29.576C25.5998 29.8577 25.1656 29.8979 24.8499 29.6565C24.5341 29.4151 24.4552 28.9724 24.6131 28.6505C26.6654 24.868 25.8366 21.005 23.3106 18.4297C20.8637 15.9348 16.7985 14.6874 12.023 16.1763V21.4074C12.023 21.7293 11.8256 22.011 11.5494 22.1317C11.2731 22.2525 10.9179 22.172 10.6811 21.9708L0.22225 11.5085C-0.0934888 11.1866 -0.0540215 10.6635 0.22225 10.3415L10.6811 0.281657C10.9179 -1.96434e-05 11.1547 0 11.352 0ZM10.4838 2.6558L1.91935 10.8647L10.4443 19.3954V15.4922C10.4443 15.1703 10.6811 14.8484 10.9574 14.7277C16.4828 12.7962 21.4557 14.1643 24.4157 17.2225C26.3496 19.1942 27.4152 21.8903 27.2574 24.7473C28.915 21.2867 28.7177 17.7054 26.9416 14.6472C24.5341 10.5025 19.0876 7.32357 11.1942 7.32357C10.7995 7.32357 10.4048 6.92118 10.4048 6.51878V2.6558H10.4838Z" fill="black"/>
</g>
</svg>
