<svg width="15" height="15" viewBox="0 0 15 15" fill="none" xmlns="http://www.w3.org/2000/svg">
<g opacity="0.5">
<path d="M0 6.25C0 9.6875 2.8125 12.5 6.25 12.5C7.75 12.5 9.125 11.9375 10.1875 11.0625L13.9375 14.8125C14.1875 15.0625 14.5625 15.0625 14.8125 14.8125C15.0625 14.5625 15.0625 14.1875 14.8125 13.9375L11.0625 10.1875C11.9375 9.125 12.5 7.75 12.5 6.25C12.5 2.8125 9.6875 0 6.25 0C2.8125 0 0 2.8125 0 6.25ZM6.25 1.25C9 1.25 11.25 3.5 11.25 6.25C11.25 9 9 11.25 6.25 11.25C3.5 11.25 1.25 9 1.25 6.25C1.25 3.5 3.5 1.25 6.25 1.25Z" fill="#404040"/>
</g>
</svg>
