<svg width="28" height="7" viewBox="0 0 28 7" fill="none" xmlns="http://www.w3.org/2000/svg">
<path d="M3.38335 6.76671C5.25193 6.76671 6.76671 5.25193 6.76671 3.38335C6.76671 1.51478 5.25193 0 3.38335 0C1.51478 0 0 1.51478 0 3.38335C0 5.25193 1.51478 6.76671 3.38335 6.76671Z" fill="black" fill-opacity="0.5"/>
<path d="M13.9998 6.76671C15.8684 6.76671 17.3832 5.25193 17.3832 3.38335C17.3832 1.51478 15.8684 0 13.9998 0C12.1312 0 10.6165 1.51478 10.6165 3.38335C10.6165 5.25193 12.1312 6.76671 13.9998 6.76671Z" fill="black" fill-opacity="0.5"/>
<path d="M24.6167 6.76671C26.4853 6.76671 28.0001 5.25193 28.0001 3.38335C28.0001 1.51478 26.4853 0 24.6167 0C22.7482 0 21.2334 1.51478 21.2334 3.38335C21.2334 5.25193 22.7482 6.76671 24.6167 6.76671Z" fill="black" fill-opacity="0.5"/>
</svg>
