<svg width="22" height="22" viewBox="0 0 22 22" fill="none" xmlns="http://www.w3.org/2000/svg">
<line x1="3.87988" y1="3.65002" x2="17.9599" y2="3.65002" stroke="#9F9F9F" stroke-width="1.5"/>
<line x1="3.87988" y1="18.61" x2="17.9599" y2="18.61" stroke="#9F9F9F" stroke-width="1.5"/>
<line x1="3.87988" y1="11.5699" x2="17.9599" y2="11.5699" stroke="#9F9F9F" stroke-width="1.5"/>
<path d="M10.04 3.52C10.04 5.46404 8.46404 7.04 6.52 7.04C4.57596 7.04 3 5.46404 3 3.52C3 1.57596 4.57596 0 6.52 0C8.46404 0 10.04 1.57596 10.04 3.52Z" fill="white"/>
<path d="M10.04 18.48C10.04 20.424 8.46404 22 6.52 22C4.57596 22 3 20.424 3 18.48C3 16.5359 4.57596 14.96 6.52 14.96C8.46404 14.96 10.04 16.5359 10.04 18.48Z" fill="white"/>
<path fill-rule="evenodd" clip-rule="evenodd" d="M6.52 5.72C7.73503 5.72 8.72 4.73503 8.72 3.52C8.72 2.30497 7.73503 1.32 6.52 1.32C5.30497 1.32 4.32 2.30497 4.32 3.52C4.32 4.73503 5.30497 5.72 6.52 5.72ZM6.52 7.04C8.46404 7.04 10.04 5.46404 10.04 3.52C10.04 1.57596 8.46404 0 6.52 0C4.57596 0 3 1.57596 3 3.52C3 5.46404 4.57596 7.04 6.52 7.04Z" fill="#9F9F9F"/>
<path fill-rule="evenodd" clip-rule="evenodd" d="M6.52 20.68C7.73503 20.68 8.72 19.695 8.72 18.48C8.72 17.2649 7.73503 16.28 6.52 16.28C5.30497 16.28 4.32 17.2649 4.32 18.48C4.32 19.695 5.30497 20.68 6.52 20.68ZM6.52 22C8.46404 22 10.04 20.424 10.04 18.48C10.04 16.5359 8.46404 14.96 6.52 14.96C4.57596 14.96 3 16.5359 3 18.48C3 20.424 4.57596 22 6.52 22Z" fill="#9F9F9F"/>
<path d="M19.7199 11.44C19.7199 13.3841 18.144 14.96 16.1999 14.96C14.2559 14.96 12.6799 13.3841 12.6799 11.44C12.6799 9.496 14.2559 7.92004 16.1999 7.92004C18.144 7.92004 19.7199 9.496 19.7199 11.44Z" fill="white"/>
<path fill-rule="evenodd" clip-rule="evenodd" d="M16.1999 13.64C17.415 13.64 18.3999 12.6551 18.3999 11.44C18.3999 10.225 17.415 9.24004 16.1999 9.24004C14.9849 9.24004 13.9999 10.225 13.9999 11.44C13.9999 12.6551 14.9849 13.64 16.1999 13.64ZM16.1999 14.96C18.144 14.96 19.7199 13.3841 19.7199 11.44C19.7199 9.496 18.144 7.92004 16.1999 7.92004C14.2559 7.92004 12.6799 9.496 12.6799 11.44C12.6799 13.3841 14.2559 14.96 16.1999 14.96Z" fill="#9F9F9F"/>
</svg>
