<svg width="22" height="23" viewBox="0 0 22 23" fill="none" xmlns="http://www.w3.org/2000/svg">
<path fill-rule="evenodd" clip-rule="evenodd" d="M20.5 1.7998H17C15.067 1.7998 13.5 3.36681 13.5 5.29981V8.7998H20.5V1.7998ZM1.5 1.79982V8.79982H8.5V5.29982C8.5 3.36682 6.933 1.79982 5 1.79982L1.5 1.79982ZM0 22.2998V12.2998H10V17.2998C10 20.0612 7.76142 22.2998 5 22.2998H0ZM8.5 13.7998H1.5V20.7998H5C6.933 20.7998 8.5 19.2328 8.5 17.2998V13.7998ZM17 20.7998H20.5V13.7998H13.5V17.2998C13.5 19.2328 15.067 20.7998 17 20.7998ZM22 0.299805V10.2998H12V5.29981C12 2.53838 14.2386 0.299805 17 0.299805H22ZM0 0.29982L5 0.29982C7.76142 0.29982 10 2.5384 10 5.29982V10.2998H0V0.29982ZM17 22.2998C14.2386 22.2998 12 20.0613 12 17.2998V12.2998H22V22.2998H17Z" fill="#9F9F9F"/>
</svg>
