<svg width="24" height="24" viewBox="0 0 24 24" fill="none" xmlns="http://www.w3.org/2000/svg">
<path d="M12.5049 3.81513V3.91513H12.6049H17.1427C17.3923 3.91513 17.5925 3.99787 17.73 4.13542C17.8676 4.27296 17.9503 4.47314 17.9503 4.72269V17.4286C17.9503 17.6781 17.8676 17.8783 17.73 18.0158C17.5925 18.1534 17.3923 18.2361 17.1427 18.2361H4.43686C4.18732 18.2361 3.98713 18.1534 3.84959 18.0158C3.71204 17.8783 3.6293 17.6781 3.6293 17.4286V4.72269C3.6293 4.47314 3.71204 4.27296 3.84959 4.13542C3.98713 3.99787 4.18732 3.91513 4.43686 3.91513H8.97467H9.07467V3.81513C9.07467 2.87204 9.84671 2.1 10.7898 2.1C11.7329 2.1 12.5049 2.87204 12.5049 3.81513ZM17.1427 17.5286H17.2427V17.4286V4.72269V4.62269H17.1427H14.4201H14.3201V4.72269V5.53025H7.25955V4.72269V4.62269H7.15955H4.43686H4.33686V4.72269V17.4286V17.5286H4.43686H17.1427Z" fill="#404040" stroke="#404040" stroke-width="0.2"/>
<path d="M9.07513 9.16108V8.45352H15.2281V9.16108H9.07513ZM7.06 8.45352V9.16108H6.35244V8.45352H7.06ZM9.07513 11.8838V11.1762H15.2281V11.8838H9.07513ZM7.06 11.1762V11.8838H6.35244V11.1762H7.06ZM9.07513 14.6065V13.8989H15.2281V14.6065H9.07513ZM7.06 13.8989V14.6065H6.35244V13.8989H7.06Z" fill="#404040" stroke="#404040" stroke-width="0.2"/>
<path d="M13.2353 21.2181H13.3353V21.1181V18.1299H14.0176V21.1181C14.0176 21.3601 13.9374 21.554 13.8043 21.6871C13.6712 21.8202 13.4773 21.9005 13.2353 21.9005H0.882353C0.640372 21.9005 0.446492 21.8202 0.313358 21.6871C0.180224 21.554 0.1 21.3601 0.1 21.1181V8.76517C0.1 8.52318 0.180224 8.3293 0.313358 8.19617C0.446492 8.06304 0.640372 7.98281 0.882353 7.98281H3.34118V8.66517H0.882353H0.782353V8.76517V21.1181V21.2181H0.882353H13.2353Z" fill="#404040" stroke="#404040" stroke-width="0.2"/>
</svg>
