<svg width="29" height="30" viewBox="0 0 29 30" fill="none" xmlns="http://www.w3.org/2000/svg">
<path fill-rule="evenodd" clip-rule="evenodd" d="M22.4842 22.2255L17.4764 5.52456C17.1383 4.3969 15.7184 4.03931 14.8865 4.87232L2.74232 17.0327C1.58744 18.1891 2.76961 20.116 4.32376 19.6104L10.3757 17.6417C12.0801 17.0872 13.9515 17.5582 15.1903 18.8535L19.8708 23.747C21.0003 24.9279 22.9536 23.7907 22.4842 22.2255ZM18.966 5.0779C18.2897 2.82259 15.4499 2.10742 13.7861 3.77343L1.64196 15.9338C-0.667775 18.2467 1.69651 22.1004 4.80483 21.0892L10.8567 19.1205C11.993 18.7509 13.2406 19.0649 14.0665 19.9284L18.747 24.8219C21.006 27.1837 24.9125 24.9093 23.9738 21.7788L18.966 5.0779Z" fill="white"/>
<path fill-rule="evenodd" clip-rule="evenodd" d="M11.6074 17.8506L15.2876 3.58203L16.7934 3.97041L13.1132 18.239L11.6074 17.8506Z" fill="white"/>
<path fill-rule="evenodd" clip-rule="evenodd" d="M6.14561 26.3671C5.31397 26.1526 4.81367 25.3045 5.02817 24.4728L5.75411 21.6582L7.25993 22.0466L6.14561 26.3671Z" fill="white"/>
<path fill-rule="evenodd" clip-rule="evenodd" d="M9.63194 29.9992C8.8003 29.7847 8.3 28.9366 8.5145 28.105L10.4448 20.6211L11.9506 21.0095L9.63194 29.9992Z" fill="white"/>
<path fill-rule="evenodd" clip-rule="evenodd" d="M15.3078 26.7974C14.4761 26.5829 13.9758 25.7348 14.1903 24.9032L14.7598 22.6953L16.2656 23.0837L15.3078 26.7974Z" fill="white"/>
</svg>
