<svg width="29" height="30" viewBox="0 0 29 30" fill="none" xmlns="http://www.w3.org/2000/svg">
<path fill-rule="evenodd" clip-rule="evenodd" d="M22.4832 22.2262L17.4754 5.52525C17.1373 4.39759 15.7174 4.04 14.8855 4.87301L2.74135 17.0334C1.58647 18.1898 2.76863 20.1167 4.32278 19.6111L10.3747 17.6424C12.0791 17.0879 13.9505 17.5589 15.1893 18.8542L19.8698 23.7477C20.9993 24.9286 22.9526 23.7914 22.4832 22.2262ZM18.965 5.07859C18.2887 2.82328 15.4489 2.10811 13.7851 3.77412L1.64099 15.9345C-0.66875 18.2474 1.69554 22.1011 4.80386 21.0899L10.8557 19.1212C11.992 18.7516 13.2396 19.0656 14.0655 19.9291L18.746 24.8226C21.005 27.1844 24.9115 24.91 23.9728 21.7795L18.965 5.07859Z" fill="#9F9F9F"/>
<path fill-rule="evenodd" clip-rule="evenodd" d="M11.6083 17.8508L15.2885 3.5822L16.7943 3.97058L13.1141 18.2392L11.6083 17.8508Z" fill="#9F9F9F"/>
<path fill-rule="evenodd" clip-rule="evenodd" d="M6.14514 26.3675C5.3135 26.153 4.8132 25.3049 5.0277 24.4732L5.75364 21.6586L7.25946 22.047L6.14514 26.3675Z" fill="#9F9F9F"/>
<path fill-rule="evenodd" clip-rule="evenodd" d="M9.63218 30C8.80054 29.7855 8.30024 28.9374 8.51474 28.1058L10.445 20.6219L11.9508 21.0103L9.63218 30Z" fill="#9F9F9F"/>
<path fill-rule="evenodd" clip-rule="evenodd" d="M15.3076 26.7974C14.4759 26.5829 13.9756 25.7348 14.1901 24.9032L14.7596 22.6953L16.2654 23.0837L15.3076 26.7974Z" fill="#9F9F9F"/>
</svg>
