<svg width="34" height="34" viewBox="0 0 34 34" fill="none" xmlns="http://www.w3.org/2000/svg">
<path d="M10.0953 5.10235L10.0952 5.10219C9.46581 5.44311 8.61377 5.43869 7.80913 5.41431M10.0953 5.10235L5.39016 7.83295C5.39017 7.83306 5.39017 7.83317 5.39018 7.83328C5.37779 7.39966 5.36609 6.97978 5.41076 6.61349C5.45558 6.24598 5.55469 5.95701 5.74378 5.76792C5.93287 5.57882 6.22184 5.47972 6.58935 5.4349C6.95564 5.39023 7.37552 5.40192 7.80913 5.41431M10.0953 5.10235L10.1012 5.09873M10.0953 5.10235L10.1012 5.09873M7.80913 5.41431C7.80907 5.41431 7.80901 5.41431 7.80894 5.41431L7.81313 5.27624L7.80918 5.41431C7.80917 5.41431 7.80915 5.41431 7.80913 5.41431ZM10.1012 5.09873C10.4074 4.91235 10.6604 4.63048 10.8839 4.31579C11.0911 4.02391 11.2789 3.69489 11.4612 3.37535C11.4753 3.35061 11.4894 3.32592 11.5035 3.30132C11.5328 3.25073 11.562 3.20029 11.5909 3.15012C11.783 2.81756 11.9678 2.49741 12.1682 2.23205C12.3991 1.92618 12.6342 1.71603 12.8974 1.64192C13.1363 1.58002 13.4214 1.63411 13.7524 1.77429C14.0823 1.91396 14.4366 2.12967 14.8067 2.36403L14.8067 2.36405M10.1012 5.09873L14.8067 2.36405M14.8067 2.36405L14.8089 2.3654M14.8067 2.36405L14.8089 2.3654M14.8089 2.3654C15.1526 2.57406 15.5164 2.79384 15.8821 2.9609C16.2474 3.12781 16.6253 3.24735 16.9984 3.24735C17.3714 3.24735 17.7493 3.12781 18.1146 2.9609C18.4803 2.79384 18.8441 2.57406 19.1878 2.3654L19.1878 2.36543M14.8089 2.3654L19.1878 2.36543M19.1878 2.36543L19.19 2.36403M19.1878 2.36543L19.19 2.36403M19.19 2.36403C19.5601 2.12967 19.9144 1.91396 20.2443 1.77429M19.19 2.36403L20.2443 1.77429M28.8939 10.0948L28.894 10.0947C28.5531 9.46527 28.5575 8.61315 28.5819 7.80846M28.8939 10.0948L26.1633 5.38968C26.1632 5.38968 26.163 5.38968 26.1629 5.38969C26.5966 5.3773 27.0164 5.36561 27.3827 5.41028C27.7502 5.45509 28.0392 5.5542 28.2283 5.74329C28.4174 5.93238 28.5165 6.22135 28.5613 6.58886C28.606 6.9551 28.5943 7.37491 28.5819 7.80846M28.8939 10.0948L28.8975 10.1007M28.8939 10.0948L28.8975 10.1007M28.5819 7.80846L28.72 7.81264L28.5819 7.8087C28.5819 7.80862 28.5819 7.80854 28.5819 7.80846ZM28.8975 10.1007C29.0839 10.4069 29.3657 10.66 29.6804 10.8834C29.9723 11.0906 30.3013 11.2784 30.6209 11.4607C30.6458 11.4749 30.6706 11.4891 30.6953 11.5032L30.6953 11.5033M28.8975 10.1007L30.6953 11.5033M30.6953 11.5033L30.6975 11.5044M30.6953 11.5033L30.6975 11.5044M30.6975 11.5044C31.0815 11.715 31.4534 11.9193 31.7515 12.1458C32.0499 12.3727 32.2552 12.6079 32.3297 12.8722C32.3916 13.1112 32.3375 13.3963 32.1973 13.7273C32.0576 14.0572 31.8419 14.4115 31.6076 14.7816L31.6062 14.7838M30.6975 11.5044L31.6062 14.7838M31.6062 14.7838C31.3975 15.1274 31.1777 15.4913 31.0107 15.8569C30.8438 16.2223 30.7242 16.6002 30.7242 16.9732C30.7242 17.3463 30.8438 17.7242 31.0107 18.0895C31.1777 18.4552 31.3975 18.819 31.6062 19.1627L31.6062 19.1627M31.6062 14.7838L31.6062 19.1627M31.6062 19.1627L31.6076 19.1649M31.6062 19.1627L31.6076 19.1649M31.6076 19.1649C31.8419 19.5349 32.0576 19.8893 32.1973 20.2191C32.3375 20.5502 32.3916 20.8353 32.3297 21.0742C32.2552 21.3385 32.0499 21.5738 31.7515 21.8006C31.4534 22.0272 31.0815 22.2315 30.6975 22.4421L30.6864 22.448C30.3468 22.6299 29.9869 22.8227 29.6717 23.0443C29.3535 23.2679 29.0697 23.5284 28.8951 23.8499L31.6076 19.1649ZM23.8768 28.8688L23.8769 28.8689C24.5063 28.528 25.3583 28.5324 26.1629 28.5568C26.5965 28.5692 27.0164 28.5809 27.3827 28.5362C27.7502 28.4914 28.0392 28.3923 28.2283 28.2032C28.4174 28.0141 28.5165 27.7251 28.5613 27.3576C28.606 26.9914 28.5943 26.5717 28.5819 26.1381C28.5819 26.138 28.5819 26.1379 28.5819 26.1378L28.72 26.1338C28.6953 25.3458 28.6707 24.5086 29.0155 23.9176L23.8768 28.8688ZM23.8768 28.8688L23.8709 28.8724M23.8768 28.8688L23.8709 28.8724M23.8709 28.8724C23.5647 29.0588 23.3116 29.3406 23.0882 29.6553C22.881 29.9472 22.6932 30.2762 22.5109 30.5957C22.4967 30.6206 22.4825 30.6455 22.4683 30.6702L22.4672 30.6723M23.8709 28.8724L22.4672 30.6723M22.4672 30.6723C22.2566 31.0563 22.0523 31.4283 21.8257 31.7264C21.5989 32.0248 21.3637 32.2301 21.0993 32.3045C20.8604 32.3665 20.5753 32.3124 20.2443 32.1722C19.9144 32.0325 19.5601 31.8168 19.19 31.5824L19.1878 31.5811M22.4672 30.6723L19.1878 31.5811M19.1878 31.5811C18.8441 31.3724 18.4803 31.1526 18.1146 30.9856C17.7493 30.8187 17.3714 30.6991 16.9984 30.6991C16.6253 30.6991 16.2474 30.8187 15.8821 30.9856C15.5164 31.1526 15.1526 31.3724 14.8089 31.5811L14.8089 31.581M19.1878 31.5811L14.8089 31.581M14.8089 31.581L14.8067 31.5824M14.8089 31.581L14.8067 31.5824M14.8067 31.5824C14.4366 31.8168 14.0823 32.0325 13.7524 32.1722C13.4214 32.3124 13.1363 32.3665 12.8974 32.3046C12.6331 32.2301 12.3978 32.0248 12.171 31.7264C11.9444 31.4283 11.7401 31.0563 11.5295 30.6723L11.5236 30.6613C11.3417 30.3218 11.1489 29.9618 10.9273 29.6466C10.7036 29.3283 10.4431 29.0445 10.1215 28.8698C9.61944 28.5799 8.99597 28.5321 8.37951 28.5321H8.3785H8.37749H8.37648H8.37546H8.37445H8.37344H8.37243H8.37141H8.3704H8.36938H8.36837H8.36735H8.36633H8.36531H8.3643H8.36328H8.36226H8.36124H8.36022H8.3592H8.35818H8.35716H8.35613H8.35511H8.35409H8.35307H8.35204H8.35102H8.34999H8.34897H8.34794H8.34691H8.34589H8.34486H8.34383H8.3428H8.34177H8.34074H8.33971H8.33868H8.33765H8.33662H8.33559H8.33455H8.33352H8.33249H8.33145H8.33042H8.32938H8.32835H8.32731H8.32628H8.32524H8.3242H8.32317H8.32213H8.32109H8.32005H8.31901H8.31797H8.31693H8.31589H8.31485H8.31381H8.31277H8.31173H8.31068H8.30964H8.3086H8.30755H8.30651H8.30546H8.30442H8.30337H8.30233H8.30128H8.30023H8.29919H8.29814H8.29709H8.29604H8.295H8.29395H8.2929H8.29185H8.2908H8.28975H8.2887H8.28764H8.28659H8.28554H8.28449H8.28344H8.28238H8.28133H8.28027H8.27922H8.27817H8.27711H8.27606H8.275H8.27394H8.27289H8.27183H8.27077H8.26972H8.26866H8.2676H8.26654H8.26549H8.26443H8.26337H8.26231H8.26125H8.26019H8.25913H8.25807H8.25701H8.25594H8.25488H8.25382H8.25276H8.2517H8.25063H8.24957H8.24851H8.24744H8.24638H8.24532H8.24425H8.24319H8.24212H8.24106H8.23999H8.23892H8.23786H8.23679H8.23572H8.23466H8.23359H8.23252H8.23145H8.23039H8.22932H8.22825H8.22718H8.22611H8.22504H8.22397H8.2229H8.22183H8.22076H8.21969H8.21862H8.21755H8.21648H8.21541H8.21434H8.21327H8.21219H8.21112H8.21005H8.20898H8.2079H8.20683H8.20576H8.20469H8.20361H8.20254H8.20146H8.20039H8.19932H8.19824H8.19717H8.19609H8.19502H8.19394H8.19287H8.19179H8.19071H8.18964H8.18856H8.18749H8.18641H8.18533H8.18426H8.18318H8.1821H8.18103H8.17995H8.17887H8.17779H8.17672H8.17564H8.17456H8.17348H8.1724H8.17133H8.17025H8.16917H8.16809H8.16701H8.16593H8.16485H8.16377H8.16269H8.16161H8.16053H8.15946H8.15838H8.1573H8.15622H8.15514H8.15406H8.15298H8.15189H8.15081H8.14973H8.14865H8.14757H8.14649H8.14541H8.14433H8.14325H8.14217H8.14109H8.14001H8.13892H8.13784H8.13676H8.13568H8.1346H8.13352H8.13244H8.13135H8.13027H8.12919H8.12811H8.12703H8.12594H8.12486H8.12378H8.1227H8.12162H8.12053H8.11945H8.11837H8.11729H8.11621H8.11512H8.11404H8.11296H8.11188H8.1108H8.10971H8.10863H8.10755H8.10647H8.10538H8.1043H8.10322H8.10214H8.10106H8.09997H8.09889H8.09781H8.09673H8.09565H8.09456H8.09348H8.0924H8.09132H8.09024H8.08915H8.08807H8.08699H8.08591H8.08483H8.08375H8.08266H8.08158H8.0805H8.07942H8.07834H8.07726H8.07618H8.0751H8.07401H8.07293H8.07185H8.07077H8.06969H8.06861H8.06753H8.06645H8.06537H8.06429H8.06321H8.06213H8.06105H8.05997H8.05889H8.05781H8.05673H8.05565H8.05457H8.05349H8.05241H8.05133H8.05025H8.04917H8.04809H8.04702H8.04594H8.04486H8.04378H8.0427H8.04162H8.04055H8.03947H8.03839H8.03731H8.03624H8.03516H8.03408H8.03301H8.03193H8.03085H8.02978H8.0287H8.02762H8.02655H8.02547H8.0244H8.02332H8.02225H8.02117H8.0201H8.01902H8.01795H8.01687H8.0158H8.01472H8.01365H8.01258H8.0115H8.01043H8.00936H8.00829H8.00721H8.00614H8.00507H8.004H8.00292H8.00185H8.00078H7.99971H7.99864H7.99757H7.9965H7.99543H7.99436H7.99329H7.99222H7.99115H7.99008H7.98901H7.98794H7.98688H7.98581H7.98474H7.98367H7.98261H7.98154H7.98047H7.97941H7.97834H7.97727H7.97621H7.97514H7.97408H7.97301H7.97195H7.97088H7.96982H7.96876H7.96769H7.96663H7.96557H7.9645H7.96344H7.96238H7.96132H7.96026H7.9592H7.95814H7.95707H7.95601H7.95496H7.9539H7.95284H7.95178H7.95072H7.94966H7.9486H7.94755H7.94649H7.94543H7.94437H7.94332H7.94226H7.94121H7.94015H7.9391H7.93804H7.93699H7.93593H7.93488H7.93383H7.93278H7.93172H7.93067H7.92962H7.92857H7.92752H7.92647H7.92542H7.92437H7.92332H7.92227H7.92122H7.92017H7.91912H7.91808H7.91703H7.91598H7.91494H7.91389H7.91284H7.9118H7.91075H7.90971H7.90867H7.90762H7.90658H7.90554H7.90449H7.90345H7.90241H7.90137H7.90033H7.89929H7.89825H7.89721H7.89617H7.89513H7.8941H7.89306H7.89202H7.89099H7.88995H7.88891H7.88788H7.88684H7.88581H7.88478H7.88374H7.88271H7.88168H7.88064H7.87961H7.87858H7.87755H7.87652H7.87549H7.87446H7.87343H7.87241H7.87138H7.87035H7.86932H7.8683H7.86727H7.86625H7.86522H7.8642H7.86317H7.86215H7.86113H7.86011H7.85908H7.85806H7.85704H7.85602H7.855H7.85398H7.85297H7.85195H7.85093H7.84991H7.8489H7.84788H7.84687H7.84585H7.84484H7.84382H7.84281H7.8418H7.84079H7.83977H7.83876H7.83775V28.532M14.8067 31.5824L7.83775 28.532M7.83775 28.532L7.83381 28.5322M7.83775 28.532L7.83381 28.5322M7.83381 28.5322C7.40017 28.5445 6.98028 28.5562 6.61398 28.5116C6.24647 28.4668 5.9575 28.3677 5.7684 28.1786C5.57931 27.9895 5.48021 27.7005 5.43539 27.333C5.39072 26.9667 5.40241 26.5468 5.4148 26.1132M7.83381 28.5322L5.10284 23.8271M5.10284 23.8271L5.10268 23.8271C5.4436 24.4565 5.43918 25.3086 5.4148 26.1132M5.10284 23.8271L5.09922 23.8211M5.10284 23.8271L5.09922 23.8211M5.4148 26.1132C5.4148 26.1133 5.4148 26.1133 5.41479 26.1134L5.27673 26.1092L5.4148 26.1132C5.4148 26.1132 5.4148 26.1132 5.4148 26.1132ZM5.09922 23.8211C4.91283 23.5149 4.63097 23.2619 4.31628 23.0385C4.02441 22.8312 3.6954 22.6435 3.37587 22.4612C3.35097 22.4469 3.32613 22.4328 3.30136 22.4186L3.30152 22.4183M5.09922 23.8211L3.30152 22.4183M3.30152 22.4183L3.29299 22.4142M3.30152 22.4183L3.29299 22.4142M3.29299 22.4142C2.91102 22.2294 2.53336 22.037 2.23043 21.8173C1.92643 21.5967 1.71645 21.3617 1.64241 21.0989C1.5805 20.8599 1.6346 20.5748 1.77478 20.2438C1.91445 19.9139 2.13016 19.5596 2.36452 19.1895L2.36454 19.1896M3.29299 22.4142L2.36454 19.1896M2.36454 19.1896L2.36589 19.1873M2.36454 19.1896L2.36589 19.1873M2.36589 19.1873C2.57454 18.8437 2.79433 18.4798 2.96139 18.1142C3.1283 17.7488 3.24783 17.3709 3.24783 16.9979C3.24783 16.6248 3.1283 16.2469 2.96139 15.8816C2.79452 15.5163 2.57503 15.1529 2.36658 14.8095C2.33216 14.7503 2.29794 14.6918 2.26416 14.634C2.07791 14.3155 1.90489 14.0197 1.78342 13.7413C1.63965 13.4119 1.58097 13.1341 1.64241 12.8969M2.36589 19.1873L1.64241 12.8969M1.64241 12.8969C1.71654 12.6337 1.92677 12.3985 2.22929 12.1709C2.50227 11.9655 2.83246 11.7789 3.16903 11.5888C3.20427 11.5689 3.23957 11.5489 3.27489 11.5289L3.28568 11.5231C3.62521 11.3412 3.98515 11.1484 4.30036 10.9268C4.61856 10.7032 4.90231 10.4427 5.07701 10.1213C5.26314 9.80125 5.34581 9.42201 5.38046 9.03148L1.64241 12.8969ZM20.2443 1.77429C20.5753 1.63411 20.8604 1.58001 21.0993 1.64192M20.2443 1.77429L21.0993 1.64192M21.0993 1.64192C21.3625 1.71606 21.5977 1.92628 21.8253 2.22881C22.0307 2.50177 22.2173 2.83196 22.4074 3.16852C22.4273 3.20377 22.4473 3.2391 22.4673 3.27444L22.4731 3.28517C22.655 3.6247 22.8478 3.98466 23.0694 4.29987C23.2931 4.61808 23.5535 4.90182 23.875 5.07652C24.195 5.26265 24.5742 5.34533 24.9647 5.37997L21.0993 1.64192ZM1.71155 18.797L1.71106 18.7978C1.46576 19.2025 1.21317 19.6248 1.0481 20.0439C0.882826 20.4634 0.798641 20.8956 0.907432 21.3172L0.90742 21.3172L0.907917 21.319C1.02946 21.7647 1.32483 22.1077 1.68819 22.3946C2.0484 22.6789 2.48797 22.9176 2.9145 23.1491L2.92068 23.1524L2.92109 23.1527C3.24195 23.3254 3.56176 23.5006 3.83166 23.6866C4.10371 23.874 4.30991 24.0624 4.41722 24.2555L4.4172 24.2555L4.41843 24.2576C4.53819 24.4645 4.59778 24.7473 4.62499 25.083C4.64793 25.3659 4.64716 25.6724 4.64638 25.986C4.64623 26.0427 4.64609 26.0996 4.64609 26.1567L4.64603 26.159C4.63382 26.6352 4.62107 27.1325 4.68759 27.5823C4.75443 28.0342 4.90353 28.4561 5.2293 28.7689C5.55378 29.0928 5.98029 29.2418 6.43237 29.3086C6.88318 29.3753 7.37543 29.3623 7.84042 29.3501L7.84139 29.3501L7.84236 29.35C8.21137 29.3377 8.57948 29.3319 8.91195 29.3619C9.24623 29.392 9.5304 29.4573 9.73857 29.5778C9.94525 29.6974 10.1342 29.9105 10.3183 30.1822C10.4745 30.4126 10.6199 30.6737 10.7672 30.9383C10.7929 30.9845 10.8187 31.0308 10.8446 31.077C10.8622 31.1085 10.8798 31.1401 10.8975 31.1718C11.1131 31.5585 11.3378 31.9616 11.6013 32.2983C11.8875 32.664 12.2306 32.9665 12.6772 33.0883L12.6771 33.0886L12.6865 33.0905L12.6923 33.0917C12.8115 33.1155 12.946 33.1424 13.0829 33.1424C13.4435 33.1424 13.803 33.0291 14.1533 32.8682C14.5022 32.7078 14.8526 32.4951 15.1947 32.2874L15.1985 32.2851L15.1992 32.2847C15.5199 32.0873 15.8398 31.8944 16.1486 31.7505C16.4587 31.606 16.7449 31.5171 16.9984 31.5171C17.2518 31.5171 17.538 31.606 17.8481 31.7505C18.1569 31.8944 18.4768 32.0873 18.7975 32.2847L18.7983 32.2852C19.203 32.5305 19.6253 32.783 20.0443 32.9481C20.4639 33.1134 20.8961 33.1976 21.3177 33.0888L21.3195 33.0883C21.7652 32.9668 22.1082 32.6714 22.395 32.308C22.6794 31.9478 22.918 31.5082 23.1496 31.0817L23.1529 31.0755L23.1532 31.0751C23.3259 30.7543 23.5011 30.4345 23.687 30.1646C23.8745 29.8925 24.0628 29.6863 24.256 29.579L24.256 29.579L24.2581 29.5778C24.465 29.458 24.7478 29.3984 25.0835 29.3712C25.3663 29.3483 25.6729 29.3491 25.9865 29.3498C26.0432 29.35 26.1002 29.3501 26.1572 29.3501L26.1595 29.3502C26.6357 29.3624 27.133 29.3751 27.5828 29.3086C28.0347 29.2418 28.4566 29.0927 28.7694 28.7669C29.0933 28.4424 29.2423 28.0159 29.3091 27.5638C29.3758 27.113 29.3628 26.6208 29.3506 26.1558L29.3506 26.1548L29.3505 26.1539C29.3382 25.7848 29.3324 25.4167 29.3624 25.0843C29.3925 24.75 29.4578 24.4658 29.5783 24.2576C29.6979 24.051 29.911 23.862 30.1826 23.6779C30.4131 23.5217 30.6742 23.3763 30.9387 23.229C30.9849 23.2033 31.0312 23.1775 31.0775 23.1516C31.109 23.134 31.1406 23.1164 31.1723 23.0987C31.559 22.8832 31.9621 22.6584 32.2988 22.3949C32.6645 22.1087 32.967 21.7657 33.0888 21.319L33.0893 21.3172C33.1981 20.8956 33.1139 20.4634 32.9486 20.0439C32.7835 19.6248 32.5309 19.2025 32.2856 18.7978L32.2852 18.797C32.0878 18.4763 31.8949 18.1564 31.751 17.8476C31.6065 17.5375 31.5176 17.2514 31.5176 16.9979C31.5176 16.7444 31.6065 16.4582 31.751 16.1482C31.8949 15.8393 32.0878 15.5194 32.2852 15.1987L32.2856 15.1979C32.5309 14.7932 32.7835 14.3709 32.9486 13.9519C33.1139 13.5323 33.1981 13.1001 33.0893 12.6785L33.0888 12.6767C32.9672 12.2311 32.6719 11.888 32.3085 11.6012C31.9483 11.3168 31.5087 11.0782 31.0822 10.8466L31.076 10.8433L31.0756 10.8431C30.7548 10.6703 30.4349 10.4951 30.165 10.3092C29.893 10.1218 29.6868 9.93336 29.5795 9.7402L29.5795 9.74019L29.5783 9.73808C29.4585 9.53121 29.3989 9.24838 29.3717 8.91269C29.3488 8.62986 29.3495 8.32328 29.3503 8.00972C29.3505 7.953 29.3506 7.89606 29.3506 7.83898L29.3507 7.8367C29.3629 7.36055 29.3756 6.86325 29.3091 6.41342C29.2423 5.96147 29.0932 5.53961 28.7674 5.22678C28.4429 4.9029 28.0164 4.75396 27.5643 4.6871C27.1135 4.62043 26.6212 4.63339 26.1562 4.64562L26.1553 4.64565L26.1543 4.64568C25.7853 4.65798 25.4172 4.6638 25.0848 4.63385C24.7505 4.60373 24.4663 4.53845 24.2581 4.41794C24.0515 4.29828 23.8625 4.08518 23.6784 3.81357C23.5222 3.58308 23.3768 3.32199 23.2295 3.05748C23.2038 3.01128 23.178 2.96497 23.1521 2.91871C23.1345 2.88724 23.1169 2.85561 23.0992 2.82387C22.8836 2.43719 22.6589 2.03412 22.3954 1.6974C22.1092 1.33171 21.7661 1.02924 21.3195 0.907429L21.3195 0.907417L21.3177 0.906944C20.8961 0.798153 20.4639 0.882337 20.0443 1.04761C19.6253 1.21268 19.203 1.46527 18.7983 1.71057L18.7975 1.71106C18.4768 1.90839 18.1569 2.10133 17.8481 2.24525C17.538 2.38974 17.2518 2.47858 16.9984 2.47858C16.7449 2.47858 16.4587 2.38974 16.1486 2.24525C15.8398 2.10133 15.5199 1.90839 15.1992 1.71106L15.1984 1.71057C14.7937 1.46527 14.3714 1.21268 13.9524 1.04761C13.5328 0.882337 13.1006 0.798153 12.679 0.906944L12.679 0.906931L12.6772 0.907429C12.2315 1.02898 11.8885 1.32434 11.6017 1.6877C11.3173 2.04792 11.0787 2.48748 10.8471 2.91401L10.8438 2.92019L10.8435 2.9206C10.6708 3.24146 10.4956 3.56127 10.3097 3.83117C10.1222 4.10322 9.93385 4.30942 9.74069 4.41673L9.74068 4.41671L9.73857 4.41794C9.5317 4.5377 9.24887 4.59729 8.91318 4.62451C8.63035 4.64744 8.32376 4.64667 8.01019 4.64589C7.9535 4.64575 7.89658 4.6456 7.83953 4.6456L7.83718 4.64554C7.36103 4.63333 6.86373 4.62058 6.41391 4.6871C5.96147 4.75401 5.53918 4.90338 5.22625 5.22992C4.9158 5.55386 4.76695 5.97926 4.69697 6.43095C4.62709 6.88199 4.63385 7.37392 4.64613 7.8409L4.64617 7.84187C4.65847 8.21088 4.66429 8.57899 4.63433 8.91146C4.60422 9.24574 4.53894 9.52991 4.41843 9.73808C4.29877 9.94476 4.08567 10.1337 3.81406 10.3178C3.58356 10.474 3.32247 10.6194 3.05795 10.7667C3.01175 10.7924 2.96545 10.8182 2.91919 10.8441C2.88773 10.8617 2.85611 10.8793 2.82437 10.897C2.43769 11.1126 2.03462 11.3373 1.69789 11.6008C1.3322 11.887 1.02973 12.2301 0.907917 12.6767L0.907905 12.6767L0.907432 12.6786C0.798641 13.1001 0.882826 13.5323 1.0481 13.9519C1.21317 14.3709 1.46576 14.7932 1.71106 15.1979L1.71155 15.1987C1.90888 15.5194 2.10182 15.8393 2.24574 16.1482C2.39023 16.4582 2.47907 16.7444 2.47907 16.9979C2.47907 17.2514 2.39023 17.5375 2.24574 17.8476C2.10182 18.1564 1.90888 18.4763 1.71155 18.797Z" fill="#73BC3A" stroke="#73BC3A" stroke-width="0.276263"/>
<circle cx="17.0007" cy="17.0002" r="10.1844" fill="#73BC3A"/>
<path d="M16.9984 27.1928C22.613 27.1928 27.1933 22.6125 27.1933 16.9979C27.1933 11.3833 22.613 6.80304 16.9984 6.80304C11.3839 6.80304 6.80359 11.3833 6.80359 16.9979C6.80359 22.6125 11.3839 27.1928 16.9984 27.1928ZM16.9984 7.29554C22.3421 7.29554 26.7008 11.6542 26.7008 16.9979C26.7008 22.3416 22.3421 26.7003 16.9984 26.7003C11.6548 26.7003 7.29609 22.3416 7.29609 16.9979C7.29609 11.6542 11.6548 7.29554 16.9984 7.29554Z" fill="#73BC3A"/>
<path d="M14.6846 21.0603C14.7615 21.1371 14.8712 21.1746 14.9547 21.1746C15.0381 21.1746 15.1479 21.1371 15.2247 21.0603L22.8093 13.4757C22.9617 13.3233 22.9617 13.0881 22.8093 12.9356C22.6568 12.7832 22.4216 12.7832 22.2692 12.9356L14.9547 20.2501L12.1466 17.442C11.9941 17.2896 11.7589 17.2896 11.6065 17.442C11.454 17.5945 11.454 17.8297 11.6065 17.9821L14.6846 21.0603Z" fill="white" stroke="white" stroke-width="0.276263"/>
</svg>
