<svg width="37" height="26" viewBox="0 0 37 26" fill="none" xmlns="http://www.w3.org/2000/svg">
<g opacity="0.5">
<path d="M8.64292 9.97129C11.1536 9.97129 13.1786 7.94632 13.1786 5.43564C13.1786 2.92497 11.1536 0.9 8.64292 0.9C6.13224 0.9 4.10728 2.92497 4.10728 5.43564C4.10728 7.94632 6.13224 9.97129 8.64292 9.97129ZM8.64292 2.28812C10.3699 2.28812 11.7904 3.70869 11.7904 5.43564C11.7904 7.16259 10.3699 8.58317 8.64292 8.58317C6.91597 8.58317 5.49539 7.16259 5.49539 5.43564C5.49539 3.70869 6.91597 2.28812 8.64292 2.28812Z" fill="#404040" stroke="#404040" stroke-width="0.2"/>
<path d="M2.18812 17.3763H2.28812V17.2763C2.28812 14.8359 4.26371 12.8219 6.74257 12.8219H10.5842C11.0486 12.8219 11.5149 12.8993 11.944 13.0164L12.0441 13.0437L12.0677 12.9426L12.3449 11.7545L12.3661 11.6636L12.2769 11.6362C11.7519 11.4747 11.1875 11.3941 10.6238 11.3941H6.78218V11.3941L6.78094 11.3941C3.51944 11.4344 0.9 14.0521 0.9 17.2763V17.3763H1H2.18812Z" fill="#404040" stroke="#404040" stroke-width="0.2"/>
<path d="M28.9994 9.97129C31.51 9.97129 33.535 7.94632 33.535 5.43564C33.535 2.92497 31.51 0.9 28.9994 0.9C26.4887 0.9 24.4637 2.92497 24.4637 5.43564C24.4637 7.94632 26.4887 9.97129 28.9994 9.97129ZM28.9994 2.28812C30.7263 2.28812 32.1469 3.70869 32.1469 5.43564C32.1469 7.16259 30.7263 8.58317 28.9994 8.58317C27.2724 8.58317 25.8518 7.16259 25.8518 5.43564C25.8518 3.70869 27.2724 2.28812 28.9994 2.28812Z" fill="#404040" stroke="#404040" stroke-width="0.2"/>
<path d="M27.1004 11.4352V11.4352H27.0993C26.5356 11.4352 25.9712 11.5157 25.4462 11.6772L25.3598 11.7038L25.3775 11.7924L25.6152 12.9805L25.638 13.0947L25.7474 13.0549C26.1669 12.9023 26.6285 12.8629 27.0993 12.8629H30.9409C33.3813 12.8629 35.3954 14.8385 35.3954 17.3173V17.4173H35.4954H36.6835H36.7835V17.3173C36.7835 14.094 34.1648 11.475 30.9414 11.4748C30.9413 11.4748 30.9411 11.4748 30.9409 11.4748L27.1004 11.4352Z" fill="#404040" stroke="#404040" stroke-width="0.2"/>
<path d="M22.7137 11.0542L22.7137 11.0542L22.7127 11.0522C21.9437 9.59516 20.4452 8.62266 18.7035 8.62266C17.1643 8.62266 15.8279 9.39234 15.0183 10.5257C14.4917 11.2549 14.1678 12.1861 14.1678 13.1583C14.1678 15.669 16.1928 17.6939 18.7035 17.6939C21.2141 17.6939 23.2391 15.669 23.2391 13.1583C23.2391 12.3873 23.036 11.6987 22.7137 11.0542ZM18.7035 10.0108C20.4304 10.0108 21.851 11.4314 21.851 13.1583C21.851 14.8852 20.4304 16.3058 18.7035 16.3058C16.9765 16.3058 15.5559 14.8852 15.5559 13.1583C15.5559 11.4314 16.9765 10.0108 18.7035 10.0108Z" fill="#404040" stroke="#404040" stroke-width="0.2"/>
<path d="M10.92 25.0004V25.1004H11.02H11.6141H12.2081H12.3081V25.0004C12.3081 22.56 14.2837 20.5459 16.7626 20.5459H20.6042C23.0446 20.5459 25.0586 22.5215 25.0586 25.0004V25.1004H25.1586H25.7527H26.3468H26.4468V25.0004C26.4468 21.7768 23.8277 19.1578 20.6042 19.1578H16.7626C13.539 19.1578 10.92 21.7768 10.92 25.0004Z" fill="#404040" stroke="#404040" stroke-width="0.2"/>
</g>
</svg>
