<svg width="30" height="21" viewBox="0 0 30 21" fill="none" xmlns="http://www.w3.org/2000/svg">
<mask id="path-1-outside-1" maskUnits="userSpaceOnUse" x="0" y="0" width="30" height="21" fill="black">
<rect fill="white" width="30" height="21"/>
<path d="M4.99487 1C2.75385 1 1 2.75385 1 4.99487V16.0538C1 18.2462 2.75385 20 4.99487 20H16.0538C18.2462 20 20.0487 18.2462 20.0487 16.0051V13.3744L24.5308 17.2231C25.0179 17.6128 25.6513 17.8077 26.2359 17.8077C26.6744 17.8077 27.1128 17.7103 27.5026 17.5154C28.4769 17.0282 29.0615 16.0538 29.0615 14.9821C29.0615 14.9821 29.0615 14.9821 29.0615 14.9333V14.8846V14.8359C29.0615 14.7872 29.0615 14.7385 29.0615 14.7872V6.06667C29.0615 4.99487 28.4769 4.02051 27.5026 3.53333C26.5282 3.04615 25.359 3.14359 24.5308 3.77692L20 7.67436V4.99487C20 2.75385 18.2462 1 16.0538 1H4.99487ZM4.99487 2.07179H16.0538C17.6128 2.07179 18.9282 3.38718 18.9282 4.94615V16.0051C18.9282 17.5641 17.6128 18.8795 16.0538 18.8795H4.99487C3.4359 18.8795 2.12051 17.5641 2.12051 16.0051V4.99487C2.07179 3.38718 3.38718 2.07179 4.99487 2.07179ZM26.0897 4.31282C26.382 4.31282 26.7231 4.36154 27.0154 4.50769C27.6 4.8 27.9897 5.43333 27.9897 6.06667V14.7385C27.9897 14.7385 27.9897 14.7385 27.9897 14.7872V14.8359V14.8846C27.9897 14.9333 27.9897 14.9821 27.9897 14.9333C27.9897 15.5667 27.6 16.2 27.0154 16.4923C26.4308 16.7846 25.7487 16.7359 25.2128 16.3462L20 11.9615V9.08718L25.1641 4.60513C25.4564 4.45897 25.7487 4.36154 26.0897 4.31282Z"/>
</mask>
<path d="M4.99487 1C2.75385 1 1 2.75385 1 4.99487V16.0538C1 18.2462 2.75385 20 4.99487 20H16.0538C18.2462 20 20.0487 18.2462 20.0487 16.0051V13.3744L24.5308 17.2231C25.0179 17.6128 25.6513 17.8077 26.2359 17.8077C26.6744 17.8077 27.1128 17.7103 27.5026 17.5154C28.4769 17.0282 29.0615 16.0538 29.0615 14.9821C29.0615 14.9821 29.0615 14.9821 29.0615 14.9333V14.8846V14.8359C29.0615 14.7872 29.0615 14.7385 29.0615 14.7872V6.06667C29.0615 4.99487 28.4769 4.02051 27.5026 3.53333C26.5282 3.04615 25.359 3.14359 24.5308 3.77692L20 7.67436V4.99487C20 2.75385 18.2462 1 16.0538 1H4.99487ZM4.99487 2.07179H16.0538C17.6128 2.07179 18.9282 3.38718 18.9282 4.94615V16.0051C18.9282 17.5641 17.6128 18.8795 16.0538 18.8795H4.99487C3.4359 18.8795 2.12051 17.5641 2.12051 16.0051V4.99487C2.07179 3.38718 3.38718 2.07179 4.99487 2.07179ZM26.0897 4.31282C26.382 4.31282 26.7231 4.36154 27.0154 4.50769C27.6 4.8 27.9897 5.43333 27.9897 6.06667V14.7385C27.9897 14.7385 27.9897 14.7385 27.9897 14.7872V14.8359V14.8846C27.9897 14.9333 27.9897 14.9821 27.9897 14.9333C27.9897 15.5667 27.6 16.2 27.0154 16.4923C26.4308 16.7846 25.7487 16.7359 25.2128 16.3462L20 11.9615V9.08718L25.1641 4.60513C25.4564 4.45897 25.7487 4.36154 26.0897 4.31282Z" fill="white"/>
</svg>
