<svg xmlns="http://www.w3.org/2000/svg" version="1.0"  width="37"
                height="26" viewBox="0 0 152.000000 152.000000" preserveAspectRatio="xMidYMid meet">
<metadata>
Created by potrace 1.16, written by Peter Selinger 2001-2019
</metadata>
<g transform="translate(0.000000,152.000000) scale(0.100000,-0.100000)" fill="#404040" stroke="#404040"
                    stroke-width="0.2">
<path   fill="#404040"
                    stroke="#404040"
                    stroke-width="0.2" d="M532 1504 c-13 -9 -36 -39 -53 -68 -46 -83 -58 -90 -160 -96 -122 -8 -133 -19 -137 -140 -4 -101 -5 -101 -117 -173 -76 -49 -79 -76 -24 -182 l44 -85 -43 -83 c-23 -45 -42 -91 -42 -102 0 -32 28 -63 84 -96 83 -46 90 -58 96 -160 8 -122 19 -133 140 -137 101 -4 101 -5 173 -117 49 -76 76 -79 182 -24 l85 44 83 -43 c45 -23 91 -42 102 -42 32 0 63 28 96 84 46 83 58 90 160 96 122 8 133 19 137 140 4 101 5 101 117 173 76 49 79 76 24 182 l-44 85 43 83 c23 45 42 91 42 102 0 32 -28 63 -84 96 -83 46 -90 58 -96 160 -8 122 -19 133 -140 137 -101 4 -101 5 -173 117 -49 76 -76 79 -182 24 l-85 -44 -83 43 c-90 46 -111 50 -145 26z m134 -64 c42 -22 84 -40 94 -40 10 0 52 18 94 40 41 22 82 40 90 40 16 0 44 -32 87 -103 36 -59 74 -77 166 -77 37 0 75 -5 83 -10 11 -6 17 -36 21 -106 7 -109 8 -110 113 -178 76 -48 77 -53 28 -146 -23 -45 -42 -90 -42 -100 0 -10 19 -54 41 -98 25 -47 39 -87 36 -96 -4 -9 -27 -29 -53 -44 -26 -15 -63 -41 -83 -59 -36 -31 -36 -32 -39 -120 -5 -116 -11 -123 -111 -123 -42 0 -87 -6 -101 -13 -14 -7 -45 -43 -70 -80 -64 -96 -66 -97 -162 -47 -94 49 -117 49 -196 0 -78 -48 -100 -45 -138 15 -18 28 -46 66 -62 84 -29 34 -32 35 -119 40 -51 4 -97 12 -106 19 -11 9 -16 37 -19 102 -3 100 -17 124 -93 162 -49 25 -85 57 -85 75 0 8 18 48 40 89 22 42 40 84 40 94 0 10 -18 52 -40 94 -22 41 -40 82 -40 90 0 16 32 44 103 87 59 36 77 74 77 166 0 37 5 75 10 83 6 11 36 17 105 21 107 7 118 13 161 88 33 57 63 91 81 91 8 0 48 -18 89 -40z"/>
<path   fill="#404040"
                    stroke="#404040"
                    stroke-width="0.2" d="M610 1231 c-205 -65 -339 -249 -340 -467 0 -179 71 -315 216 -415 145 -99 363 -107 519 -19 100 57 181 156 221 269 29 81 33 218 8 302 -44 150 -161 272 -313 325 -84 30 -227 32 -311 5z m250 -47 c169 -38 301 -182 332 -362 10 -60 9 -82 -5 -148 -39 -182 -179 -314 -365 -346 -60 -10 -82 -9 -148 5 -182 39 -314 179 -346 365 -37 215 115 434 337 488 69 17 115 17 195 -2z"/>
<path    fill="#404040"
                    stroke="#404040"
                    stroke-width="0.2" d="M834 799 l-174 -173 -70 69 c-59 58 -71 67 -84 55 -9 -7 -16 -18 -16 -24 0 -14 161 -176 175 -176 6 0 96 86 200 190 160 160 188 193 179 207 -6 9 -16 19 -23 21 -7 2 -91 -74 -187 -169z"/>
</g>
</svg>