<svg
                width="37"
                height="26"
                viewBox="0 0 37 26"
                fill="none"
                xmlns="http://www.w3.org/2000/svg"
              >
                <g opacity="0.5">
                  <path
                    d="M8.64304 9.97129C11.1537 9.97129 13.1787 7.94632 13.1787 5.43564C13.1787 2.92497 11.1537 0.9 8.64304 0.9C6.13237 0.9 4.1074 2.92497 4.1074 5.43564C4.1074 7.94632 6.13237 9.97129 8.64304 9.97129ZM8.64304 2.28812C10.37 2.28812 11.7906 3.70869 11.7906 5.43564C11.7906 7.16259 10.37 8.58317 8.64304 8.58317C6.91609 8.58317 5.49552 7.16259 5.49552 5.43564C5.49552 3.70869 6.91609 2.28812 8.64304 2.28812Z"
                    fill="#404040"
                    stroke="#404040"
                    stroke-width="0.2"
                  />
                  <path
                    d="M2.18812 17.3773H2.28812V17.2773C2.28812 14.8369 4.26371 12.8228 6.74257 12.8228H10.5842C11.0486 12.8228 11.5149 12.9003 11.944 13.0173L12.0441 13.0446L12.0677 12.9436L12.3449 11.7555L12.3661 11.6646L12.2769 11.6372C11.7519 11.4756 11.1875 11.3951 10.6238 11.3951H6.78218V11.3951L6.78094 11.3951C3.51944 11.4354 0.9 14.0531 0.9 17.2773V17.3773H1H2.18812Z"
                    fill="#404040"
                    stroke="#404040"
                    stroke-width="0.2"
                  />
                  <path
                    d="M28.9994 9.97129C31.51 9.97129 33.535 7.94632 33.535 5.43564C33.535 2.92497 31.51 0.9 28.9994 0.9C26.4887 0.9 24.4637 2.92497 24.4637 5.43564C24.4637 7.94632 26.4887 9.97129 28.9994 9.97129ZM28.9994 2.28812C30.7263 2.28812 32.1469 3.70869 32.1469 5.43564C32.1469 7.16259 30.7263 8.58317 28.9994 8.58317C27.2724 8.58317 25.8518 7.16259 25.8518 5.43564C25.8518 3.70869 27.2724 2.28812 28.9994 2.28812Z"
                    fill="#404040"
                    stroke="#404040"
                    stroke-width="0.2"
                  />
                  <path
                    d="M27.1004 11.4347V11.4347H27.0993C26.5356 11.4347 25.9712 11.5152 25.4462 11.6767L25.3598 11.7033L25.3775 11.7919L25.6152 12.98L25.638 13.0942L25.7474 13.0544C26.1669 12.9019 26.6285 12.8624 27.0993 12.8624H30.9409C33.3813 12.8624 35.3954 14.838 35.3954 17.3168V17.4168H35.4954H36.6835H36.7835V17.3168C36.7835 14.0935 34.1648 11.4746 30.9414 11.4743C30.9413 11.4743 30.9411 11.4743 30.9409 11.4743L27.1004 11.4347Z"
                    fill="#404040"
                    stroke="#404040"
                    stroke-width="0.2"
                  />
                  <path
                    d="M22.7138 11.0544L22.7138 11.0544L22.7128 11.0525C21.9438 9.59541 20.4453 8.6229 18.7036 8.6229C17.1644 8.6229 15.828 9.39259 15.0184 10.526C14.4918 11.2552 14.1679 12.1863 14.1679 13.1585C14.1679 15.6692 16.1929 17.6942 18.7036 17.6942C21.2143 17.6942 23.2392 15.6692 23.2392 13.1585C23.2392 12.3875 23.0361 11.699 22.7138 11.0544ZM18.7036 10.011C20.4305 10.011 21.8511 11.4316 21.8511 13.1585C21.8511 14.8855 20.4305 16.3061 18.7036 16.3061C16.9766 16.3061 15.5561 14.8855 15.5561 13.1585C15.5561 11.4316 16.9766 10.011 18.7036 10.011Z"
                    fill="#404040"
                    stroke="#404040"
                    stroke-width="0.2"
                  />
                  <path
                    d="M10.9199 25.0001V25.1001H11.0199H11.614H12.208H12.308V25.0001C12.308 22.5598 14.2836 20.5457 16.7625 20.5457H20.6041C23.0444 20.5457 25.0585 22.5213 25.0585 25.0001V25.1001H25.1585H25.7526H26.3466H26.4466V25.0001C26.4466 21.7766 23.8276 19.1576 20.6041 19.1576H16.7625C13.5389 19.1576 10.9199 21.7766 10.9199 25.0001Z"
                    fill="#404040"
                    stroke="#404040"
                    stroke-width="0.2"
                  />
                </g>
              </svg>