<svg
width="24"
height="27"
viewBox="0 0 24 27"
fill="none"
xmlns="http://www.w3.org/2000/svg"
>
<g opacity="0.5">
    <path
    d="M22.5 3H15C15 1.35 13.65 0 12 0C10.35 0 9 1.35 9 3H1.5C0.6 3 0 3.6 0 4.5V25.5C0 26.4 0.6 27 1.5 27H22.5C23.4 27 24 26.4 24 25.5V4.5C24 3.6 23.4 3 22.5 3ZM22.5 25.5H1.5V4.5H6V6H18V4.5H22.5V25.5Z"
    fill="#404040"
    />
    <path
    d="M19.5 10.5H9V12H19.5V10.5ZM4.5 12H6V10.5H4.5V12ZM19.5 15H9V16.5H19.5V15ZM4.5 16.5H6V15H4.5V16.5ZM19.5 19.5H9V21H19.5V19.5ZM4.5 21H6V19.5H4.5V21Z"
    fill="#404040"
    />
</g>
</svg>