<svg width="29" height="30" viewBox="0 0 29 30" fill="none" xmlns="http://www.w3.org/2000/svg">
<path fill-rule="evenodd" clip-rule="evenodd" d="M22.4832 22.2262L17.4753 5.52524C17.1372 4.39759 15.7173 4.04 14.8854 4.87301L2.74129 17.0334C1.58641 18.1898 2.76857 20.1167 4.32272 19.6111L10.3746 17.6424C12.079 17.0879 13.9504 17.5589 15.1893 18.8542L19.8698 23.7477C20.9993 24.9286 22.9525 23.7914 22.4832 22.2262ZM18.9649 5.07859C18.2887 2.82327 15.4488 2.10811 13.785 3.77412L1.64093 15.9345C-0.668812 18.2474 1.69547 22.1011 4.80379 21.0899L10.8557 19.1212C11.992 18.7516 13.2395 19.0656 14.0655 19.9291L18.746 24.8226C21.0049 27.1844 24.9114 24.91 23.9727 21.7795L18.9649 5.07859Z" fill="#9F9F9F"/>
<path fill-rule="evenodd" clip-rule="evenodd" d="M11.6084 17.8507L15.2886 3.58214L16.7944 3.97052L13.1143 18.2391L11.6084 17.8507Z" fill="#9F9F9F"/>
<path fill-rule="evenodd" clip-rule="evenodd" d="M6.14519 26.3675C5.31354 26.153 4.81325 25.3049 5.02775 24.4733L5.7537 21.6587L7.25952 22.0471L6.14519 26.3675Z" fill="#9F9F9F"/>
<path fill-rule="evenodd" clip-rule="evenodd" d="M9.6323 30C8.80065 29.7855 8.30036 28.9375 8.51486 28.1058L10.4451 20.6219L11.9509 21.0103L9.6323 30Z" fill="#9F9F9F"/>
<path fill-rule="evenodd" clip-rule="evenodd" d="M15.3076 26.7974C14.4759 26.5829 13.9756 25.7348 14.1901 24.9032L14.7596 22.6954L16.2654 23.0837L15.3076 26.7974Z" fill="#9F9F9F"/>
</svg>
