<svg
    width="21"
    height="24"
    viewBox="0 0 21 24"
    fill="none"
    xmlns="http://www.w3.org/2000/svg"
>
    <path
    d="M10.5 0C5.99516 0 2.37097 3.62419 2.37097 8.12903V14.2258C1.08387 14.2258 0 15.3097 0 16.5968C0 17.8839 1.08387 18.9677 2.37097 18.9677H18.629C19.9161 18.9677 21 17.8839 21 16.5968C21 15.3097 19.9161 14.2258 18.629 14.2258V8.12903C18.629 3.62419 15.0048 0 10.5 0ZM10.5 1.35484C14.2597 1.35484 17.2742 4.36935 17.2742 8.12903V14.2258H3.72581V8.12903C3.72581 4.33548 6.74032 1.35484 10.5 1.35484ZM2.37097 15.5806H18.629C19.2048 15.5806 19.6452 16.021 19.6452 16.5968C19.6452 17.1726 19.2048 17.6129 18.629 17.6129H2.37097C1.79516 17.6129 1.35484 17.1726 1.35484 16.5968C1.35484 16.021 1.79516 15.5806 2.37097 15.5806ZM8.12903 19.6452V20.6613C8.12903 21.9484 9.2129 23.0323 10.5 23.0323C11.7871 23.0323 12.871 21.9484 12.871 20.6613V19.6452H11.5161V20.6613C11.5161 21.2371 11.0758 21.6774 10.5 21.6774C9.92419 21.6774 9.48387 21.2371 9.48387 20.6613V19.6452H8.12903Z"
    fill="#404040"
    fill-opacity="0.5"
    />
</svg>