<svg
    width="25"
    height="25"
    viewBox="0 0 25 25"
    fill="none"
    xmlns="http://www.w3.org/2000/svg"
>
    <g opacity="0.5">
    <path
        d="M23.5008 10.0122L21.7804 9.71724C21.6012 9.13243 21.3708 8.56832 21.0892 8.03008L22.103 6.59651C22.5331 5.98582 22.4665 5.1526 21.9391 4.62471L20.4133 3.08246C20.1265 2.79264 19.7476 2.63221 19.3431 2.63221C19.0257 2.63221 18.7236 2.73054 18.4676 2.91685L17.0441 3.94157C16.4911 3.64657 15.9126 3.40333 15.3135 3.2222L15.0267 1.50398C14.9039 0.763912 14.2741 0.225677 13.5316 0.225677H11.376C10.6335 0.225677 10.0038 0.763912 9.88087 1.50398L9.58389 3.2636C9.01042 3.44474 8.45231 3.6828 7.9198 3.97262L6.51173 2.9479C6.25571 2.76159 5.9485 2.66326 5.63104 2.66326C5.22654 2.66326 4.84252 2.82369 4.5609 3.11351L3.02994 4.65576C2.50767 5.18365 2.43599 6.01688 2.86609 6.62756L3.89014 8.08183C3.60853 8.62524 3.38324 9.18935 3.20915 9.77417L1.50922 10.064C0.777016 10.1882 0.244507 10.8248 0.244507 11.5752V13.754C0.244507 14.5044 0.777016 15.141 1.50922 15.2652L3.25011 15.5654C3.42932 16.145 3.66485 16.7091 3.95159 17.2473L2.94289 18.6654C2.51279 19.2761 2.57935 20.1093 3.10674 20.6372L4.63258 22.1794C4.91932 22.4693 5.29822 22.6297 5.70272 22.6297C6.02018 22.6297 6.32228 22.5314 6.57829 22.3451L8.01709 21.31C8.53424 21.5843 9.07699 21.8068 9.6351 21.9828L9.92183 23.7217C10.0447 24.4618 10.6745 25 11.417 25H13.5777C14.3202 25 14.9499 24.4618 15.0728 23.7217L15.3647 21.9828C15.9433 21.8016 16.5014 21.5688 17.0339 21.2841L18.4522 22.3088C18.7082 22.4951 19.0154 22.5935 19.3329 22.5935C19.7374 22.5935 20.1163 22.433 20.403 22.1432L21.9289 20.601C22.4512 20.0731 22.5228 19.2399 22.0927 18.6292L21.0789 17.1904C21.3605 16.647 21.5961 16.0829 21.7702 15.5033L23.4906 15.2134C24.2228 15.0892 24.7553 14.4527 24.7553 13.7022V11.5234C24.7655 10.773 24.233 10.1364 23.5008 10.0122ZM23.383 13.7022C23.383 13.7695 23.337 13.8265 23.2704 13.8368L21.1199 14.1991C20.8485 14.2457 20.6335 14.4475 20.5669 14.7114C20.3723 15.4722 20.0753 16.2019 19.676 16.8799C19.5377 17.118 19.548 17.413 19.7067 17.6407L20.9714 19.4417C21.0072 19.4934 21.0021 19.5711 20.956 19.6177L19.4302 21.1599C19.3943 21.1961 19.3585 21.2013 19.3329 21.2013C19.3022 21.2013 19.2766 21.191 19.2561 21.1754L17.4794 19.8971C17.2592 19.7367 16.9622 19.7263 16.7267 19.8661C16.0559 20.2697 15.334 20.5699 14.5813 20.7666C14.315 20.8339 14.1153 21.0564 14.0744 21.3255L13.7108 23.4992C13.7006 23.5664 13.6443 23.613 13.5777 23.613H11.4221C11.3555 23.613 11.2992 23.5664 11.2889 23.4992L10.9305 21.3255C10.8844 21.0512 10.6848 20.8339 10.4236 20.7666C9.69142 20.5751 8.98482 20.2801 8.32431 19.8971C8.21678 19.835 8.09389 19.804 7.97613 19.804C7.83788 19.804 7.69451 19.8454 7.57674 19.9333L5.78465 21.222C5.75905 21.2375 5.73344 21.2479 5.70784 21.2479C5.68736 21.2479 5.6464 21.2427 5.61056 21.2065L4.08472 19.6642C4.03863 19.6177 4.03351 19.5452 4.06935 19.4883L5.32894 17.7028C5.48767 17.4751 5.49791 17.1749 5.35966 16.9368C4.96028 16.264 4.65307 15.5343 4.4585 14.7735C4.38681 14.5096 4.17176 14.3078 3.90551 14.2612L1.73963 13.8886C1.67306 13.8782 1.62698 13.8213 1.62698 13.754V11.5752C1.62698 11.5079 1.67306 11.451 1.73963 11.4406L3.87478 11.0784C4.14616 11.0318 4.36633 10.8299 4.43289 10.5608C4.62234 9.80004 4.9142 9.06515 5.30846 8.38718C5.44671 8.14911 5.43135 7.85412 5.27262 7.63158L3.99767 5.82021C3.96183 5.76846 3.96695 5.69083 4.01303 5.64425L5.53887 4.102C5.57472 4.06577 5.61056 4.0606 5.63616 4.0606C5.66688 4.0606 5.69248 4.07095 5.71296 4.08648L7.47946 5.35961C7.70475 5.52004 8.00173 5.53039 8.23726 5.39066C8.9029 4.98698 9.62486 4.67646 10.3775 4.4798C10.6387 4.40735 10.8384 4.18998 10.8844 3.92087L11.2531 1.7317C11.2633 1.66442 11.3197 1.61784 11.3862 1.61784H13.5419C13.6084 1.61784 13.6648 1.66442 13.675 1.7317L14.0334 3.88981C14.0795 4.16411 14.2792 4.38665 14.5454 4.45392C15.3186 4.65059 16.0559 4.95593 16.742 5.36478C16.9776 5.50452 17.2694 5.49417 17.4947 5.33373L19.2612 4.05025C19.2868 4.03472 19.3124 4.02437 19.338 4.02437C19.3585 4.02437 19.3995 4.02955 19.4353 4.06577L20.9612 5.60802C21.0072 5.6546 21.0124 5.72706 20.9765 5.78399L19.7118 7.57983C19.5531 7.80237 19.5428 8.10254 19.6811 8.3406C20.0805 9.01857 20.3774 9.74829 20.572 10.5091C20.6386 10.7782 20.8587 10.98 21.125 11.0214L23.2755 11.3889C23.3421 11.3992 23.3882 11.4562 23.3882 11.5234L23.383 13.7022Z"
        fill="#404040"
    />
    <path
        d="M12.5026 7.26413C9.58407 7.26413 7.21338 9.66031 7.21338 12.6102C7.21338 15.5602 9.58407 17.9564 12.5026 17.9564C15.4212 17.9564 17.7919 15.5602 17.7919 12.6102C17.7919 9.66031 15.4212 7.26413 12.5026 7.26413ZM12.5026 16.559C10.347 16.559 8.59585 14.7891 8.59585 12.6102C8.59585 10.4314 10.347 8.66147 12.5026 8.66147C14.6583 8.66147 16.4094 10.4314 16.4094 12.6102C16.4094 14.7891 14.6583 16.559 12.5026 16.559Z"
        fill="#404040"
    />
    </g>
</svg>