<svg width="48" height="48" viewBox="0 0 48 48" fill="none" xmlns="http://www.w3.org/2000/svg">
<circle cx="24" cy="24" r="24" fill="#404040"/>
<path d="M12.088 23.964C12.088 21.6067 12.5753 19.51 13.55 17.674C14.5473 15.8153 15.9527 14.376 17.766 13.356C19.5793 12.3133 21.6647 11.792 24.022 11.792C27.014 11.792 29.53 12.5967 31.57 14.206C33.61 15.7927 34.9247 17.9573 35.514 20.7H28.34C27.9093 19.7933 27.3087 19.102 26.538 18.626C25.79 18.15 24.9173 17.912 23.92 17.912C22.3787 17.912 21.1433 18.4673 20.214 19.578C19.3073 20.666 18.854 22.128 18.854 23.964C18.854 25.8227 19.3073 27.3073 20.214 28.418C21.1433 29.506 22.3787 30.05 23.92 30.05C24.9173 30.05 25.79 29.812 26.538 29.336C27.3087 28.86 27.9093 28.1687 28.34 27.262H35.514C34.9247 30.0047 33.61 32.1807 31.57 33.79C29.53 35.3767 27.014 36.17 24.022 36.17C21.6647 36.17 19.5793 35.66 17.766 34.64C15.9527 33.5973 14.5473 32.158 13.55 30.322C12.5753 28.4633 12.088 26.344 12.088 23.964Z" fill="#FF9800"/>
</svg>
