<svg width="405" height="249" viewBox="0 0 405 249" fill="none" xmlns="http://www.w3.org/2000/svg">
<path d="M376.818 208.995C373.735 201.156 371.485 192.816 368.985 183.976C367.319 178.055 364.569 171.383 358.736 169.548C352.986 167.713 346.903 171.466 343.32 176.387C339.82 181.224 338.07 187.145 335.07 192.316C329.654 201.739 319.987 205.659 311.988 197.403C300.571 185.56 295.488 169.465 288.238 155.037C282.989 144.612 278.572 132.353 271.989 122.679C261.906 108.001 248.073 95.4082 229.741 95.4082C218.075 97.1595 207.825 107.501 200.909 120.427C193.992 133.354 189.909 148.699 186.493 163.961C180.243 191.815 175.576 220.254 170.993 248.692L402.734 246.023C401.817 246.023 396.151 238.434 395.068 237.35C386.151 228.76 380.818 219.336 376.818 208.995Z" fill="#F6F6F6"/>
<path d="M332.82 222.256C332.404 231.263 322.571 247.025 313.571 246.608C304.572 246.191 299.738 229.678 300.238 220.672C300.655 211.665 310.321 166.547 319.321 166.964C328.237 167.381 333.237 213.249 332.82 222.256Z" fill="#9F9F9F"/>
<path d="M318.821 172.801L314.238 245.857" stroke="black" stroke-width="0.8675" stroke-miterlimit="10" stroke-linecap="round" stroke-linejoin="round"/>
<path d="M312.154 220.421C310.071 224.925 308.571 229.678 307.571 234.599C307.071 237.101 306.821 239.769 307.904 242.105C309.154 244.606 311.904 246.024 314.654 246.525C321.32 247.609 328.07 243.522 331.987 238.018C335.903 232.514 337.653 225.675 339.153 219.087C340.403 213.916 341.57 208.579 343.903 203.742C344.903 201.657 350.736 193.651 347.986 191.566C344.236 188.647 333.32 191.816 326.404 199.405C320.654 205.66 315.654 212.665 312.154 220.421Z" fill="#FF9800"/>
<path d="M314.654 246.442C314.654 246.442 322.737 214.918 342.237 196.904" stroke="black" stroke-width="0.8675" stroke-miterlimit="10" stroke-linecap="round" stroke-linejoin="round"/>
<path d="M359.485 213C358.819 214.251 357.485 215.085 356.319 215.752C354.902 216.586 353.319 217.253 351.819 218.004C349.902 218.921 347.902 219.838 346.069 221.006C344.736 221.84 343.569 222.757 342.569 223.842C344.153 220.255 345.986 217.17 348.152 214.334C350.986 210.665 353.902 208.83 356.819 208.83C356.902 208.83 356.985 208.83 356.985 208.83C357.902 208.83 358.569 209.08 359.069 209.497C360.152 210.248 360.152 211.916 359.485 213Z" fill="#404040"/>
<path d="M362.819 233.349C361.652 234.183 360.152 234.349 358.819 234.516C357.152 234.6 355.486 234.6 353.819 234.6C351.736 234.6 349.486 234.6 347.403 234.85C345.82 235.017 344.32 235.35 342.986 235.851C345.903 233.265 348.903 231.264 352.069 229.679C356.236 227.594 359.652 227.177 362.319 228.428C362.402 228.428 362.402 228.512 362.486 228.512C363.319 228.929 363.819 229.429 364.069 230.013C364.569 231.18 363.819 232.598 362.819 233.349Z" fill="#404040"/>
<path d="M355.069 243.355C354.069 243.188 353.236 242.605 352.569 242.021C351.652 241.27 350.819 240.52 350.069 239.686C348.986 238.685 347.903 237.684 346.736 236.767C345.903 236.1 344.986 235.599 344.069 235.266C346.736 235.349 349.152 235.766 351.486 236.433C354.569 237.351 356.402 238.768 357.152 240.603C357.152 240.686 357.152 240.686 357.235 240.77C357.485 241.354 357.485 241.854 357.319 242.271C356.985 243.105 355.902 243.439 355.069 243.355Z" fill="#404040"/>
<path d="M333.153 246.609C333.153 246.609 333.237 227.344 356.736 210.998" stroke="#2A294F" stroke-width="0.7798" stroke-miterlimit="10" stroke-linecap="round" stroke-linejoin="round"/>
<path d="M333.153 246.61C333.153 246.61 340.403 231.098 359.986 231.098" stroke="#2A294F" stroke-width="0.7798" stroke-miterlimit="10" stroke-linecap="round" stroke-linejoin="round"/>
<path d="M343.819 235.433C343.819 235.433 347.569 235.183 355.486 241.104" stroke="#2A294F" stroke-width="0.7798" stroke-miterlimit="10" stroke-linecap="round" stroke-linejoin="round"/>
<path d="M131.078 246.774C125.662 226.175 120.162 205.659 113.745 185.727C110.162 174.469 106.162 163.294 100.663 154.287C95.1629 145.28 87.8298 138.691 80.4968 138.691C69.1639 140.86 61.9142 152.035 57.0811 164.461C53.9145 172.551 52.4146 182.391 50.1647 190.981C47.0815 202.824 45.4982 215.667 39.5817 226.008C35.4986 233.264 29.1655 231.429 24.9157 224.924C22.5824 221.338 20.9158 217.085 18.2493 213.749C15.5827 210.496 11.4995 208.328 8.08301 210.413C4.66648 212.498 3.58319 217.919 3.16654 222.589C2.58323 229.761 1.91659 236.349 0.8333 242.688C0.58331 244.105 0.33332 245.44 0 246.774H131.078Z" fill="#F6F6F6"/>
<path d="M82.4966 218.418C79.0801 214.499 74.8302 211.079 73.4136 206.159C72.4137 202.573 73.1636 198.737 73.5803 194.984C73.9969 191.231 73.8303 187.144 71.4137 184.225C69.4138 181.89 66.3306 180.806 63.2474 180.222C60.2475 179.555 57.0809 179.138 54.4144 177.637C50.0812 175.135 50.9145 170.882 48.5813 167.212C45.998 163.043 39.8316 157.705 34.6652 160.457C29.1654 163.376 29.9987 172.3 33.6652 176.219C36.0818 178.805 39.2483 181.307 39.5816 184.893C40.0816 190.23 33.9985 195.067 35.6651 200.154C36.9151 203.907 41.6649 205.242 43.9981 208.411C46.3314 211.58 45.8314 216 44.4981 219.753C43.1648 223.422 40.9982 226.841 40.1649 230.678C38.415 238.517 44.5814 243.938 51.5812 245.689C57.9976 247.274 71.9137 246.523 71.9137 246.523C76.9135 244.772 82.4133 240.435 85.0798 235.681C87.1631 232.095 87.4131 227.509 85.8298 223.672C85.1631 221.754 83.9132 220.086 82.4966 218.418Z" fill="#FF9800"/>
<path d="M40.915 168.965C40.915 168.965 64.6641 205.66 67.2473 246.441" stroke="black" stroke-miterlimit="10" stroke-linecap="round" stroke-linejoin="round"/>
<path d="M19.7498 218.5C20.0831 218.167 20.6664 218 21.3331 218C21.4164 218 21.4164 218 21.4997 218C23.7497 218 25.9162 219.418 28.0828 222.17C29.7494 224.255 31.0827 226.673 32.3326 229.342C31.5827 228.591 30.666 227.841 29.6661 227.257C28.2495 226.423 26.7495 225.673 25.3329 225.005C24.1663 224.505 22.9997 223.921 21.9164 223.337C20.9998 222.837 20.0831 222.17 19.4998 221.252C18.9998 220.335 18.9998 219.084 19.7498 218.5Z" fill="#404040"/>
<path d="M16.0833 234.013C16.2499 233.596 16.6666 233.179 17.3332 232.846C17.4166 232.846 17.4166 232.762 17.4999 232.762C19.4998 231.845 22.083 232.179 25.2496 233.763C27.6661 234.931 29.916 236.515 32.166 238.433C31.166 238.1 29.9994 237.766 28.8328 237.683C27.2495 237.516 25.5829 237.516 23.9163 237.516C22.6663 237.516 21.4164 237.516 20.0831 237.433C19.0832 237.349 17.9165 237.182 16.9999 236.599C16.2499 236.015 15.6666 234.931 16.0833 234.013Z" fill="#404040"/>
<path d="M21.1661 243.353C21.0827 243.019 21.0827 242.686 21.2494 242.185V242.102C21.8327 240.684 23.2493 239.6 25.5826 238.933C27.3325 238.433 29.1657 238.099 31.1657 238.016C30.499 238.266 29.8324 238.683 29.1657 239.183C28.2491 239.85 27.4158 240.601 26.6658 241.352C26.0825 241.935 25.4159 242.519 24.7493 243.103C24.2493 243.52 23.5826 244.02 22.8327 244.104C22.166 244.27 21.4161 243.937 21.1661 243.353Z" fill="#404040"/>
<path d="M39.4156 246.605C39.4156 246.605 39.3323 232.011 21.583 219.668" stroke="#2A294F" stroke-width="0.7798" stroke-miterlimit="10" stroke-linecap="round" stroke-linejoin="round"/>
<path d="M39.4152 246.605C39.4152 246.605 33.9154 234.93 19.166 234.93" stroke="#2A294F" stroke-width="0.7798" stroke-miterlimit="10" stroke-linecap="round" stroke-linejoin="round"/>
<path d="M31.333 238.182C31.333 238.182 28.4998 237.932 22.5 242.519" stroke="#2A294F" stroke-width="0.7798" stroke-miterlimit="10" stroke-linecap="round" stroke-linejoin="round"/>
<path d="M230.158 246.606H73.4141C69.0809 246.606 65.5811 243.103 65.5811 238.766V25.937C65.5811 21.6003 69.0809 18.0977 73.4141 18.0977H230.241C234.574 18.0977 238.074 21.6003 238.074 25.937V238.683C238.074 243.103 234.574 246.606 230.158 246.606Z" fill="#FF9800"/>
<path d="M65.4971 73.7246V238.684C65.4971 243.021 68.9969 246.523 73.3301 246.523H230.157C234.49 246.523 237.99 243.021 237.99 238.684V206.159L65.4971 73.7246Z" fill="#F79300"/>
<path d="M224.823 236.097H78.746C76.996 236.097 75.4961 234.68 75.4961 232.845V31.858C75.4961 30.1066 76.9127 28.6055 78.746 28.6055H224.823C226.573 28.6055 228.073 30.0232 228.073 31.858V232.845C228.073 234.68 226.573 236.097 224.823 236.097Z" fill="#F6F6F6"/>
<path d="M164.91 13.7605C164.91 13.5103 164.91 13.3435 164.91 13.0933C164.91 5.83779 159.077 0 151.827 0C144.577 0 138.744 5.83779 138.744 13.0933C138.744 13.3435 138.744 13.5103 138.744 13.7605H119.495V33.7758H184.159V13.7605H164.91Z" fill="#404040"/>
<path d="M119.412 13.7598V33.7751H184.16L119.412 13.7598Z" fill="#2E2E2E"/>
<path d="M151.827 20.4318C155.877 20.4318 159.16 17.146 159.16 13.0928C159.16 9.03966 155.877 5.75391 151.827 5.75391C147.777 5.75391 144.494 9.03966 144.494 13.0928C144.494 17.146 147.777 20.4318 151.827 20.4318Z" fill="#2E2E2E"/>
<path d="M146.578 7.92383C143.661 10.8427 143.661 15.4296 146.578 18.3485C149.495 21.2674 154.078 21.2674 156.994 18.3485L146.578 7.92383Z" fill="#404040"/>
<path d="M184.16 33.7754H119.412V35.1931H184.16V33.7754Z" fill="#CDE1F9"/>
<path d="M117.745 61.4668H93.1631V86.0689H117.745V61.4668Z" stroke="#1A55B5" stroke-miterlimit="10"/>
<path d="M100.329 75.0608L107.829 80.8986L123.078 66.2207" stroke="#F3F4F6" stroke-width="4" stroke-miterlimit="10"/>
<path d="M98.6621 73.3948L106.162 79.2326L121.411 64.5547" stroke="#73BC3A" stroke-width="10" stroke-miterlimit="10"/>
<path d="M209.492 68.4734H129.495C128.995 68.4734 128.578 68.0564 128.578 67.556C128.578 67.0557 128.995 66.6387 129.495 66.6387H209.492C209.992 66.6387 210.408 67.0557 210.408 67.556C210.408 68.0564 209.992 68.4734 209.492 68.4734Z" fill="#404040"/>
<path d="M209.491 72.6414H129.494C128.994 72.6414 128.577 72.2244 128.577 71.724C128.577 71.2236 128.994 70.8066 129.494 70.8066H209.491C209.991 70.8066 210.407 71.2236 210.407 71.724C210.407 72.2244 209.991 72.6414 209.491 72.6414Z" fill="#404040"/>
<path d="M209.491 76.8113H129.494C128.994 76.8113 128.577 76.3943 128.577 75.8939C128.577 75.3935 128.994 74.9766 129.494 74.9766H209.491C209.991 74.9766 210.407 75.3935 210.407 75.8939C210.407 76.3943 209.991 76.8113 209.491 76.8113Z" fill="#404040"/>
<path d="M209.491 80.9832H129.494C128.994 80.9832 128.577 80.5662 128.577 80.0658C128.577 79.5654 128.994 79.1484 129.494 79.1484H209.491C209.991 79.1484 210.407 79.5654 210.407 80.0658C210.407 80.5662 209.991 80.9832 209.491 80.9832Z" fill="#404040"/>
<path d="M117.745 100.998H93.1631V125.6H117.745V100.998Z" stroke="#1A55B5" stroke-miterlimit="10"/>
<path d="M100.329 114.592L107.829 120.43L123.078 105.752" stroke="#F3F4F6" stroke-width="4" stroke-miterlimit="10"/>
<path d="M98.6621 112.922L106.162 118.76L121.411 104.082" stroke="#73BC3A" stroke-width="10" stroke-miterlimit="10"/>
<path d="M209.492 108.003H129.495C128.995 108.003 128.578 107.586 128.578 107.085C128.578 106.585 128.995 106.168 129.495 106.168H209.492C209.992 106.168 210.408 106.585 210.408 107.085C210.408 107.586 209.992 108.003 209.492 108.003Z" fill="#404040"/>
<path d="M209.491 112.173H129.494C128.994 112.173 128.577 111.756 128.577 111.255C128.577 110.755 128.994 110.338 129.494 110.338H209.491C209.991 110.338 210.407 110.755 210.407 111.255C210.407 111.756 209.991 112.173 209.491 112.173Z" fill="#404040"/>
<path d="M209.491 116.343H129.494C128.994 116.343 128.577 115.926 128.577 115.425C128.577 114.925 128.994 114.508 129.494 114.508H209.491C209.991 114.508 210.407 114.925 210.407 115.425C210.407 115.926 209.991 116.343 209.491 116.343Z" fill="#404040"/>
<path d="M209.491 120.512H129.494C128.994 120.512 128.577 120.095 128.577 119.595C128.577 119.095 128.994 118.678 129.494 118.678H209.491C209.991 118.678 210.407 119.095 210.407 119.595C210.407 120.095 209.991 120.512 209.491 120.512Z" fill="#404040"/>
<path d="M117.745 140.611H93.1631V165.213H117.745V140.611Z" stroke="#1A55B5" stroke-miterlimit="10"/>
<path d="M100.329 154.121L107.829 160.043L123.078 145.281" stroke="#F3F4F6" stroke-width="4" stroke-miterlimit="10"/>
<path d="M98.6621 152.453L106.162 158.375L121.411 143.613" stroke="#73BC3A" stroke-width="10" stroke-miterlimit="10"/>
<path d="M209.492 147.534H129.495C128.995 147.534 128.578 147.117 128.578 146.617C128.578 146.116 128.995 145.699 129.495 145.699H209.492C209.992 145.699 210.408 146.116 210.408 146.617C210.408 147.117 209.992 147.534 209.492 147.534Z" fill="#404040"/>
<path d="M209.491 151.704H129.494C128.994 151.704 128.577 151.287 128.577 150.787C128.577 150.286 128.994 149.869 129.494 149.869H209.491C209.991 149.869 210.407 150.286 210.407 150.787C210.407 151.287 209.991 151.704 209.491 151.704Z" fill="#404040"/>
<path d="M209.491 155.872H129.494C128.994 155.872 128.577 155.455 128.577 154.954C128.577 154.454 128.994 154.037 129.494 154.037H209.491C209.991 154.037 210.407 154.454 210.407 154.954C210.407 155.455 209.991 155.872 209.491 155.872Z" fill="#404040"/>
<path d="M209.491 160.042H129.494C128.994 160.042 128.577 159.625 128.577 159.124C128.577 158.624 128.994 158.207 129.494 158.207H209.491C209.991 158.207 210.407 158.624 210.407 159.124C210.407 159.625 209.991 160.042 209.491 160.042Z" fill="#404040"/>
<path d="M117.745 180.141H93.1631V204.743H117.745V180.141Z" stroke="#1A55B5" stroke-miterlimit="10"/>
<path d="M100.329 193.651L107.829 199.572L123.078 184.811" stroke="#F3F4F6" stroke-width="4" stroke-miterlimit="10"/>
<path d="M98.6621 191.985L106.162 197.906L121.411 183.145" stroke="#73BC3A" stroke-width="10" stroke-miterlimit="10"/>
<path d="M209.492 187.063H129.495C128.995 187.063 128.578 186.646 128.578 186.146C128.578 185.645 128.995 185.229 129.495 185.229H209.492C209.992 185.229 210.408 185.645 210.408 186.146C210.408 186.646 209.992 187.063 209.492 187.063Z" fill="#404040"/>
<path d="M209.491 191.233H129.494C128.994 191.233 128.577 190.816 128.577 190.316C128.577 189.815 128.994 189.398 129.494 189.398H209.491C209.991 189.398 210.407 189.815 210.407 190.316C210.407 190.816 209.991 191.233 209.491 191.233Z" fill="#404040"/>
<path d="M209.491 195.403H129.494C128.994 195.403 128.577 194.986 128.577 194.486C128.577 193.985 128.994 193.568 129.494 193.568H209.491C209.991 193.568 210.407 193.985 210.407 194.486C210.407 194.986 209.991 195.403 209.491 195.403Z" fill="#404040"/>
<path d="M209.491 199.573H129.494C128.994 199.573 128.577 199.156 128.577 198.656C128.577 198.155 128.994 197.738 129.494 197.738H209.491C209.991 197.738 210.407 198.155 210.407 198.656C210.407 199.156 209.991 199.573 209.491 199.573Z" fill="#404040"/>
<path d="M245.075 82.5657C244.575 82.9827 239.908 85.6514 239.908 85.6514L236.658 81.4816L237.658 76.6445L244.741 77.0615L245.991 80.6476C246.241 81.565 245.741 82.0653 245.075 82.5657Z" fill="#FE9280"/>
<path d="M244.657 77.1441L245.741 80.3132L242.491 81.6476C241.907 81.8978 241.157 81.9812 240.491 81.8144C239.074 81.3974 238.158 80.063 238.324 78.5619L238.574 76.8105L244.657 77.1441Z" fill="#E86767"/>
<path d="M243.074 81.3137L245.907 81.7307L247.491 79.062C247.824 78.5616 247.657 77.9778 247.157 77.6443C246.657 77.3107 246.074 77.4775 245.741 77.9778L243.074 81.3137Z" fill="#FFCE86"/>
<path d="M240.991 92.6562L235.157 94.1574L233.074 111.004L239.907 111.254L240.991 92.6562Z" fill="white"/>
<path d="M317.572 106.333L307.405 105.083L309.739 86.5684L319.905 87.8193C324.988 88.4865 328.654 93.1567 327.988 98.2439C327.321 103.331 322.655 107.001 317.572 106.333Z" fill="#FFC571"/>
<path opacity="0.2" d="M318.072 102.165L307.905 100.914L307.405 105.167L317.572 106.418C322.655 107.085 327.321 103.416 327.988 98.3285C328.071 97.5779 328.071 96.9107 327.988 96.1602C326.488 100.08 322.488 102.665 318.072 102.165Z" fill="#777470"/>
<path d="M306.155 104.916L198.076 90.9888L200.409 72.4746L308.405 86.4019L306.155 104.916Z" fill="#FF9800"/>
<path d="M178.827 79.1464L198.076 90.9888L200.41 72.4746L178.827 79.1464Z" fill="#FFF4DD"/>
<path opacity="0.2" d="M178.827 79.1465L198.076 90.9889L198.66 86.402L178.827 79.1465Z" fill="#777470"/>
<path d="M185.244 77.1445L178.827 79.1461L184.577 82.6487L185.244 77.1445Z" fill="#2A294F"/>
<path d="M317.375 87.539L308.445 86.4141L306.114 104.949L315.043 106.074L317.375 87.539Z" fill="#D3EAF5"/>
<path d="M317.497 86.7585L314.438 86.373L311.908 106.48L314.968 106.866L317.497 86.7585Z" fill="#D3EAF5"/>
<path opacity="0.2" d="M311.988 105.665L198.076 90.9872L198.659 86.4004L312.572 101.162L311.988 105.665Z" fill="#777470"/>
<path opacity="0.05" d="M313.738 91.6559L199.826 76.9781L200.409 72.4746L314.322 87.1525L313.738 91.6559Z" fill="#777470"/>
<path opacity="0.15" d="M315.704 100.712L312.645 100.326L311.874 106.449L314.933 106.835L315.704 100.712Z" fill="#777470"/>
<path d="M270.656 142.444L272.156 138.525L277.323 138.108C278.239 138.024 279.073 138.608 279.156 139.359C279.239 140.192 278.573 140.943 277.573 141.026L270.656 142.444Z" fill="#FFB84F"/>
<path d="M267.99 138.524L270.657 142.443L275.74 141.443L270.157 133.02L269.073 133.77C267.407 134.771 266.99 136.939 267.99 138.524Z" fill="#FFCE86"/>
<path d="M272.99 75.2264C267.74 67.5538 254.574 69.6388 254.907 81.8981V81.9815C254.907 83.5661 254.907 85.1506 254.49 86.5684C254.324 87.3189 253.907 87.9861 253.407 88.4865C252.907 88.9869 252.157 89.3205 251.49 89.4039C250.74 89.5707 249.99 89.5707 249.157 89.7375C248.324 89.9042 247.491 90.2378 246.824 90.6548C245.407 91.4888 244.157 92.9065 243.657 94.5745C242.574 97.827 243.407 101.663 245.907 104.082C246.491 104.666 247.241 105.166 247.991 105.583C248.741 106 249.657 106.083 250.407 106.25C251.907 106.584 253.49 107.001 255.074 107.334L255.157 107.167C253.74 106.5 252.24 105.833 250.74 105.249C249.907 104.999 249.241 104.832 248.657 104.415C248.074 104.082 247.491 103.581 246.991 103.081C245.991 101.997 245.324 100.662 244.907 99.2447C244.491 97.827 244.407 96.3258 244.824 94.9081C245.241 93.4903 246.157 92.3228 247.407 91.4888C247.991 91.0718 248.741 90.8216 249.407 90.5714C250.157 90.4046 250.907 90.3212 251.74 90.071C252.574 89.8209 253.324 89.4873 253.907 88.8201C254.49 88.1529 254.824 87.4023 254.99 86.5684C255.074 85.9846 255.157 85.4008 255.157 84.9004C255.324 87.1521 255.074 89.4873 252.74 90.4046C251.407 90.905 250.074 90.905 248.824 91.739C247.574 92.573 246.574 93.7405 246.157 95.1583C244.657 99.4949 248.491 105.083 252.99 105.583C254.824 105.75 256.74 106.25 258.573 106.584C259.073 106.667 266.323 108.168 266.407 108.001L274.823 83.1491L272.99 75.2264Z" fill="#404040"/>
<path d="M272.573 136.691L289.572 124.848L287.239 118.26L270.073 133.021L272.573 136.691Z" fill="white"/>
<path d="M289.628 124.841C291.334 124.034 292.063 121.995 291.256 120.288C290.449 118.581 288.412 117.852 286.707 118.659C285.001 119.467 284.272 121.505 285.079 123.212C285.886 124.919 287.923 125.649 289.628 124.841Z" fill="white"/>
<path d="M285.906 124.432L290.739 119.595L276.74 103.833C275.156 101.664 271.99 101.414 270.156 103.332C268.24 105.25 268.49 110.421 270.573 112.089L285.906 124.432Z" fill="white"/>
<path d="M262.172 102.671L267.901 103.156L268.921 91.1072L263.192 90.6216L262.172 102.671Z" fill="#FFCE86"/>
<path d="M236.56 115.251C238.443 115.125 239.867 113.495 239.741 111.611C239.615 109.727 237.986 108.301 236.103 108.428C234.221 108.554 232.797 110.184 232.923 112.068C233.049 113.952 234.677 115.377 236.56 115.251Z" fill="white"/>
<path d="M233.907 108.919L237.324 115.091L258.49 108.919C261.073 108.252 262.489 103.332 261.489 100.913C260.489 98.4113 257.49 97.4105 255.24 98.8283L233.907 108.919Z" fill="white"/>
<path d="M266.24 132.686L276.906 106.416C277.406 104.247 275.989 102.162 273.823 101.829L258.49 98.3261C256.323 97.9925 254.323 99.7438 254.24 101.912L248.99 130.517L266.24 132.686Z" fill="white"/>
<path d="M264.573 76.6445C262.824 78.8963 259.574 79.8136 258.824 81.8985L258.657 82.8159C258.657 82.8993 258.657 82.8993 258.657 82.9827L258.157 85.9016C257.574 89.5711 259.99 92.9904 263.657 93.6575C267.323 94.2413 270.74 91.8228 271.407 88.1533L271.99 84.9008C271.573 81.4816 265.49 81.2314 264.573 76.6445Z" fill="#FFCE86"/>
<path d="M273.736 86.9868C273.882 86.1239 273.301 85.3063 272.439 85.1606C271.577 85.0149 270.76 85.5962 270.614 86.4591C270.469 87.322 271.05 88.1396 271.912 88.2853C272.774 88.431 273.591 87.8496 273.736 86.9868Z" fill="#FFCE86"/>
<path d="M256.573 131.519L264.323 150.45L256.99 239.268H251.324L244.657 149.95L249.074 130.602L256.573 131.519Z" fill="#2E2E2E"/>
<path d="M256.573 131.52V150.451L291.238 239.269H295.488L276.989 147.115L266.24 132.687L256.573 131.52Z" fill="#404040"/>
<path d="M254.491 243.94H252.074V239.27H255.157L254.491 243.94Z" fill="#FFCE86"/>
<path d="M251.99 242.855L253.407 243.439L254.657 242.855L255.823 246.608H245.157L249.157 244.774L251.99 242.855Z" fill="#2A294F"/>
<path d="M294.072 243.94H296.405L294.988 239.27H291.905L294.072 243.94Z" fill="#FFCE86"/>
<path d="M296.488 242.855L295.072 243.439L293.822 242.855L292.655 246.608H303.322L299.322 244.774L296.488 242.855Z" fill="#2A294F"/>
<path d="M254.573 117.51C257.243 117.51 259.406 115.344 259.406 112.673C259.406 110.002 257.243 107.836 254.573 107.836C251.904 107.836 249.74 110.002 249.74 112.673C249.74 115.344 251.904 117.51 254.573 117.51Z" fill="white"/>
<path d="M258.99 98.4941L259.574 108.919L268.573 99.7451L258.99 98.4941Z" fill="#FFCE86"/>
<path d="M278.49 77.3941C277.74 76.3933 276.823 75.6427 275.74 75.0589C274.073 74.1416 272.156 74.225 270.573 72.8906L271.823 85.15C274.073 84.4828 273.906 89.3198 271.323 87.9855C271.323 87.9855 266.24 90.1538 264.323 94.9075C262.99 98.0765 262.74 101.829 263.157 103.998C263.74 107.834 266.99 109.836 270.74 108.668C272.906 108.001 274.74 106.333 275.99 104.415C280.406 97.6595 283.406 86.5677 279.573 78.9786C279.24 78.4782 278.906 77.9778 278.49 77.3941Z" fill="#404040"/>
<path d="M237.574 75.9766L237.491 76.7271C237.241 78.3117 238.324 79.8962 239.991 80.1464L241.241 80.3132C242.824 80.5634 244.407 79.4792 244.657 77.8113L244.741 77.0607L237.574 75.9766Z" fill="#FFCE86"/>
<path d="M264.74 86.4003C264.323 86.1501 261.74 85.6498 261.407 85.8165C261.073 85.9833 260.907 86.4837 260.99 86.8173C261.073 87.2343 261.323 87.4845 261.657 87.7347C262.407 88.2351 263.407 88.3185 264.24 87.9015C264.573 87.7347 264.823 87.5679 264.99 87.2343C265.073 86.9841 265.073 86.5671 264.74 86.4003Z" fill="white"/>
<path d="M0.75 246.607H404.151" stroke="#2A294F" stroke-width="0.7798" stroke-miterlimit="10" stroke-linecap="round" stroke-linejoin="round"/>
</svg>
