<svg width="484" height="266" viewBox="0 0 484 266" fill="none" xmlns="http://www.w3.org/2000/svg">
<path d="M395.874 172.588C392.791 164.748 390.541 156.409 388.041 147.569C386.374 141.647 383.624 134.976 377.791 133.141C372.042 131.306 365.958 135.059 362.375 139.98C358.875 144.817 357.126 150.738 354.126 155.908C348.709 165.332 339.043 169.252 331.043 160.996C319.627 149.153 314.544 133.058 307.294 118.63C302.044 108.205 297.628 95.9459 291.045 86.2718C280.962 71.5939 267.129 59.001 248.797 59.001C237.13 60.7523 226.881 71.0935 219.964 84.0201C213.048 96.9466 208.965 112.292 205.548 127.553C199.298 155.408 194.632 183.846 190.049 212.285L421.79 209.616C420.873 209.616 415.207 202.027 414.123 200.943C405.207 192.353 399.874 182.929 395.874 172.588Z" fill="#F6F6F6"/>
<path d="M451.876 185.849C451.459 194.856 441.626 210.618 432.627 210.201C423.627 209.784 418.794 193.271 419.294 184.264C419.711 175.257 429.377 130.14 438.377 130.557C447.293 130.974 452.293 176.842 451.876 185.849Z" fill="#9F9F9F"/>
<path d="M437.877 136.395L433.293 209.45" stroke="black" stroke-width="0.8675" stroke-miterlimit="10" stroke-linecap="round" stroke-linejoin="round"/>
<path d="M431.21 184.015C429.127 188.518 427.627 193.272 426.627 198.192C426.127 200.694 425.877 203.363 426.96 205.698C428.21 208.2 430.96 209.618 433.71 210.118C440.376 211.202 447.126 207.116 451.043 201.611C454.959 196.107 456.709 189.269 458.209 182.68C459.459 177.51 460.626 172.172 462.959 167.335C463.959 165.25 469.792 157.244 467.042 155.159C463.292 152.24 452.376 155.409 445.46 162.999C439.71 169.253 434.71 176.259 431.21 184.015Z" fill="#FF9800"/>
<path d="M433.71 210.035C433.71 210.035 441.793 178.511 461.293 160.497" stroke="black" stroke-width="0.8675" stroke-miterlimit="10" stroke-linecap="round" stroke-linejoin="round"/>
<path d="M478.541 176.593C477.874 177.844 476.541 178.678 475.374 179.345C473.958 180.179 472.375 180.846 470.875 181.597C468.958 182.514 466.958 183.431 465.125 184.599C463.792 185.433 462.625 186.35 461.625 187.434C463.208 183.848 465.042 180.763 467.208 177.927C470.041 174.258 472.958 172.423 475.874 172.423C475.958 172.423 476.041 172.423 476.041 172.423C476.958 172.423 477.624 172.673 478.124 173.09C479.208 173.841 479.208 175.509 478.541 176.593Z" fill="#404040"/>
<path d="M481.874 196.941C480.708 197.775 479.208 197.942 477.874 198.109C476.208 198.192 474.541 198.192 472.875 198.192C470.791 198.192 468.541 198.192 466.458 198.443C464.875 198.609 463.375 198.943 462.042 199.443C464.958 196.858 467.958 194.857 471.125 193.272C475.291 191.187 478.708 190.77 481.374 192.021C481.458 192.021 481.458 192.104 481.541 192.104C482.374 192.521 482.874 193.022 483.124 193.606C483.624 194.773 482.874 196.191 481.874 196.941Z" fill="#404040"/>
<path d="M474.125 206.949C473.125 206.782 472.291 206.198 471.625 205.615C470.708 204.864 469.875 204.113 469.125 203.279C468.041 202.279 466.958 201.278 465.792 200.361C464.958 199.693 464.042 199.193 463.125 198.859C465.792 198.943 468.208 199.36 470.541 200.027C473.625 200.944 475.458 202.362 476.208 204.197C476.208 204.28 476.208 204.28 476.291 204.364C476.541 204.947 476.541 205.448 476.374 205.865C476.041 206.699 474.958 207.032 474.125 206.949Z" fill="#404040"/>
<path d="M452.209 210.201C452.209 210.201 452.292 190.936 475.791 174.59" stroke="#2A294F" stroke-width="0.7798" stroke-miterlimit="10" stroke-linecap="round" stroke-linejoin="round"/>
<path d="M452.209 210.201C452.209 210.201 459.459 194.689 479.041 194.689" stroke="#2A294F" stroke-width="0.7798" stroke-miterlimit="10" stroke-linecap="round" stroke-linejoin="round"/>
<path d="M462.875 199.026C462.875 199.026 466.624 198.776 474.541 204.697" stroke="#2A294F" stroke-width="0.7798" stroke-miterlimit="10" stroke-linecap="round" stroke-linejoin="round"/>
<path d="M145.134 210.367C139.717 189.768 134.218 169.252 127.801 149.32C124.218 138.062 120.218 126.886 114.718 117.879C109.219 108.873 101.885 102.284 94.5524 102.284C83.2196 104.453 75.9699 115.628 71.1367 128.054C67.9702 136.143 66.4702 145.984 64.2203 154.574C61.1371 166.417 59.5538 179.26 53.6374 189.601C49.5542 196.856 43.2212 195.022 38.9713 188.517C36.6381 184.931 34.9715 180.677 32.3049 177.342C29.6384 174.089 25.5552 171.921 22.1387 174.006C18.7221 176.091 17.6389 181.511 17.2222 186.182C16.6389 193.354 15.9723 199.942 14.889 206.28C14.639 207.698 14.389 209.032 14.0557 210.367H145.134Z" fill="#F6F6F6"/>
<path d="M66.5532 182.011C63.1367 178.091 58.8869 174.672 57.4703 169.751C56.4703 166.165 57.2203 162.329 57.6369 158.576C58.0536 154.823 57.8869 150.737 55.4703 147.818C53.4704 145.483 50.3872 144.398 47.304 143.815C44.3041 143.148 41.1376 142.731 38.471 141.229C34.1379 138.727 34.9712 134.474 32.6379 130.805C30.0547 126.635 23.8883 121.297 18.7218 124.05C13.222 126.968 14.0553 135.892 17.7218 139.812C20.1384 142.397 23.305 144.899 23.6383 148.485C24.1383 153.822 18.0552 158.659 19.7218 163.747C20.9717 167.499 25.7215 168.834 28.0548 172.003C30.388 175.172 29.888 179.592 28.5547 183.345C27.2215 187.014 25.0549 190.434 24.2216 194.27C22.4717 202.109 28.6381 207.53 35.6378 209.281C42.0542 210.866 55.9703 210.115 55.9703 210.115C60.9701 208.364 66.4699 204.027 69.1365 199.274C71.2197 195.688 71.4697 191.101 69.8864 187.265C69.2198 185.346 67.9698 183.678 66.5532 182.011Z" fill="#FF9800"/>
<path d="M24.9707 132.558C24.9707 132.558 48.7198 169.252 51.303 210.033" stroke="black" stroke-miterlimit="10" stroke-linecap="round" stroke-linejoin="round"/>
<path d="M3.80499 182.093C4.13831 181.76 4.72162 181.593 5.38826 181.593C5.47159 181.593 5.47159 181.593 5.55492 181.593C7.80483 181.593 9.97141 183.011 12.138 185.763C13.8046 187.848 15.1379 190.266 16.3878 192.935C15.6378 192.184 14.7212 191.434 13.7213 190.85C12.3046 190.016 10.8047 189.265 9.3881 188.598C8.22148 188.098 7.05486 187.514 5.97157 186.93C5.05494 186.43 4.13831 185.763 3.555 184.845C3.05502 183.928 3.05502 182.677 3.80499 182.093Z" fill="#404040"/>
<path d="M0.138934 197.606C0.305594 197.189 0.722244 196.772 1.38888 196.439C1.47221 196.439 1.47221 196.355 1.55554 196.355C3.55546 195.438 6.13869 195.771 9.30523 197.356C11.7218 198.523 13.9717 200.108 16.2216 202.026C15.2217 201.693 14.055 201.359 12.8884 201.276C11.3052 201.109 9.63856 201.109 7.97196 201.109C6.72201 201.109 5.47205 201.109 4.13877 201.025C3.13881 200.942 1.97219 200.775 1.05556 200.191C0.305594 199.608 -0.277716 198.523 0.138934 197.606Z" fill="#404040"/>
<path d="M5.22209 206.946C5.13876 206.612 5.13876 206.279 5.30542 205.778V205.695C5.88873 204.277 7.30534 203.193 9.63858 202.526C11.3885 202.025 13.2218 201.692 15.2217 201.608C14.5551 201.859 13.8884 202.276 13.2218 202.776C12.3051 203.443 11.4718 204.194 10.7219 204.944C10.1386 205.528 9.47192 206.112 8.80528 206.696C8.3053 207.113 7.63866 207.613 6.88869 207.696C6.22205 207.863 5.47208 207.53 5.22209 206.946Z" fill="#404040"/>
<path d="M23.4715 210.197C23.4715 210.197 23.3882 195.603 5.63892 183.26" stroke="#2A294F" stroke-width="0.7798" stroke-miterlimit="10" stroke-linecap="round" stroke-linejoin="round"/>
<path d="M23.471 210.198C23.471 210.198 17.9712 198.522 3.2218 198.522" stroke="#2A294F" stroke-width="0.7798" stroke-miterlimit="10" stroke-linecap="round" stroke-linejoin="round"/>
<path d="M15.3884 201.775C15.3884 201.775 12.5552 201.525 6.55542 206.111" stroke="#2A294F" stroke-width="0.7798" stroke-miterlimit="10" stroke-linecap="round" stroke-linejoin="round"/>
<path d="M236.788 141.04H142.573L142.573 66.5818C142.573 40.6424 163.741 19.4741 189.681 19.4741C215.62 19.4741 236.788 40.6424 236.788 66.5818L236.788 141.04ZM166.496 117.117H212.865L212.865 66.5818C212.865 53.8137 202.449 43.3976 189.681 43.3976C176.913 43.3976 166.496 53.8137 166.496 66.5818L166.496 117.117Z" fill="#D3DCE2"/>
<path opacity="0.5" d="M223.955 34.2552C215.488 26.3255 204.198 21.487 191.699 21.487C165.759 21.487 144.591 42.6553 144.591 68.5947L144.591 141.037L236.79 141.037L236.79 66.5787C236.79 54.0794 231.885 42.7225 223.955 34.2552ZM168.515 119.13V117.114H166.499L166.499 66.5787C166.499 53.8106 176.915 43.3945 189.683 43.3945C196.537 43.3945 202.787 46.4185 207.088 51.2569C211.859 55.4906 214.883 61.7403 214.95 68.6619V119.197L168.515 119.13Z" fill="#404040"/>
<path d="M234.84 209.785H144.522C130.813 209.785 119.658 198.629 119.658 184.92L119.658 100.785C119.658 94.6025 124.631 89.6297 130.746 89.6969H248.616C254.799 89.6969 259.771 94.6697 259.704 100.785L259.704 184.92C259.704 198.629 248.549 209.785 234.84 209.785Z" fill="#FF9800"/>
<path opacity="0.5" d="M259.771 109.858L151.04 109.858C144.858 109.858 139.885 114.83 139.952 120.946L139.952 205.081C139.952 206.559 140.02 207.971 140.356 209.382C141.767 209.583 143.178 209.785 144.656 209.785L234.974 209.785C248.683 209.785 259.838 198.63 259.838 184.921L259.771 109.858Z" fill="#FF9800"/>
<g opacity="0.5">
<path opacity="0.5" d="M135.856 112.707C138.533 112.707 140.703 110.537 140.703 107.86C140.703 105.184 138.533 103.014 135.856 103.014C133.179 103.014 131.009 105.184 131.009 107.86C131.009 110.537 133.179 112.707 135.856 112.707Z" fill="#79B5E2"/>
<path opacity="0.5" d="M247.518 112.648C250.195 112.648 252.365 110.478 252.365 107.801C252.365 105.125 250.195 102.955 247.518 102.955C244.841 102.955 242.671 105.125 242.671 107.801C242.671 110.478 244.841 112.648 247.518 112.648Z" fill="#79B5E2"/>
</g>
<path opacity="0.5" d="M135.914 200.352C138.591 200.352 140.76 198.182 140.76 195.505C140.76 192.829 138.591 190.659 135.914 190.659C133.237 190.659 131.067 192.829 131.067 195.505C131.067 198.182 133.237 200.352 135.914 200.352Z" fill="#79B5E2"/>
<path opacity="0.5" d="M122.348 187.608L122.348 103.473C122.348 97.2906 127.32 92.3177 133.436 92.3849L251.306 92.3849C253.725 92.3849 255.808 93.1241 257.623 94.4009C255.607 91.5785 252.314 89.6297 248.551 89.6297L130.681 89.6297C124.498 89.6297 119.525 94.6025 119.592 100.718L119.592 184.853C119.592 192.38 122.952 199.234 128.328 203.804C124.632 199.436 122.348 193.791 122.348 187.608Z" fill="#D98100"/>
<path d="M133.833 110.708C136.509 110.708 138.679 108.538 138.679 105.861C138.679 103.185 136.509 101.015 133.833 101.015C131.156 101.015 128.986 103.185 128.986 105.861C128.986 108.538 131.156 110.708 133.833 110.708Z" fill="#F6F6F6"/>
<path d="M245.495 110.648C248.172 110.648 250.342 108.478 250.342 105.801C250.342 103.125 248.172 100.955 245.495 100.955C242.818 100.955 240.648 103.125 240.648 105.801C240.648 108.478 242.818 110.648 245.495 110.648Z" fill="#F6F6F6"/>
<path d="M133.888 198.354C136.565 198.354 138.735 196.184 138.735 193.507C138.735 190.83 136.565 188.66 133.888 188.66C131.211 188.66 129.042 190.83 129.042 193.507C129.042 196.184 131.211 198.354 133.888 198.354Z" fill="#F6F6F6"/>
<path d="M245.454 198.389C248.131 198.389 250.301 196.219 250.301 193.543C250.301 190.866 248.131 188.696 245.454 188.696C242.777 188.696 240.607 190.866 240.607 193.543C240.607 196.219 242.777 198.389 245.454 198.389Z" fill="#F6F6F6"/>
<path d="M197.736 192.774L183.489 192.774C179.995 192.773 177.307 189.682 177.777 186.255L181.943 156.956H199.281L203.448 186.255C203.918 189.682 201.23 192.774 197.736 192.774Z" fill="#404040"/>
<path d="M190.64 171.716C201.084 171.716 209.552 163.249 209.552 152.804C209.552 142.359 201.084 133.892 190.64 133.892C180.195 133.892 171.728 142.359 171.728 152.804C171.728 163.249 180.195 171.716 190.64 171.716Z" fill="#404040"/>
<path d="M255.751 181.424L293.945 175.888H327.496L357.452 181.872L305.928 207.754L255.751 181.424Z" fill="black"/>
<path d="M325.849 208.802C325.849 208.802 258.297 171.699 250.359 183.818C238.826 201.322 256.5 210.148 319.108 227.054L325.849 208.802Z" fill="black"/>
<path d="M344.421 227.353C346.068 223.314 344.121 218.676 340.077 217.03L324.5 210.597L318.509 225.259L334.086 231.692C338.13 233.337 342.773 231.392 344.421 227.353Z" fill="#404040"/>
<path d="M323.601 212.991L335.434 217.928C338.13 219.125 339.478 222.267 338.279 224.96C337.081 227.653 333.936 228.999 331.24 227.802L319.407 222.865L323.601 212.991Z" fill="#FF9800"/>
<path opacity="0.45" d="M319.557 222.715L335.134 229.148C338.729 230.644 342.773 229.298 344.87 226.007C344.72 226.455 344.72 226.904 344.421 227.353C342.773 231.392 338.13 233.337 334.086 231.692L318.509 225.259L319.557 222.715Z" fill="#063272"/>
<path d="M324.649 223.014L327.196 217.03C327.345 216.731 327.645 216.581 327.944 216.731C328.244 216.88 328.394 217.179 328.244 217.479L325.698 223.463C325.548 223.762 325.248 223.912 324.949 223.762C324.649 223.612 324.5 223.313 324.649 223.014Z" fill="#E6E6E6"/>
<path d="M328.394 224.511L330.941 218.526C331.09 218.227 331.39 218.078 331.69 218.227C331.989 218.377 332.139 218.676 331.989 218.975L329.443 224.959C329.293 225.259 328.994 225.408 328.694 225.259C328.394 225.109 328.245 224.81 328.394 224.511Z" fill="#E6E6E6"/>
<path d="M332.438 226.156L334.985 220.172C335.134 219.873 335.434 219.723 335.734 219.873C336.033 220.022 336.183 220.321 336.033 220.621L333.487 226.605C333.337 226.904 333.038 227.054 332.738 226.904C332.438 226.904 332.289 226.455 332.438 226.156Z" fill="#E6E6E6"/>
<path d="M350.262 158.683C349.214 155.093 344.121 149.108 339.478 136.691C334.685 123.825 314.315 122.479 314.315 122.479L306.377 126.667L298.438 122.479C298.438 122.479 278.068 123.825 273.275 136.691C268.632 149.108 263.539 155.093 262.491 158.683C261.442 162.274 267.134 185.313 283.161 188.604H305.778H306.976H329.593C345.769 185.313 351.311 162.274 350.262 158.683Z" fill="#9F9F9F"/>
<path d="M315.214 122.628V128.912C315.214 128.912 313.716 135.943 306.827 137.14C299.637 135.495 298.589 128.912 298.589 128.912V122.628H315.214Z" fill="#F49290"/>
<path d="M291.1 110.062C291.1 110.062 288.703 95.2506 294.395 93.4553C295.893 93.0065 294.844 88.0695 303.382 88.0695C315.065 87.9199 324.351 86.4238 322.703 110.361L291.1 110.062Z" fill="#404040"/>
<path d="M294.394 115.747C296.628 115.747 298.439 113.938 298.439 111.707C298.439 109.476 296.628 107.668 294.394 107.668C292.161 107.668 290.35 109.476 290.35 111.707C290.35 113.938 292.161 115.747 294.394 115.747Z" fill="#FFB5B1"/>
<path d="M319.109 115.747C321.342 115.747 323.153 113.938 323.153 111.707C323.153 109.476 321.342 107.668 319.109 107.668C316.875 107.668 315.064 109.476 315.064 111.707C315.064 113.938 316.875 115.747 319.109 115.747Z" fill="#FFB5B1"/>
<path d="M320.307 104.975C320.157 104.975 316.862 103.778 316.263 99.5894L314.615 100.038C309.673 101.385 304.58 101.385 299.637 99.8886L298.289 99.5894C297.69 103.778 294.245 104.826 294.095 104.975L293.946 111.558C293.946 115.298 295.593 119.936 298.139 123.526C300.236 126.369 303.681 128.164 307.276 128.164C310.871 128.164 314.316 126.518 316.413 123.526C318.959 119.936 320.607 115.298 320.607 111.558L320.307 104.975Z" fill="#FFB5B1"/>
<path d="M328.095 159.133H285.558C283.161 159.133 281.214 161.078 281.214 163.471V189.054C281.214 191.448 283.161 193.393 285.558 193.393H328.095C330.492 193.393 332.439 191.448 332.439 189.054V163.471C332.439 161.078 330.492 159.133 328.095 159.133Z" fill="#FF9800"/>
<path d="M306.677 180.975C309.572 180.975 311.919 178.631 311.919 175.739C311.919 172.847 309.572 170.502 306.677 170.502C303.782 170.502 301.435 172.847 301.435 175.739C301.435 178.631 303.782 180.975 306.677 180.975Z" fill="#F6F6F6"/>
<path d="M285.707 208.802C285.707 208.802 353.258 171.699 361.197 183.818C372.73 201.322 355.056 210.148 292.447 227.054L285.707 208.802Z" fill="#404040"/>
<path d="M267.135 227.353C265.487 223.314 267.434 218.676 271.479 217.03L287.056 210.597L293.047 225.259L277.47 231.692C273.426 233.337 268.782 231.392 267.135 227.353Z" fill="#404040"/>
<path d="M292.149 222.865L280.316 227.802C277.62 228.999 274.474 227.653 273.276 224.96C272.078 222.267 273.426 219.125 276.122 217.928L287.955 212.991L292.149 222.865Z" fill="#FF9800"/>
<path opacity="0.45" d="M291.998 222.715L276.421 229.148C272.826 230.644 268.782 229.298 266.685 226.007C266.835 226.455 266.835 226.904 267.134 227.353C268.782 231.392 273.425 233.337 277.469 231.692L293.046 225.259L291.998 222.715Z" fill="#063272"/>
<path d="M286.908 223.014L284.361 217.03C284.212 216.731 283.912 216.581 283.612 216.731C283.313 216.88 283.163 217.179 283.313 217.479L285.859 223.463C286.009 223.762 286.309 223.912 286.608 223.762C286.908 223.612 287.057 223.313 286.908 223.014Z" fill="#E6E6E6"/>
<path d="M283.163 224.511L280.616 218.526C280.466 218.227 280.167 218.078 279.867 218.227C279.568 218.377 279.418 218.676 279.568 218.975L282.114 224.959C282.264 225.259 282.563 225.408 282.863 225.259C283.163 225.109 283.312 224.81 283.163 224.511Z" fill="#E6E6E6"/>
<path d="M279.119 226.156L276.572 220.172C276.423 219.873 276.123 219.723 275.823 219.873C275.524 220.022 275.374 220.321 275.524 220.621L278.07 226.605C278.22 226.904 278.519 227.054 278.819 226.904C279.119 226.904 279.268 226.455 279.119 226.156Z" fill="#E6E6E6"/>
</svg>
